<?xml version="1.0" encoding="UTF-8" standalone="no"?>
<!-- Created with Inkscape (http://www.inkscape.org/) -->

<svg
   xmlns:i="http://ns.adobe.com/AdobeIllustrator/10.0/"
   xmlns:dc="http://purl.org/dc/elements/1.1/"
   xmlns:cc="http://creativecommons.org/ns#"
   xmlns:rdf="http://www.w3.org/1999/02/22-rdf-syntax-ns#"
   xmlns:svg="http://www.w3.org/2000/svg"
   xmlns="http://www.w3.org/2000/svg"
   xmlns:sodipodi="http://sodipodi.sourceforge.net/DTD/sodipodi-0.dtd"
   xmlns:inkscape="http://www.inkscape.org/namespaces/inkscape"
   width="150.31046mm"
   height="202.35953mm"
   viewBox="0 0 532.5961 717.02194"
   id="svg4162"
   version="1.1"
   inkscape:version="0.91 r13725"
   sodipodi:docname="etapes_soudure.svg">
  <title
     id="title4286">soldering steps</title>
  <defs
     id="defs4164">
    <marker
       inkscape:isstock="true"
       style="overflow:visible"
       id="marker4977"
       refX="0"
       refY="0"
       orient="auto"
       inkscape:stockid="Arrow1Lend">
      <path
         transform="matrix(-0.8,0,0,-0.8,-10,0)"
         style="fill:#000000;fill-opacity:1;fill-rule:evenodd;stroke:#000000;stroke-width:1pt;stroke-opacity:1"
         d="M 0,0 5,-5 -12.5,0 5,5 0,0 Z"
         id="path4979"
         inkscape:connector-curvature="0" />
    </marker>
    <marker
       inkscape:stockid="Arrow1Lend"
       orient="auto"
       refY="0"
       refX="0"
       id="Arrow1Lend"
       style="overflow:visible"
       inkscape:isstock="true"
       inkscape:collect="always">
      <path
         id="path4720"
         d="M 0,0 5,-5 -12.5,0 5,5 0,0 Z"
         style="fill:#000000;fill-opacity:1;fill-rule:evenodd;stroke:#000000;stroke-width:1pt;stroke-opacity:1"
         transform="matrix(-0.8,0,0,-0.8,-10,0)"
         inkscape:connector-curvature="0" />
    </marker>
  </defs>
  <sodipodi:namedview
     id="base"
     pagecolor="#ffffff"
     bordercolor="#666666"
     borderopacity="1.0"
     inkscape:pageopacity="0.0"
     inkscape:pageshadow="2"
     inkscape:zoom="0.70802552"
     inkscape:cx="169.7486"
     inkscape:cy="340.20175"
     inkscape:document-units="px"
     inkscape:current-layer="layer1"
     showgrid="false"
     inkscape:window-width="1920"
     inkscape:window-height="995"
     inkscape:window-x="0"
     inkscape:window-y="0"
     inkscape:window-maximized="1"
     fit-margin-top="0"
     fit-margin-left="0"
     fit-margin-right="0"
     fit-margin-bottom="0" />
  <metadata
     id="metadata4167">
    <rdf:RDF>
      <cc:Work
         rdf:about="">
        <dc:format>image/svg+xml</dc:format>
        <dc:type
           rdf:resource="http://purl.org/dc/dcmitype/StillImage" />
        <dc:title>soldering steps</dc:title>
        <cc:license
           rdf:resource="http://creativecommons.org/publicdomain/zero/1.0/" />
        <dc:creator>
          <cc:Agent>
            <dc:title>Jerome Labidurie</dc:title>
          </cc:Agent>
        </dc:creator>
        <dc:publisher>
          <cc:Agent>
            <dc:title>Fablab Lannion</dc:title>
          </cc:Agent>
        </dc:publisher>
        <dc:description>http://dinask.eu
http://fablab-lannion.org
</dc:description>
      </cc:Work>
      <cc:License
         rdf:about="http://creativecommons.org/publicdomain/zero/1.0/">
        <cc:permits
           rdf:resource="http://creativecommons.org/ns#Reproduction" />
        <cc:permits
           rdf:resource="http://creativecommons.org/ns#Distribution" />
        <cc:permits
           rdf:resource="http://creativecommons.org/ns#DerivativeWorks" />
      </cc:License>
    </rdf:RDF>
  </metadata>
  <g
     inkscape:label="Calque 1"
     inkscape:groupmode="layer"
     id="layer1"
     transform="translate(-29.98069,-32.199832)">
    <g
       id="g4666"
       transform="translate(21.274428,0)">
      <path
         style="opacity:1;fill:none;fill-opacity:1;fill-rule:nonzero;stroke:#000000;stroke-width:1;stroke-linecap:round;stroke-linejoin:miter;stroke-miterlimit:4;stroke-dasharray:none;stroke-dashoffset:0;stroke-opacity:1"
         d="m 316.7887,110.5744 122.22847,0 0,15.36585 -122.22847,0"
         id="path4305"
         inkscape:connector-curvature="0"
         sodipodi:nodetypes="cccc" />
      <g
         id="g4413">
        <path
           sodipodi:nodetypes="cssccssccc"
           d="m 449.37018,58.81003 0.21764,69.1496 c 0.0453,14.39502 -11.62386,26.09054 -26.0202,26.13585 l -112.00819,0.35254 3.29177,-3.50197 105.44725,-0.33189 c 14.02003,-0.0441 25.40439,-11.83445 25.35893,-26.27668 l -0.21853,-69.43281 3.94576,3.90794 z"
           i:knockout="Off"
           id="path4309"
           inkscape:connector-curvature="0"
           style="clip-rule:evenodd;fill:#ff0000;fill-rule:evenodd" />
        <path
           d="m 353.75758,165.56001 c -0.94519,0.0502 -1.8404,0.1474 -2.69089,0.29168 -0.75214,0.14397 -1.46043,0.47661 -2.31032,0.8097 -0.79948,0.52173 -1.88198,1.51637 -3.06213,1.8977 -1.13033,0.38117 -2.54458,0.95204 -4.05736,0.62639 -1.41619,-0.0427 -3.35408,-0.46146 -4.72472,-1.44838 -1.32475,-0.98706 -2.46379,-2.54113 -3.4114,-4.0958 -0.61953,-1.4613 -0.9538,-2.68748 -1.57086,-4.19599 -0.61924,-1.3669 -1.23951,-3.0642 -2.56339,-4.19286 -1.183,-0.94031 -2.83712,-1.59592 -4.96045,-1.77805 l -0.006,-1.74644 c 2.12229,-0.14697 3.77225,-0.81299 4.94916,-1.80923 1.31836,-1.04259 1.92808,-2.69656 2.53695,-4.20762 0.6077,-1.46516 0.93424,-2.69474 1.54441,-4.2058 0.93826,-1.419 2.06749,-2.98151 3.38556,-4.11719 1.36469,-0.90243 3.29991,-1.33334 4.7155,-1.47809 1.50984,-0.19487 2.92766,0.3684 4.06122,0.60084 1.18167,0.5155 2.27172,1.5033 3.07401,1.87708 0.85096,0.42213 1.56133,0.75031 2.31538,0.79513 0.85022,0.18745 1.74734,0.27771 2.69267,0.27474 l 33.74878,-0.10622 c 0.99123,-0.003 1.88644,-0.099 2.69089,-0.29168 0.84685,-0.0499 1.55644,-0.38251 2.31032,-0.8097 0.89564,-0.37912 1.97814,-1.37507 3.06214,-1.89639 1.22648,-0.23987 2.64073,-0.81074 4.05736,-0.62639 1.46236,0.13569 3.54055,0.55527 4.77323,1.44822 1.41959,1.12706 2.60321,2.6823 3.36289,4.09596 0.75997,1.50674 1.09424,2.73424 1.57217,4.19599 0.75734,1.50675 1.37747,3.15685 2.56076,4.19156 1.27887,0.98852 2.93168,1.64414 4.96045,1.77805 l 0.006,1.74644 c -2.02774,0.1965 -3.6777,0.86121 -4.94916,1.80924 -1.17646,1.13653 -1.78604,2.8377 -2.53432,4.2089 -0.46857,1.51193 -0.79512,2.74019 -1.54573,4.20581 -0.75031,1.56001 -1.92413,3.12135 -3.33704,4.11703 -1.22673,0.9951 -3.30093,1.42644 -4.76402,1.47825 -1.41499,0.33486 -2.83281,-0.22709 -4.06122,-0.60084 -1.08682,-0.37419 -2.17556,-1.362 -3.07402,-1.87839 -0.75625,-0.32803 -1.46662,-0.6562 -2.31538,-0.79514 -0.80417,-0.13776 -1.70129,-0.23065 -2.69266,-0.27473 l -33.73567,0.10618 z"
           i:knockout="Off"
           id="path4311"
           inkscape:connector-curvature="0"
           style="clip-rule:evenodd;fill:#6d2203;fill-rule:evenodd" />
        <path
           d="m 332.64732,161.18164 76.13537,-0.23963 c -0.0925,0.61391 -0.28155,0.94492 -0.56166,1.51222 -0.23685,0.56716 -0.32729,0.99226 -0.98663,1.46504 -0.42317,0.52055 -1.41231,1.18448 -2.26294,1.28287 -0.75433,0.28559 -1.60675,-0.18506 -2.54919,-0.51119 -0.7561,-0.28083 -0.94904,-1.17574 -2.60111,-1.59667 -1.74733,-0.2777 -4.39133,-0.50539 -7.1781,-0.68543 -2.54785,-0.0864 -1.55808,-0.1367 -8.11773,-0.11605 -6.51506,0.0205 -23.26999,0.12044 -30.39705,0.23728 -6.84488,0.21035 -8.59117,0.26305 -11.23223,0.55457 -2.64193,0.43313 -3.44417,0.90898 -4.76475,1.24355 -1.08474,0.28662 -1.74481,0.52471 -2.54651,0.33842 -0.70978,-0.13937 -1.41782,-0.56327 -1.93998,-1.07953 -0.37719,-0.28202 -0.56953,-0.98944 -0.75967,-1.41365 -0.14542,-0.37978 -0.29068,-0.70711 -0.23914,-0.99573 z"
           i:knockout="Off"
           id="path4313"
           inkscape:connector-curvature="0"
           style="clip-rule:evenodd;fill:#8d5c25;fill-rule:evenodd" />
        <path
           d="m 408.96619,160.08918 -76.70178,0.24142 -0.90628,-2.16711 78.59114,-0.24736 -0.97651,2.17959 z"
           i:knockout="Off"
           id="path4315"
           inkscape:connector-curvature="0"
           style="clip-rule:evenodd;fill:#b0722e;fill-rule:evenodd" />
        <path
           d="m 385.76254,165.45928 c 0.17793,-3.87109 0.3059,-7.78791 0.19738,-12.27171 -0.0135,-4.2953 -0.12248,-8.92202 -0.32557,-13.87754 l -3.73151,0.0117 c 0.20571,4.95552 0.31468,9.58224 0.3282,13.87754 0.10851,4.48379 -0.0194,8.40062 -0.19739,12.2717 l 3.72365,-0.0117 z"
           i:knockout="Off"
           id="path4317"
           inkscape:connector-curvature="0"
           style="clip-rule:evenodd;fill:#1d0e82;fill-rule:evenodd" />
        <path
           d="m 380.00663,165.47739 c 0.17793,-3.87108 0.26001,-7.78776 0.2459,-12.27185 -0.0135,-4.2953 -0.0766,-8.92217 -0.37409,-13.87739 l -3.72889,0.0117 c 0.29749,4.95523 0.36057,9.58209 0.37409,13.87739 0.0141,4.4841 -0.068,8.40077 -0.2459,12.27186 l 3.72365,-0.0117 z"
           i:knockout="Off"
           id="path4319"
           inkscape:connector-curvature="0"
           style="clip-rule:evenodd;fill:#fb0f0c;fill-rule:evenodd" />
        <path
           d="m 374.76206,165.4939 c 0.17794,-3.87109 0.3059,-7.78791 0.20001,-12.27171 -0.0135,-4.2953 -0.12248,-8.92202 -0.3282,-13.87754 l -3.72889,0.0117 c 0.2975,4.95523 0.36057,9.58209 0.37409,13.87739 0.0141,4.48409 -0.068,8.40077 -0.24589,12.27186 l 3.73675,-0.0118 z"
           i:knockout="Off"
           id="path4321"
           inkscape:connector-curvature="0"
           style="clip-rule:evenodd;fill:#fb0f0c;fill-rule:evenodd" />
        <path
           d="m 355.22606,165.55539 c -0.1551,-3.87004 -0.26314,-7.78612 -0.32314,-12.27007 0.0324,-4.29544 0.0663,-8.92261 0.28672,-13.87947 l 3.683,-0.0116 c -0.12732,4.95656 -0.20847,9.58388 -0.24084,13.87933 -0.0318,4.48423 0.12084,8.40017 0.27463,12.27022 l -3.6712,0.0115 z"
           i:knockout="Off"
           id="path4323"
           inkscape:connector-curvature="0"
           style="clip-rule:evenodd;fill:#fb0f0c;fill-rule:evenodd" />
        <path
           d="m 360.74596,165.53802 c -0.15247,-3.87005 -0.30902,-7.78598 -0.27463,-12.27022 0.0324,-4.29545 0.11221,-8.92276 0.23822,-13.87932 l 3.73151,-0.0118 c -0.22303,4.95687 -0.25436,9.58403 -0.28673,13.87948 0.06,4.48394 0.16673,8.40003 0.32052,12.27007 l -3.73676,0.0118 z"
           i:knockout="Off"
           id="path4325"
           inkscape:connector-curvature="0"
           style="clip-rule:evenodd;fill:#f0a04a;fill-rule:evenodd" />
      </g>
      <path
         sodipodi:nodetypes="cccc"
         inkscape:connector-curvature="0"
         id="path4327"
         d="m 497.88064,110.5744 -41.87132,0 0,15.36585 41.87132,0"
         style="opacity:1;fill:none;fill-opacity:1;fill-rule:nonzero;stroke:#000000;stroke-width:1;stroke-linecap:round;stroke-linejoin:miter;stroke-miterlimit:4;stroke-dasharray:none;stroke-dashoffset:0;stroke-opacity:1" />
      <path
         style="fill:none;fill-rule:evenodd;stroke:#ff0000;stroke-width:3;stroke-linecap:butt;stroke-linejoin:miter;stroke-miterlimit:4;stroke-dasharray:none;stroke-opacity:1"
         d="m 422.4963,108.49718 18.53727,0 0,19.48351 -18.28473,0"
         id="path4329"
         inkscape:connector-curvature="0"
         sodipodi:nodetypes="cccc" />
      <path
         sodipodi:nodetypes="cccc"
         inkscape:connector-curvature="0"
         id="path4331"
         d="m 472.62285,108.49718 -18.53727,0 0,19.48351 18.28473,0"
         style="fill:none;fill-rule:evenodd;stroke:#ff0000;stroke-width:3;stroke-linecap:butt;stroke-linejoin:miter;stroke-miterlimit:4;stroke-dasharray:none;stroke-opacity:1" />
      <g
         id="g4333"
         transform="matrix(-1.3160303,-1.3677032,1.3677032,-1.3160303,596.90016,573.32749)">
        <path
           sodipodi:nodetypes="ccc"
           inkscape:connector-curvature="0"
           id="path4335"
           d="m 248.57232,131.88077 c -9.44764,1.90474 -17.473,1.40033 -26.7875,0 20.00654,-23.4079 13.35172,-23.39608 26.7875,0 z"
           inkscape:transform-center-y="-3.6976971"
           style="opacity:1;fill:#ff0000;fill-opacity:1;fill-rule:nonzero;stroke:#000000;stroke-width:1.24972737;stroke-linecap:round;stroke-linejoin:round;stroke-miterlimit:4;stroke-dasharray:none;stroke-dashoffset:0;stroke-opacity:1"
           transform="matrix(0.61591098,0,0,0.96019705,84.615223,5.8016086)" />
        <path
           inkscape:connector-curvature="0"
           id="path4337"
           d="m 221.3731,132.27924 0,24.10714"
           style="fill:none;fill-rule:evenodd;stroke:#000000;stroke-width:1px;stroke-linecap:butt;stroke-linejoin:miter;stroke-opacity:1" />
        <path
           inkscape:connector-curvature="0"
           id="path4339"
           d="m 237.56992,132.18996 0.42864,29.25721"
           style="fill:none;fill-rule:evenodd;stroke:#000000;stroke-width:1px;stroke-linecap:butt;stroke-linejoin:miter;stroke-opacity:1"
           sodipodi:nodetypes="cc" />
      </g>
    </g>
    <g
       id="g4641"
       transform="translate(21.274428,30.014404)">
      <path
         sodipodi:nodetypes="cccc"
         inkscape:connector-curvature="0"
         id="path4435"
         d="m 316.7887,271.69373 122.22847,0 0,15.36585 -122.22847,0"
         style="opacity:1;fill:none;fill-opacity:1;fill-rule:nonzero;stroke:#000000;stroke-width:1;stroke-linecap:round;stroke-linejoin:miter;stroke-miterlimit:4;stroke-dasharray:none;stroke-dashoffset:0;stroke-opacity:1" />
      <g
         transform="translate(0,161.11933)"
         id="g4437">
        <path
           style="clip-rule:evenodd;fill:#ff0000;fill-rule:evenodd"
           inkscape:connector-curvature="0"
           id="path4439"
           i:knockout="Off"
           d="m 449.37018,58.81003 0.21764,69.1496 c 0.0453,14.39502 -11.62386,26.09054 -26.0202,26.13585 l -112.00819,0.35254 3.29177,-3.50197 105.44725,-0.33189 c 14.02003,-0.0441 25.40439,-11.83445 25.35893,-26.27668 l -0.21853,-69.43281 3.94576,3.90794 z"
           sodipodi:nodetypes="cssccssccc" />
        <path
           style="clip-rule:evenodd;fill:#6d2203;fill-rule:evenodd"
           inkscape:connector-curvature="0"
           id="path4441"
           i:knockout="Off"
           d="m 353.75758,165.56001 c -0.94519,0.0502 -1.8404,0.1474 -2.69089,0.29168 -0.75214,0.14397 -1.46043,0.47661 -2.31032,0.8097 -0.79948,0.52173 -1.88198,1.51637 -3.06213,1.8977 -1.13033,0.38117 -2.54458,0.95204 -4.05736,0.62639 -1.41619,-0.0427 -3.35408,-0.46146 -4.72472,-1.44838 -1.32475,-0.98706 -2.46379,-2.54113 -3.4114,-4.0958 -0.61953,-1.4613 -0.9538,-2.68748 -1.57086,-4.19599 -0.61924,-1.3669 -1.23951,-3.0642 -2.56339,-4.19286 -1.183,-0.94031 -2.83712,-1.59592 -4.96045,-1.77805 l -0.006,-1.74644 c 2.12229,-0.14697 3.77225,-0.81299 4.94916,-1.80923 1.31836,-1.04259 1.92808,-2.69656 2.53695,-4.20762 0.6077,-1.46516 0.93424,-2.69474 1.54441,-4.2058 0.93826,-1.419 2.06749,-2.98151 3.38556,-4.11719 1.36469,-0.90243 3.29991,-1.33334 4.7155,-1.47809 1.50984,-0.19487 2.92766,0.3684 4.06122,0.60084 1.18167,0.5155 2.27172,1.5033 3.07401,1.87708 0.85096,0.42213 1.56133,0.75031 2.31538,0.79513 0.85022,0.18745 1.74734,0.27771 2.69267,0.27474 l 33.74878,-0.10622 c 0.99123,-0.003 1.88644,-0.099 2.69089,-0.29168 0.84685,-0.0499 1.55644,-0.38251 2.31032,-0.8097 0.89564,-0.37912 1.97814,-1.37507 3.06214,-1.89639 1.22648,-0.23987 2.64073,-0.81074 4.05736,-0.62639 1.46236,0.13569 3.54055,0.55527 4.77323,1.44822 1.41959,1.12706 2.60321,2.6823 3.36289,4.09596 0.75997,1.50674 1.09424,2.73424 1.57217,4.19599 0.75734,1.50675 1.37747,3.15685 2.56076,4.19156 1.27887,0.98852 2.93168,1.64414 4.96045,1.77805 l 0.006,1.74644 c -2.02774,0.1965 -3.6777,0.86121 -4.94916,1.80924 -1.17646,1.13653 -1.78604,2.8377 -2.53432,4.2089 -0.46857,1.51193 -0.79512,2.74019 -1.54573,4.20581 -0.75031,1.56001 -1.92413,3.12135 -3.33704,4.11703 -1.22673,0.9951 -3.30093,1.42644 -4.76402,1.47825 -1.41499,0.33486 -2.83281,-0.22709 -4.06122,-0.60084 -1.08682,-0.37419 -2.17556,-1.362 -3.07402,-1.87839 -0.75625,-0.32803 -1.46662,-0.6562 -2.31538,-0.79514 -0.80417,-0.13776 -1.70129,-0.23065 -2.69266,-0.27473 l -33.73567,0.10618 z" />
        <path
           style="clip-rule:evenodd;fill:#8d5c25;fill-rule:evenodd"
           inkscape:connector-curvature="0"
           id="path4443"
           i:knockout="Off"
           d="m 332.64732,161.18164 76.13537,-0.23963 c -0.0925,0.61391 -0.28155,0.94492 -0.56166,1.51222 -0.23685,0.56716 -0.32729,0.99226 -0.98663,1.46504 -0.42317,0.52055 -1.41231,1.18448 -2.26294,1.28287 -0.75433,0.28559 -1.60675,-0.18506 -2.54919,-0.51119 -0.7561,-0.28083 -0.94904,-1.17574 -2.60111,-1.59667 -1.74733,-0.2777 -4.39133,-0.50539 -7.1781,-0.68543 -2.54785,-0.0864 -1.55808,-0.1367 -8.11773,-0.11605 -6.51506,0.0205 -23.26999,0.12044 -30.39705,0.23728 -6.84488,0.21035 -8.59117,0.26305 -11.23223,0.55457 -2.64193,0.43313 -3.44417,0.90898 -4.76475,1.24355 -1.08474,0.28662 -1.74481,0.52471 -2.54651,0.33842 -0.70978,-0.13937 -1.41782,-0.56327 -1.93998,-1.07953 -0.37719,-0.28202 -0.56953,-0.98944 -0.75967,-1.41365 -0.14542,-0.37978 -0.29068,-0.70711 -0.23914,-0.99573 z" />
        <path
           style="clip-rule:evenodd;fill:#b0722e;fill-rule:evenodd"
           inkscape:connector-curvature="0"
           id="path4445"
           i:knockout="Off"
           d="m 408.96619,160.08918 -76.70178,0.24142 -0.90628,-2.16711 78.59114,-0.24736 -0.97651,2.17959 z" />
        <path
           style="clip-rule:evenodd;fill:#1d0e82;fill-rule:evenodd"
           inkscape:connector-curvature="0"
           id="path4447"
           i:knockout="Off"
           d="m 385.76254,165.45928 c 0.17793,-3.87109 0.3059,-7.78791 0.19738,-12.27171 -0.0135,-4.2953 -0.12248,-8.92202 -0.32557,-13.87754 l -3.73151,0.0117 c 0.20571,4.95552 0.31468,9.58224 0.3282,13.87754 0.10851,4.48379 -0.0194,8.40062 -0.19739,12.2717 l 3.72365,-0.0117 z" />
        <path
           style="clip-rule:evenodd;fill:#fb0f0c;fill-rule:evenodd"
           inkscape:connector-curvature="0"
           id="path4449"
           i:knockout="Off"
           d="m 380.00663,165.47739 c 0.17793,-3.87108 0.26001,-7.78776 0.2459,-12.27185 -0.0135,-4.2953 -0.0766,-8.92217 -0.37409,-13.87739 l -3.72889,0.0117 c 0.29749,4.95523 0.36057,9.58209 0.37409,13.87739 0.0141,4.4841 -0.068,8.40077 -0.2459,12.27186 l 3.72365,-0.0117 z" />
        <path
           style="clip-rule:evenodd;fill:#fb0f0c;fill-rule:evenodd"
           inkscape:connector-curvature="0"
           id="path4451"
           i:knockout="Off"
           d="m 374.76206,165.4939 c 0.17794,-3.87109 0.3059,-7.78791 0.20001,-12.27171 -0.0135,-4.2953 -0.12248,-8.92202 -0.3282,-13.87754 l -3.72889,0.0117 c 0.2975,4.95523 0.36057,9.58209 0.37409,13.87739 0.0141,4.48409 -0.068,8.40077 -0.24589,12.27186 l 3.73675,-0.0118 z" />
        <path
           style="clip-rule:evenodd;fill:#fb0f0c;fill-rule:evenodd"
           inkscape:connector-curvature="0"
           id="path4453"
           i:knockout="Off"
           d="m 355.22606,165.55539 c -0.1551,-3.87004 -0.26314,-7.78612 -0.32314,-12.27007 0.0324,-4.29544 0.0663,-8.92261 0.28672,-13.87947 l 3.683,-0.0116 c -0.12732,4.95656 -0.20847,9.58388 -0.24084,13.87933 -0.0318,4.48423 0.12084,8.40017 0.27463,12.27022 l -3.6712,0.0115 z" />
        <path
           style="clip-rule:evenodd;fill:#f0a04a;fill-rule:evenodd"
           inkscape:connector-curvature="0"
           id="path4455"
           i:knockout="Off"
           d="m 360.74596,165.53802 c -0.15247,-3.87005 -0.30902,-7.78598 -0.27463,-12.27022 0.0324,-4.29545 0.11221,-8.92276 0.23822,-13.87932 l 3.73151,-0.0118 c -0.22303,4.95687 -0.25436,9.58403 -0.28673,13.87948 0.06,4.48394 0.16673,8.40003 0.32052,12.27007 l -3.73676,0.0118 z" />
      </g>
      <path
         style="opacity:1;fill:none;fill-opacity:1;fill-rule:nonzero;stroke:#000000;stroke-width:1;stroke-linecap:round;stroke-linejoin:miter;stroke-miterlimit:4;stroke-dasharray:none;stroke-dashoffset:0;stroke-opacity:1"
         d="m 497.88064,271.69373 -41.87132,0 0,15.36585 41.87132,0"
         id="path4457"
         inkscape:connector-curvature="0"
         sodipodi:nodetypes="cccc" />
      <path
         sodipodi:nodetypes="cccc"
         inkscape:connector-curvature="0"
         id="path4459"
         d="m 422.4963,269.61651 18.53727,0 0,19.48351 -18.28473,0"
         style="fill:none;fill-rule:evenodd;stroke:#ff0000;stroke-width:3;stroke-linecap:butt;stroke-linejoin:miter;stroke-miterlimit:4;stroke-dasharray:none;stroke-opacity:1" />
      <path
         style="fill:none;fill-rule:evenodd;stroke:#ff0000;stroke-width:3;stroke-linecap:butt;stroke-linejoin:miter;stroke-miterlimit:4;stroke-dasharray:none;stroke-opacity:1"
         d="m 472.62285,269.61651 -18.53727,0 0,19.48351 18.28473,0"
         id="path4461"
         inkscape:connector-curvature="0"
         sodipodi:nodetypes="cccc" />
      <g
         transform="matrix(-1.3160303,-1.3677032,1.3677032,-1.3160303,596.90016,734.44682)"
         id="g4463">
        <path
           transform="matrix(0.61591098,0,0,0.96019705,84.615223,5.8016086)"
           style="opacity:1;fill:#ff0000;fill-opacity:1;fill-rule:nonzero;stroke:#000000;stroke-width:1.24972737;stroke-linecap:round;stroke-linejoin:round;stroke-miterlimit:4;stroke-dasharray:none;stroke-dashoffset:0;stroke-opacity:1"
           inkscape:transform-center-y="-3.6976971"
           d="m 248.57232,131.88077 c -9.44764,1.90474 -17.473,1.40033 -26.7875,0 20.00654,-23.4079 13.35172,-23.39608 26.7875,0 z"
           id="path4465"
           inkscape:connector-curvature="0"
           sodipodi:nodetypes="ccc" />
        <path
           style="fill:none;fill-rule:evenodd;stroke:#000000;stroke-width:1px;stroke-linecap:butt;stroke-linejoin:miter;stroke-opacity:1"
           d="m 221.3731,132.27924 0,24.10714"
           id="path4467"
           inkscape:connector-curvature="0" />
        <path
           sodipodi:nodetypes="cc"
           style="fill:none;fill-rule:evenodd;stroke:#000000;stroke-width:1px;stroke-linecap:butt;stroke-linejoin:miter;stroke-opacity:1"
           d="m 237.56992,132.18996 0.42864,29.25721"
           id="path4469"
           inkscape:connector-curvature="0" />
      </g>
      <g
         style="fill:#20f0f3;fill-opacity:1"
         id="g4471"
         transform="matrix(0.8660254,0.5,-0.5,0.8660254,344.92951,53.101038)">
        <rect
           y="130.75504"
           x="104.91071"
           height="6.6071429"
           width="82.946426"
           id="rect4473"
           style="opacity:1;fill:#20f0f3;fill-opacity:1;fill-rule:nonzero;stroke:none;stroke-width:1;stroke-linecap:round;stroke-linejoin:round;stroke-miterlimit:4;stroke-dasharray:none;stroke-dashoffset:0;stroke-opacity:1" />
        <g
           style="fill:#20f0f3;fill-opacity:1"
           transform="matrix(1,4.9441508e-5,-4.9441508e-5,1,20.311855,-12.996178)"
           id="g4475">
          <path
             style="opacity:1;fill:#20f0f3;fill-opacity:1;fill-rule:nonzero;stroke:#000000;stroke-width:1;stroke-linecap:round;stroke-linejoin:round;stroke-miterlimit:4;stroke-dasharray:none;stroke-dashoffset:0;stroke-opacity:1"
             d="m 168.44294,150.54849 -83.590126,0 m 0,-6.81852 83.590126,0"
             id="path4477"
             inkscape:connector-curvature="0"
             sodipodi:nodetypes="cccc" />
          <ellipse
             style="opacity:1;fill:#20f0f3;fill-opacity:1;fill-rule:nonzero;stroke:#000000;stroke-width:1.03214824;stroke-linecap:round;stroke-linejoin:round;stroke-miterlimit:4;stroke-dasharray:none;stroke-dashoffset:0;stroke-opacity:1"
             id="ellipse4479"
             cx="168.66391"
             cy="147.17081"
             rx="1.656991"
             ry="3.3616235" />
        </g>
      </g>
    </g>
    <g
       id="g4614"
       transform="translate(21.274428,51.947693)">
      <path
         style="opacity:1;fill:none;fill-opacity:1;fill-rule:nonzero;stroke:#000000;stroke-width:1;stroke-linecap:round;stroke-linejoin:miter;stroke-miterlimit:4;stroke-dasharray:none;stroke-dashoffset:0;stroke-opacity:1"
         d="m 316.7887,440.89428 122.22847,0 0,15.36585 -122.22847,0"
         id="path4481"
         inkscape:connector-curvature="0"
         sodipodi:nodetypes="cccc" />
      <g
         id="g4483"
         transform="translate(0,330.31988)">
        <path
           sodipodi:nodetypes="cssccssccc"
           d="m 449.37018,58.81003 0.21764,69.1496 c 0.0453,14.39502 -11.62386,26.09054 -26.0202,26.13585 l -112.00819,0.35254 3.29177,-3.50197 105.44725,-0.33189 c 14.02003,-0.0441 25.40439,-11.83445 25.35893,-26.27668 l -0.21853,-69.43281 3.94576,3.90794 z"
           i:knockout="Off"
           id="path4485"
           inkscape:connector-curvature="0"
           style="clip-rule:evenodd;fill:#ff0000;fill-rule:evenodd" />
        <path
           d="m 353.75758,165.56001 c -0.94519,0.0502 -1.8404,0.1474 -2.69089,0.29168 -0.75214,0.14397 -1.46043,0.47661 -2.31032,0.8097 -0.79948,0.52173 -1.88198,1.51637 -3.06213,1.8977 -1.13033,0.38117 -2.54458,0.95204 -4.05736,0.62639 -1.41619,-0.0427 -3.35408,-0.46146 -4.72472,-1.44838 -1.32475,-0.98706 -2.46379,-2.54113 -3.4114,-4.0958 -0.61953,-1.4613 -0.9538,-2.68748 -1.57086,-4.19599 -0.61924,-1.3669 -1.23951,-3.0642 -2.56339,-4.19286 -1.183,-0.94031 -2.83712,-1.59592 -4.96045,-1.77805 l -0.006,-1.74644 c 2.12229,-0.14697 3.77225,-0.81299 4.94916,-1.80923 1.31836,-1.04259 1.92808,-2.69656 2.53695,-4.20762 0.6077,-1.46516 0.93424,-2.69474 1.54441,-4.2058 0.93826,-1.419 2.06749,-2.98151 3.38556,-4.11719 1.36469,-0.90243 3.29991,-1.33334 4.7155,-1.47809 1.50984,-0.19487 2.92766,0.3684 4.06122,0.60084 1.18167,0.5155 2.27172,1.5033 3.07401,1.87708 0.85096,0.42213 1.56133,0.75031 2.31538,0.79513 0.85022,0.18745 1.74734,0.27771 2.69267,0.27474 l 33.74878,-0.10622 c 0.99123,-0.003 1.88644,-0.099 2.69089,-0.29168 0.84685,-0.0499 1.55644,-0.38251 2.31032,-0.8097 0.89564,-0.37912 1.97814,-1.37507 3.06214,-1.89639 1.22648,-0.23987 2.64073,-0.81074 4.05736,-0.62639 1.46236,0.13569 3.54055,0.55527 4.77323,1.44822 1.41959,1.12706 2.60321,2.6823 3.36289,4.09596 0.75997,1.50674 1.09424,2.73424 1.57217,4.19599 0.75734,1.50675 1.37747,3.15685 2.56076,4.19156 1.27887,0.98852 2.93168,1.64414 4.96045,1.77805 l 0.006,1.74644 c -2.02774,0.1965 -3.6777,0.86121 -4.94916,1.80924 -1.17646,1.13653 -1.78604,2.8377 -2.53432,4.2089 -0.46857,1.51193 -0.79512,2.74019 -1.54573,4.20581 -0.75031,1.56001 -1.92413,3.12135 -3.33704,4.11703 -1.22673,0.9951 -3.30093,1.42644 -4.76402,1.47825 -1.41499,0.33486 -2.83281,-0.22709 -4.06122,-0.60084 -1.08682,-0.37419 -2.17556,-1.362 -3.07402,-1.87839 -0.75625,-0.32803 -1.46662,-0.6562 -2.31538,-0.79514 -0.80417,-0.13776 -1.70129,-0.23065 -2.69266,-0.27473 l -33.73567,0.10618 z"
           i:knockout="Off"
           id="path4487"
           inkscape:connector-curvature="0"
           style="clip-rule:evenodd;fill:#6d2203;fill-rule:evenodd" />
        <path
           d="m 332.64732,161.18164 76.13537,-0.23963 c -0.0925,0.61391 -0.28155,0.94492 -0.56166,1.51222 -0.23685,0.56716 -0.32729,0.99226 -0.98663,1.46504 -0.42317,0.52055 -1.41231,1.18448 -2.26294,1.28287 -0.75433,0.28559 -1.60675,-0.18506 -2.54919,-0.51119 -0.7561,-0.28083 -0.94904,-1.17574 -2.60111,-1.59667 -1.74733,-0.2777 -4.39133,-0.50539 -7.1781,-0.68543 -2.54785,-0.0864 -1.55808,-0.1367 -8.11773,-0.11605 -6.51506,0.0205 -23.26999,0.12044 -30.39705,0.23728 -6.84488,0.21035 -8.59117,0.26305 -11.23223,0.55457 -2.64193,0.43313 -3.44417,0.90898 -4.76475,1.24355 -1.08474,0.28662 -1.74481,0.52471 -2.54651,0.33842 -0.70978,-0.13937 -1.41782,-0.56327 -1.93998,-1.07953 -0.37719,-0.28202 -0.56953,-0.98944 -0.75967,-1.41365 -0.14542,-0.37978 -0.29068,-0.70711 -0.23914,-0.99573 z"
           i:knockout="Off"
           id="path4489"
           inkscape:connector-curvature="0"
           style="clip-rule:evenodd;fill:#8d5c25;fill-rule:evenodd" />
        <path
           d="m 408.96619,160.08918 -76.70178,0.24142 -0.90628,-2.16711 78.59114,-0.24736 -0.97651,2.17959 z"
           i:knockout="Off"
           id="path4491"
           inkscape:connector-curvature="0"
           style="clip-rule:evenodd;fill:#b0722e;fill-rule:evenodd" />
        <path
           d="m 385.76254,165.45928 c 0.17793,-3.87109 0.3059,-7.78791 0.19738,-12.27171 -0.0135,-4.2953 -0.12248,-8.92202 -0.32557,-13.87754 l -3.73151,0.0117 c 0.20571,4.95552 0.31468,9.58224 0.3282,13.87754 0.10851,4.48379 -0.0194,8.40062 -0.19739,12.2717 l 3.72365,-0.0117 z"
           i:knockout="Off"
           id="path4493"
           inkscape:connector-curvature="0"
           style="clip-rule:evenodd;fill:#1d0e82;fill-rule:evenodd" />
        <path
           d="m 380.00663,165.47739 c 0.17793,-3.87108 0.26001,-7.78776 0.2459,-12.27185 -0.0135,-4.2953 -0.0766,-8.92217 -0.37409,-13.87739 l -3.72889,0.0117 c 0.29749,4.95523 0.36057,9.58209 0.37409,13.87739 0.0141,4.4841 -0.068,8.40077 -0.2459,12.27186 l 3.72365,-0.0117 z"
           i:knockout="Off"
           id="path4495"
           inkscape:connector-curvature="0"
           style="clip-rule:evenodd;fill:#fb0f0c;fill-rule:evenodd" />
        <path
           d="m 374.76206,165.4939 c 0.17794,-3.87109 0.3059,-7.78791 0.20001,-12.27171 -0.0135,-4.2953 -0.12248,-8.92202 -0.3282,-13.87754 l -3.72889,0.0117 c 0.2975,4.95523 0.36057,9.58209 0.37409,13.87739 0.0141,4.48409 -0.068,8.40077 -0.24589,12.27186 l 3.73675,-0.0118 z"
           i:knockout="Off"
           id="path4497"
           inkscape:connector-curvature="0"
           style="clip-rule:evenodd;fill:#fb0f0c;fill-rule:evenodd" />
        <path
           d="m 355.22606,165.55539 c -0.1551,-3.87004 -0.26314,-7.78612 -0.32314,-12.27007 0.0324,-4.29544 0.0663,-8.92261 0.28672,-13.87947 l 3.683,-0.0116 c -0.12732,4.95656 -0.20847,9.58388 -0.24084,13.87933 -0.0318,4.48423 0.12084,8.40017 0.27463,12.27022 l -3.6712,0.0115 z"
           i:knockout="Off"
           id="path4499"
           inkscape:connector-curvature="0"
           style="clip-rule:evenodd;fill:#fb0f0c;fill-rule:evenodd" />
        <path
           d="m 360.74596,165.53802 c -0.15247,-3.87005 -0.30902,-7.78598 -0.27463,-12.27022 0.0324,-4.29545 0.11221,-8.92276 0.23822,-13.87932 l 3.73151,-0.0118 c -0.22303,4.95687 -0.25436,9.58403 -0.28673,13.87948 0.06,4.48394 0.16673,8.40003 0.32052,12.27007 l -3.73676,0.0118 z"
           i:knockout="Off"
           id="path4501"
           inkscape:connector-curvature="0"
           style="clip-rule:evenodd;fill:#f0a04a;fill-rule:evenodd" />
      </g>
      <path
         sodipodi:nodetypes="cccc"
         inkscape:connector-curvature="0"
         id="path4503"
         d="m 497.88064,440.89428 -41.87132,0 0,15.36585 41.87132,0"
         style="opacity:1;fill:none;fill-opacity:1;fill-rule:nonzero;stroke:#000000;stroke-width:1;stroke-linecap:round;stroke-linejoin:miter;stroke-miterlimit:4;stroke-dasharray:none;stroke-dashoffset:0;stroke-opacity:1" />
      <path
         style="fill:none;fill-rule:evenodd;stroke:#ff0000;stroke-width:3;stroke-linecap:butt;stroke-linejoin:miter;stroke-miterlimit:4;stroke-dasharray:none;stroke-opacity:1"
         d="m 422.4963,438.81706 18.53727,0 0,19.48351 -18.28473,0"
         id="path4505"
         inkscape:connector-curvature="0"
         sodipodi:nodetypes="cccc" />
      <path
         sodipodi:nodetypes="cccc"
         inkscape:connector-curvature="0"
         id="path4507"
         d="m 472.62285,438.81706 -18.53727,0 0,19.48351 18.28473,0"
         style="fill:none;fill-rule:evenodd;stroke:#ff0000;stroke-width:3;stroke-linecap:butt;stroke-linejoin:miter;stroke-miterlimit:4;stroke-dasharray:none;stroke-opacity:1" />
      <path
         sodipodi:nodetypes="cccccc"
         inkscape:connector-curvature="0"
         id="path4535"
         d="m 449.51788,423.73163 c 6.46225,2.41878 10.64721,6.94617 12.56378,13.57392 l -9.40705,0.0631 -0.0631,22.41276 -3.03046,-0.12626 z"
         style="fill:#20f0f3;fill-opacity:1;fill-rule:evenodd;stroke:none;stroke-width:1px;stroke-linecap:butt;stroke-linejoin:miter;stroke-opacity:1" />
      <g
         id="g4509"
         transform="matrix(-1.3160303,-1.3677032,1.3677032,-1.3160303,596.90016,903.64737)">
        <path
           sodipodi:nodetypes="ccc"
           inkscape:connector-curvature="0"
           id="path4511"
           d="m 248.57232,131.88077 c -9.44764,1.90474 -17.473,1.40033 -26.7875,0 20.00654,-23.4079 13.35172,-23.39608 26.7875,0 z"
           inkscape:transform-center-y="-3.6976971"
           style="opacity:1;fill:#ff0000;fill-opacity:1;fill-rule:nonzero;stroke:#000000;stroke-width:1.24972737;stroke-linecap:round;stroke-linejoin:round;stroke-miterlimit:4;stroke-dasharray:none;stroke-dashoffset:0;stroke-opacity:1"
           transform="matrix(0.61591098,0,0,0.96019705,84.615223,5.8016086)" />
        <path
           inkscape:connector-curvature="0"
           id="path4513"
           d="m 221.3731,132.27924 0,24.10714"
           style="fill:none;fill-rule:evenodd;stroke:#000000;stroke-width:1px;stroke-linecap:butt;stroke-linejoin:miter;stroke-opacity:1" />
        <path
           inkscape:connector-curvature="0"
           id="path4515"
           d="m 237.56992,132.18996 0.42864,29.25721"
           style="fill:none;fill-rule:evenodd;stroke:#000000;stroke-width:1px;stroke-linecap:butt;stroke-linejoin:miter;stroke-opacity:1"
           sodipodi:nodetypes="cc" />
      </g>
      <g
         style="fill:#20f0f3;fill-opacity:1"
         transform="matrix(0.8660254,0.5,-0.5,0.8660254,344.92951,222.30159)"
         id="g4517">
        <rect
           style="opacity:1;fill:#20f0f3;fill-opacity:1;fill-rule:nonzero;stroke:none;stroke-width:1;stroke-linecap:round;stroke-linejoin:round;stroke-miterlimit:4;stroke-dasharray:none;stroke-dashoffset:0;stroke-opacity:1"
           id="rect4519"
           width="82.946426"
           height="6.6071429"
           x="104.91071"
           y="130.75504" />
        <g
           id="g4521"
           transform="matrix(1,4.9441508e-5,-4.9441508e-5,1,20.311855,-12.996178)"
           style="fill:#20f0f3;fill-opacity:1">
          <path
             sodipodi:nodetypes="cccc"
             inkscape:connector-curvature="0"
             id="path4523"
             d="m 168.44294,150.54849 -83.590126,0 m 0,-6.81852 83.590126,0"
             style="opacity:1;fill:#20f0f3;fill-opacity:1;fill-rule:nonzero;stroke:#000000;stroke-width:1;stroke-linecap:round;stroke-linejoin:round;stroke-miterlimit:4;stroke-dasharray:none;stroke-dashoffset:0;stroke-opacity:1" />
          <ellipse
             ry="3.3616235"
             rx="1.656991"
             cy="147.17081"
             cx="168.66391"
             id="ellipse4525"
             style="opacity:1;fill:#20f0f3;fill-opacity:1;fill-rule:nonzero;stroke:#000000;stroke-width:1.03214824;stroke-linecap:round;stroke-linejoin:round;stroke-miterlimit:4;stroke-dasharray:none;stroke-dashoffset:0;stroke-opacity:1" />
        </g>
      </g>
      <path
         sodipodi:nodetypes="cccccccc"
         inkscape:connector-curvature="0"
         id="path4533"
         d="m 437.35064,426.00447 c 2.48859,-1.81957 5.33317,-2.42729 8.36456,-2.39911 l 0.0146,36.11295 -3.07481,0.0631 0,-22.60216 -9.04461,0.0631 c -0.21667,-2.10213 0.68006,-3.85121 0.68006,-3.85121 z"
         style="fill:#20f0f3;fill-opacity:1;fill-rule:evenodd;stroke:none;stroke-width:1px;stroke-linecap:butt;stroke-linejoin:miter;stroke-opacity:1" />
    </g>
    <g
       id="g5506"
       transform="translate(0,100.33404)">
      <path
         sodipodi:nodetypes="cssccssccc"
         d="m 449.45684,537.91295 0.21764,69.1496 c 0.0453,14.39502 -11.62386,26.09054 -26.0202,26.13585 l -112.00819,0.35254 3.29177,-3.50197 105.44725,-0.33189 c 14.02003,-0.0441 25.40439,-11.83445 25.35893,-26.27668 l -0.21853,-69.43281 3.94576,3.90794 z"
         i:knockout="Off"
         id="path97"
         inkscape:connector-curvature="0"
         style="clip-rule:evenodd;fill:#808080;fill-rule:evenodd" />
      <path
         sodipodi:nodetypes="cccc"
         inkscape:connector-curvature="0"
         id="path4537"
         d="m 316.7887,590.17999 122.22847,0 0,15.36585 -122.22847,0"
         style="opacity:1;fill:none;fill-opacity:1;fill-rule:nonzero;stroke:#000000;stroke-width:1;stroke-linecap:round;stroke-linejoin:miter;stroke-miterlimit:4;stroke-dasharray:none;stroke-dashoffset:0;stroke-opacity:1" />
      <path
         d="m 353.75758,645.1656 c -0.94519,0.0502 -1.8404,0.1474 -2.69089,0.29168 -0.75214,0.14397 -1.46043,0.47661 -2.31032,0.8097 -0.79948,0.52173 -1.88198,1.51637 -3.06213,1.8977 -1.13033,0.38117 -2.54458,0.95204 -4.05736,0.62639 -1.41619,-0.0427 -3.35408,-0.46146 -4.72472,-1.44838 -1.32475,-0.98706 -2.46379,-2.54113 -3.4114,-4.0958 -0.61953,-1.4613 -0.9538,-2.68748 -1.57086,-4.19599 -0.61924,-1.3669 -1.23951,-3.0642 -2.56339,-4.19286 -1.183,-0.94031 -2.83712,-1.59592 -4.96045,-1.77805 l -0.006,-1.74644 c 2.12229,-0.14697 3.77225,-0.81299 4.94916,-1.80923 1.31836,-1.04259 1.92808,-2.69656 2.53695,-4.20762 0.6077,-1.46516 0.93424,-2.69474 1.54441,-4.2058 0.93826,-1.419 2.06749,-2.98151 3.38556,-4.11719 1.36469,-0.90243 3.29991,-1.33334 4.7155,-1.47809 1.50984,-0.19487 2.92766,0.3684 4.06122,0.60084 1.18167,0.5155 2.27172,1.5033 3.07401,1.87708 0.85096,0.42213 1.56133,0.75031 2.31538,0.79513 0.85022,0.18745 1.74734,0.27771 2.69267,0.27474 l 33.74878,-0.10622 c 0.99123,-0.003 1.88644,-0.099 2.69089,-0.29168 0.84685,-0.0499 1.55644,-0.38251 2.31032,-0.8097 0.89564,-0.37912 1.97814,-1.37507 3.06214,-1.89639 1.22648,-0.23987 2.64073,-0.81074 4.05736,-0.62639 1.46236,0.13569 3.54055,0.55527 4.77323,1.44822 1.41959,1.12706 2.60321,2.6823 3.36289,4.09596 0.75997,1.50674 1.09424,2.73424 1.57217,4.19599 0.75734,1.50675 1.37747,3.15685 2.56076,4.19156 1.27887,0.98852 2.93168,1.64414 4.96045,1.77805 l 0.006,1.74644 c -2.02774,0.1965 -3.6777,0.86121 -4.94916,1.80924 -1.17646,1.13653 -1.78604,2.8377 -2.53432,4.2089 -0.46857,1.51193 -0.79512,2.74019 -1.54573,4.20581 -0.75031,1.56001 -1.92413,3.12135 -3.33704,4.11703 -1.22673,0.9951 -3.30093,1.42644 -4.76402,1.47825 -1.41499,0.33486 -2.83281,-0.22709 -4.06122,-0.60084 -1.08682,-0.37419 -2.17556,-1.362 -3.07402,-1.87839 -0.75625,-0.32803 -1.46662,-0.6562 -2.31538,-0.79514 -0.80417,-0.13776 -1.70129,-0.23065 -2.69266,-0.27473 l -33.73567,0.10618 z"
         i:knockout="Off"
         id="path4543"
         inkscape:connector-curvature="0"
         style="clip-rule:evenodd;fill:#6d2203;fill-rule:evenodd" />
      <path
         d="m 332.64732,640.78723 76.13537,-0.23963 c -0.0925,0.61391 -0.28155,0.94492 -0.56166,1.51222 -0.23685,0.56716 -0.32729,0.99226 -0.98663,1.46504 -0.42317,0.52055 -1.41231,1.18448 -2.26294,1.28287 -0.75433,0.28559 -1.60675,-0.18506 -2.54919,-0.51119 -0.7561,-0.28083 -0.94904,-1.17574 -2.60111,-1.59667 -1.74733,-0.2777 -4.39133,-0.50539 -7.1781,-0.68543 -2.54785,-0.0864 -1.55808,-0.1367 -8.11773,-0.11605 -6.51506,0.0205 -23.26999,0.12044 -30.39705,0.23728 -6.84488,0.21035 -8.59117,0.26305 -11.23223,0.55457 -2.64193,0.43313 -3.44417,0.90898 -4.76475,1.24355 -1.08474,0.28662 -1.74481,0.52471 -2.54651,0.33842 -0.70978,-0.13937 -1.41782,-0.56327 -1.93998,-1.07953 -0.37719,-0.28202 -0.56953,-0.98944 -0.75967,-1.41365 -0.14542,-0.37978 -0.29068,-0.70711 -0.23914,-0.99573 z"
         i:knockout="Off"
         id="path4545"
         inkscape:connector-curvature="0"
         style="clip-rule:evenodd;fill:#8d5c25;fill-rule:evenodd" />
      <path
         d="m 408.96619,639.69477 -76.70178,0.24142 -0.90628,-2.16711 78.59114,-0.24736 -0.97651,2.17959 z"
         i:knockout="Off"
         id="path4547"
         inkscape:connector-curvature="0"
         style="clip-rule:evenodd;fill:#b0722e;fill-rule:evenodd" />
      <path
         d="m 385.76254,645.06487 c 0.17793,-3.87109 0.3059,-7.78791 0.19738,-12.27171 -0.0135,-4.2953 -0.12248,-8.92202 -0.32557,-13.87754 l -3.73151,0.0117 c 0.20571,4.95552 0.31468,9.58224 0.3282,13.87754 0.10851,4.48379 -0.0194,8.40062 -0.19739,12.2717 l 3.72365,-0.0117 z"
         i:knockout="Off"
         id="path4549"
         inkscape:connector-curvature="0"
         style="clip-rule:evenodd;fill:#1d0e82;fill-rule:evenodd" />
      <path
         d="m 380.00663,645.08298 c 0.17793,-3.87108 0.26001,-7.78776 0.2459,-12.27185 -0.0135,-4.2953 -0.0766,-8.92217 -0.37409,-13.87739 l -3.72889,0.0117 c 0.29749,4.95523 0.36057,9.58209 0.37409,13.87739 0.0141,4.4841 -0.068,8.40077 -0.2459,12.27186 l 3.72365,-0.0117 z"
         i:knockout="Off"
         id="path4551"
         inkscape:connector-curvature="0"
         style="clip-rule:evenodd;fill:#fb0f0c;fill-rule:evenodd" />
      <path
         d="m 374.76206,645.09949 c 0.17794,-3.87109 0.3059,-7.78791 0.20001,-12.27171 -0.0135,-4.2953 -0.12248,-8.92202 -0.3282,-13.87754 l -3.72889,0.0117 c 0.2975,4.95523 0.36057,9.58209 0.37409,13.87739 0.0141,4.48409 -0.068,8.40077 -0.24589,12.27186 l 3.73675,-0.0118 z"
         i:knockout="Off"
         id="path4553"
         inkscape:connector-curvature="0"
         style="clip-rule:evenodd;fill:#fb0f0c;fill-rule:evenodd" />
      <path
         d="m 355.22606,645.16098 c -0.1551,-3.87004 -0.26314,-7.78612 -0.32314,-12.27007 0.0324,-4.29544 0.0663,-8.92261 0.28672,-13.87947 l 3.683,-0.0116 c -0.12732,4.95656 -0.20847,9.58388 -0.24084,13.87933 -0.0318,4.48423 0.12084,8.40017 0.27463,12.27022 l -3.6712,0.0115 z"
         i:knockout="Off"
         id="path4555"
         inkscape:connector-curvature="0"
         style="clip-rule:evenodd;fill:#fb0f0c;fill-rule:evenodd" />
      <path
         d="m 360.74596,645.14361 c -0.15247,-3.87005 -0.30902,-7.78598 -0.27463,-12.27022 0.0324,-4.29545 0.11221,-8.92276 0.23822,-13.87932 l 3.73151,-0.0118 c -0.22303,4.95687 -0.25436,9.58403 -0.28673,13.87948 0.06,4.48394 0.16673,8.40003 0.32052,12.27007 l -3.73676,0.0118 z"
         i:knockout="Off"
         id="path4557"
         inkscape:connector-curvature="0"
         style="clip-rule:evenodd;fill:#f0a04a;fill-rule:evenodd" />
      <path
         style="opacity:1;fill:none;fill-opacity:1;fill-rule:nonzero;stroke:#000000;stroke-width:1;stroke-linecap:round;stroke-linejoin:miter;stroke-miterlimit:4;stroke-dasharray:none;stroke-dashoffset:0;stroke-opacity:1"
         d="m 497.88064,590.17999 -41.87132,0 0,15.36585 41.87132,0"
         id="path4559"
         inkscape:connector-curvature="0"
         sodipodi:nodetypes="cccc" />
      <path
         sodipodi:nodetypes="cccc"
         inkscape:connector-curvature="0"
         id="path4561"
         d="m 422.4963,588.10277 18.53727,0 0,19.48351 -18.28473,0"
         style="fill:none;fill-rule:evenodd;stroke:#000000;stroke-width:3;stroke-linecap:butt;stroke-linejoin:miter;stroke-miterlimit:4;stroke-dasharray:none;stroke-opacity:1" />
      <path
         style="fill:none;fill-rule:evenodd;stroke:#000000;stroke-width:3;stroke-linecap:butt;stroke-linejoin:miter;stroke-miterlimit:4;stroke-dasharray:none;stroke-opacity:1"
         d="m 472.62285,588.10277 -18.53727,0 0,19.48351 18.28473,0"
         id="path4563"
         inkscape:connector-curvature="0"
         sodipodi:nodetypes="cccc" />
      <path
         style="fill:#20f0f3;fill-opacity:1;fill-rule:evenodd;stroke:none;stroke-width:1px;stroke-linecap:butt;stroke-linejoin:miter;stroke-opacity:1"
         d="m 449.42859,570.07091 c 3.87297,9.8295 12.65307,16.52035 12.65307,16.52035 l -9.40705,0.0631 -0.0631,22.41276 -3.03046,-0.12626 z"
         id="path4565"
         inkscape:connector-curvature="0"
         sodipodi:nodetypes="cccccc" />
      <path
         sodipodi:nodetypes="czcc"
         inkscape:connector-curvature="0"
         id="path5080"
         d="m 470.36574,561.12878 c -0.96806,0.19993 -9.01571,7.91903 -6.30525,14.18252 2.71046,6.26349 15.6911,-1.24949 16.93692,-4.00626 z"
         style="fill:#20f0f3;fill-opacity:1;fill-rule:evenodd;stroke:none;stroke-width:1px;stroke-linecap:butt;stroke-linejoin:miter;stroke-opacity:1" />
      <g
         transform="matrix(-1.3160303,-1.3677032,1.3677032,-1.3160303,612.30499,1041.3163)"
         id="g4567">
        <path
           transform="matrix(0.61591098,0,0,0.96019705,84.615223,5.8016086)"
           style="opacity:1;fill:#ff0000;fill-opacity:1;fill-rule:nonzero;stroke:#000000;stroke-width:1.24972737;stroke-linecap:round;stroke-linejoin:round;stroke-miterlimit:4;stroke-dasharray:none;stroke-dashoffset:0;stroke-opacity:1"
           inkscape:transform-center-y="-3.6976971"
           d="m 248.57232,131.88077 c -9.44764,1.90474 -17.473,1.40033 -26.7875,0 20.00654,-23.4079 13.35172,-23.39608 26.7875,0 z"
           id="path4569"
           inkscape:connector-curvature="0"
           sodipodi:nodetypes="ccc" />
        <path
           style="fill:none;fill-rule:evenodd;stroke:#000000;stroke-width:1px;stroke-linecap:butt;stroke-linejoin:miter;stroke-opacity:1"
           d="m 221.3731,132.27924 0,24.10714"
           id="path4571"
           inkscape:connector-curvature="0" />
        <path
           sodipodi:nodetypes="cc"
           style="fill:none;fill-rule:evenodd;stroke:#000000;stroke-width:1px;stroke-linecap:butt;stroke-linejoin:miter;stroke-opacity:1"
           d="m 237.56992,132.18996 0.42864,29.25721"
           id="path4573"
           inkscape:connector-curvature="0" />
      </g>
      <g
         id="g4575"
         transform="matrix(0.8660254,0.5,-0.5,0.8660254,328.26199,361.48577)"
         style="fill:#20f0f3;fill-opacity:1">
        <rect
           y="130.75504"
           x="104.91071"
           height="6.6071429"
           width="82.946426"
           id="rect4577"
           style="opacity:1;fill:#20f0f3;fill-opacity:1;fill-rule:nonzero;stroke:none;stroke-width:1;stroke-linecap:round;stroke-linejoin:round;stroke-miterlimit:4;stroke-dasharray:none;stroke-dashoffset:0;stroke-opacity:1" />
        <g
           style="fill:#20f0f3;fill-opacity:1"
           transform="matrix(1,4.9441508e-5,-4.9441508e-5,1,20.311855,-12.996178)"
           id="g4579">
          <path
             style="opacity:1;fill:#20f0f3;fill-opacity:1;fill-rule:nonzero;stroke:#000000;stroke-width:1;stroke-linecap:round;stroke-linejoin:round;stroke-miterlimit:4;stroke-dasharray:none;stroke-dashoffset:0;stroke-opacity:1"
             d="m 168.44294,150.54849 -83.590126,0 m 0,-6.81852 83.590126,0"
             id="path4581"
             inkscape:connector-curvature="0"
             sodipodi:nodetypes="cccc" />
          <ellipse
             style="opacity:1;fill:#20f0f3;fill-opacity:1;fill-rule:nonzero;stroke:#000000;stroke-width:1.03214824;stroke-linecap:round;stroke-linejoin:round;stroke-miterlimit:4;stroke-dasharray:none;stroke-dashoffset:0;stroke-opacity:1"
             id="ellipse4583"
             cx="168.66391"
             cy="147.17081"
             rx="1.656991"
             ry="3.3616235" />
        </g>
      </g>
      <path
         style="fill:#20f0f3;fill-opacity:1;fill-rule:evenodd;stroke:none;stroke-width:1px;stroke-linecap:butt;stroke-linejoin:miter;stroke-opacity:1"
         d="m 445.62591,570.2125 0.10389,38.79152 -3.07481,0.0631 0,-22.60216 -9.04461,0.0631 c 8.31141,-7.42381 9.33014,-9.70945 12.01553,-16.31556 z"
         id="path4585"
         inkscape:connector-curvature="0"
         sodipodi:nodetypes="cccccc" />
      <path
         inkscape:connector-curvature="0"
         id="path4711"
         d="M 385.87827,571.52957 332.34019,537.18438"
         style="fill:none;fill-rule:evenodd;stroke:#000000;stroke-width:1px;stroke-linecap:butt;stroke-linejoin:miter;stroke-opacity:1;marker-end:url(#Arrow1Lend)" />
      <path
         style="fill:none;fill-rule:evenodd;stroke:#000000;stroke-width:1px;stroke-linecap:butt;stroke-linejoin:miter;stroke-opacity:1;marker-end:url(#marker4977)"
         d="m 507.50683,536.52957 53.53808,-34.34519"
         id="path4975"
         inkscape:connector-curvature="0" />
      <text
         sodipodi:linespacing="125%"
         id="text4981"
         y="572.36212"
         x="342.85712"
         style="font-style:normal;font-variant:normal;font-weight:normal;font-stretch:normal;font-size:24px;line-height:125%;font-family:'DejaVu Sans';-inkscape-font-specification:'DejaVu Sans';letter-spacing:0px;word-spacing:0px;fill:#000000;fill-opacity:1;stroke:none;stroke-width:1px;stroke-linecap:butt;stroke-linejoin:miter;stroke-opacity:1"
         xml:space="preserve"><tspan
           y="572.36212"
           x="342.85712"
           id="tspan4983"
           sodipodi:role="line">1</tspan></text>
      <text
         xml:space="preserve"
         style="font-style:normal;font-variant:normal;font-weight:normal;font-stretch:normal;font-size:24px;line-height:125%;font-family:'DejaVu Sans';-inkscape-font-specification:'DejaVu Sans';letter-spacing:0px;word-spacing:0px;fill:#000000;fill-opacity:1;stroke:none;stroke-width:1px;stroke-linecap:butt;stroke-linejoin:miter;stroke-opacity:1"
         x="544.28571"
         y="538.07642"
         id="text4985"
         sodipodi:linespacing="125%"><tspan
           sodipodi:role="line"
           id="tspan4987"
           x="544.28571"
           y="538.07642">2</tspan></text>
    </g>
    <g
       id="g5927"
       transform="translate(0,0.38435)">
      <path
         sodipodi:nodetypes="cccc"
         inkscape:connector-curvature="0"
         id="rect4170"
         d="m 36.471372,110.5744 122.228468,0 0,15.36585 -122.228468,0"
         style="opacity:1;fill:none;fill-opacity:1;fill-rule:nonzero;stroke:#000000;stroke-width:1;stroke-linecap:round;stroke-linejoin:miter;stroke-miterlimit:4;stroke-dasharray:none;stroke-dashoffset:0;stroke-opacity:1" />
      <path
         style="opacity:1;fill:none;fill-opacity:1;fill-rule:nonzero;stroke:#000000;stroke-width:1;stroke-linecap:round;stroke-linejoin:miter;stroke-miterlimit:4;stroke-dasharray:none;stroke-dashoffset:0;stroke-opacity:1"
         d="m 214.70617,110.5744 -41.87132,0 0,15.36585 41.87132,0"
         id="path4218"
         inkscape:connector-curvature="0"
         sodipodi:nodetypes="cccc" />
      <path
         sodipodi:nodetypes="cccc"
         inkscape:connector-curvature="0"
         id="path4231"
         d="m 142.17897,108.49718 18.53727,0 0,19.48351 -18.28473,0"
         style="fill:none;fill-rule:evenodd;stroke:#000000;stroke-width:3;stroke-linecap:butt;stroke-linejoin:miter;stroke-miterlimit:4;stroke-dasharray:none;stroke-opacity:1" />
      <path
         style="fill:none;fill-rule:evenodd;stroke:#000000;stroke-width:3;stroke-linecap:butt;stroke-linejoin:miter;stroke-miterlimit:4;stroke-dasharray:none;stroke-opacity:1"
         d="m 189.44838,108.49718 -18.53727,0 0,19.48351 18.28473,0"
         id="path4237"
         inkscape:connector-curvature="0"
         sodipodi:nodetypes="cccc" />
      <g
         transform="matrix(-1.3160303,-1.3677032,1.3677032,-1.3160303,319.08283,570.47035)"
         id="g4269">
        <path
           transform="matrix(0.61591098,0,0,0.96019705,84.615223,5.8016086)"
           style="opacity:1;fill:none;fill-opacity:1;fill-rule:nonzero;stroke:#000000;stroke-width:1.24972737;stroke-linecap:round;stroke-linejoin:round;stroke-miterlimit:4;stroke-dasharray:none;stroke-dashoffset:0;stroke-opacity:1"
           inkscape:transform-center-y="-3.6976971"
           d="m 248.57232,131.88077 c -9.44764,1.90474 -17.473,1.40033 -26.7875,0 20.00654,-23.4079 13.35172,-23.39608 26.7875,0 z"
           id="path4260"
           inkscape:connector-curvature="0"
           sodipodi:nodetypes="ccc" />
        <path
           style="fill:none;fill-rule:evenodd;stroke:#000000;stroke-width:1px;stroke-linecap:butt;stroke-linejoin:miter;stroke-opacity:1"
           d="m 221.3731,132.27924 0,24.10714"
           id="path4262"
           inkscape:connector-curvature="0" />
        <path
           sodipodi:nodetypes="cc"
           style="fill:none;fill-rule:evenodd;stroke:#000000;stroke-width:1px;stroke-linecap:butt;stroke-linejoin:miter;stroke-opacity:1"
           d="m 237.56992,132.18996 0.42864,29.25721"
           id="path4264"
           inkscape:connector-curvature="0" />
      </g>
      <g
         transform="matrix(0.8660254,0.5,-0.5,0.8660254,59.56142,-112.56398)"
         id="g4299">
        <rect
           style="opacity:1;fill:none;fill-opacity:1;fill-rule:nonzero;stroke:none;stroke-width:1;stroke-linecap:round;stroke-linejoin:round;stroke-miterlimit:4;stroke-dasharray:none;stroke-dashoffset:0;stroke-opacity:1"
           id="rect4285"
           width="82.946426"
           height="6.6071429"
           x="104.91071"
           y="130.75504" />
        <g
           id="g4279"
           transform="matrix(1,4.9441508e-5,-4.9441508e-5,1,20.311855,-12.996178)"
           style="fill:none;fill-opacity:1">
          <path
             sodipodi:nodetypes="cccc"
             inkscape:connector-curvature="0"
             id="rect4274"
             d="m 168.44294,150.54849 -83.590126,0 m 0,-6.81852 83.590126,0"
             style="opacity:1;fill:none;fill-opacity:1;fill-rule:nonzero;stroke:#000000;stroke-width:1;stroke-linecap:round;stroke-linejoin:round;stroke-miterlimit:4;stroke-dasharray:none;stroke-dashoffset:0;stroke-opacity:1" />
          <ellipse
             ry="3.3616235"
             rx="1.656991"
             cy="147.17081"
             cx="168.66391"
             id="path4277"
             style="opacity:1;fill:none;fill-opacity:1;fill-rule:nonzero;stroke:#000000;stroke-width:1.03214824;stroke-linecap:round;stroke-linejoin:round;stroke-miterlimit:4;stroke-dasharray:none;stroke-dashoffset:0;stroke-opacity:1" />
        </g>
      </g>
      <g
         transform="translate(-281.6654,-477.51715)"
         id="g5831">
        <path
           sodipodi:nodetypes="cssccssccc"
           d="m 449.45684,537.91295 0.21764,69.1496 c 0.0453,14.39502 -11.62386,26.09054 -26.0202,26.13585 l -112.00819,0.35254 3.29177,-3.50197 105.44725,-0.33189 c 14.02003,-0.0441 25.40439,-11.83445 25.35893,-26.27668 l -0.21853,-69.43281 3.94576,3.90794 z"
           i:knockout="Off"
           id="path5833"
           inkscape:connector-curvature="0"
           style="clip-rule:evenodd;fill:#808080;fill-rule:evenodd" />
        <path
           d="m 353.75758,645.1656 c -0.94519,0.0502 -1.8404,0.1474 -2.69089,0.29168 -0.75214,0.14397 -1.46043,0.47661 -2.31032,0.8097 -0.79948,0.52173 -1.88198,1.51637 -3.06213,1.8977 -1.13033,0.38117 -2.54458,0.95204 -4.05736,0.62639 -1.41619,-0.0427 -3.35408,-0.46146 -4.72472,-1.44838 -1.32475,-0.98706 -2.46379,-2.54113 -3.4114,-4.0958 -0.61953,-1.4613 -0.9538,-2.68748 -1.57086,-4.19599 -0.61924,-1.3669 -1.23951,-3.0642 -2.56339,-4.19286 -1.183,-0.94031 -2.83712,-1.59592 -4.96045,-1.77805 l -0.006,-1.74644 c 2.12229,-0.14697 3.77225,-0.81299 4.94916,-1.80923 1.31836,-1.04259 1.92808,-2.69656 2.53695,-4.20762 0.6077,-1.46516 0.93424,-2.69474 1.54441,-4.2058 0.93826,-1.419 2.06749,-2.98151 3.38556,-4.11719 1.36469,-0.90243 3.29991,-1.33334 4.7155,-1.47809 1.50984,-0.19487 2.92766,0.3684 4.06122,0.60084 1.18167,0.5155 2.27172,1.5033 3.07401,1.87708 0.85096,0.42213 1.56133,0.75031 2.31538,0.79513 0.85022,0.18745 1.74734,0.27771 2.69267,0.27474 l 33.74878,-0.10622 c 0.99123,-0.003 1.88644,-0.099 2.69089,-0.29168 0.84685,-0.0499 1.55644,-0.38251 2.31032,-0.8097 0.89564,-0.37912 1.97814,-1.37507 3.06214,-1.89639 1.22648,-0.23987 2.64073,-0.81074 4.05736,-0.62639 1.46236,0.13569 3.54055,0.55527 4.77323,1.44822 1.41959,1.12706 2.60321,2.6823 3.36289,4.09596 0.75997,1.50674 1.09424,2.73424 1.57217,4.19599 0.75734,1.50675 1.37747,3.15685 2.56076,4.19156 1.27887,0.98852 2.93168,1.64414 4.96045,1.77805 l 0.006,1.74644 c -2.02774,0.1965 -3.6777,0.86121 -4.94916,1.80924 -1.17646,1.13653 -1.78604,2.8377 -2.53432,4.2089 -0.46857,1.51193 -0.79512,2.74019 -1.54573,4.20581 -0.75031,1.56001 -1.92413,3.12135 -3.33704,4.11703 -1.22673,0.9951 -3.30093,1.42644 -4.76402,1.47825 -1.41499,0.33486 -2.83281,-0.22709 -4.06122,-0.60084 -1.08682,-0.37419 -2.17556,-1.362 -3.07402,-1.87839 -0.75625,-0.32803 -1.46662,-0.6562 -2.31538,-0.79514 -0.80417,-0.13776 -1.70129,-0.23065 -2.69266,-0.27473 l -33.73567,0.10618 z"
           i:knockout="Off"
           id="path5835"
           inkscape:connector-curvature="0"
           style="clip-rule:evenodd;fill:#6d2203;fill-rule:evenodd" />
        <path
           d="m 332.64732,640.78723 76.13537,-0.23963 c -0.0925,0.61391 -0.28155,0.94492 -0.56166,1.51222 -0.23685,0.56716 -0.32729,0.99226 -0.98663,1.46504 -0.42317,0.52055 -1.41231,1.18448 -2.26294,1.28287 -0.75433,0.28559 -1.60675,-0.18506 -2.54919,-0.51119 -0.7561,-0.28083 -0.94904,-1.17574 -2.60111,-1.59667 -1.74733,-0.2777 -4.39133,-0.50539 -7.1781,-0.68543 -2.54785,-0.0864 -1.55808,-0.1367 -8.11773,-0.11605 -6.51506,0.0205 -23.26999,0.12044 -30.39705,0.23728 -6.84488,0.21035 -8.59117,0.26305 -11.23223,0.55457 -2.64193,0.43313 -3.44417,0.90898 -4.76475,1.24355 -1.08474,0.28662 -1.74481,0.52471 -2.54651,0.33842 -0.70978,-0.13937 -1.41782,-0.56327 -1.93998,-1.07953 -0.37719,-0.28202 -0.56953,-0.98944 -0.75967,-1.41365 -0.14542,-0.37978 -0.29068,-0.70711 -0.23914,-0.99573 z"
           i:knockout="Off"
           id="path5837"
           inkscape:connector-curvature="0"
           style="clip-rule:evenodd;fill:#8d5c25;fill-rule:evenodd" />
        <path
           d="m 408.96619,639.69477 -76.70178,0.24142 -0.90628,-2.16711 78.59114,-0.24736 -0.97651,2.17959 z"
           i:knockout="Off"
           id="path5839"
           inkscape:connector-curvature="0"
           style="clip-rule:evenodd;fill:#b0722e;fill-rule:evenodd" />
        <path
           d="m 385.76254,645.06487 c 0.17793,-3.87109 0.3059,-7.78791 0.19738,-12.27171 -0.0135,-4.2953 -0.12248,-8.92202 -0.32557,-13.87754 l -3.73151,0.0117 c 0.20571,4.95552 0.31468,9.58224 0.3282,13.87754 0.10851,4.48379 -0.0194,8.40062 -0.19739,12.2717 l 3.72365,-0.0117 z"
           i:knockout="Off"
           id="path5841"
           inkscape:connector-curvature="0"
           style="clip-rule:evenodd;fill:#1d0e82;fill-rule:evenodd" />
        <path
           d="m 380.00663,645.08298 c 0.17793,-3.87108 0.26001,-7.78776 0.2459,-12.27185 -0.0135,-4.2953 -0.0766,-8.92217 -0.37409,-13.87739 l -3.72889,0.0117 c 0.29749,4.95523 0.36057,9.58209 0.37409,13.87739 0.0141,4.4841 -0.068,8.40077 -0.2459,12.27186 l 3.72365,-0.0117 z"
           i:knockout="Off"
           id="path5843"
           inkscape:connector-curvature="0"
           style="clip-rule:evenodd;fill:#fb0f0c;fill-rule:evenodd" />
        <path
           d="m 374.76206,645.09949 c 0.17794,-3.87109 0.3059,-7.78791 0.20001,-12.27171 -0.0135,-4.2953 -0.12248,-8.92202 -0.3282,-13.87754 l -3.72889,0.0117 c 0.2975,4.95523 0.36057,9.58209 0.37409,13.87739 0.0141,4.48409 -0.068,8.40077 -0.24589,12.27186 l 3.73675,-0.0118 z"
           i:knockout="Off"
           id="path5845"
           inkscape:connector-curvature="0"
           style="clip-rule:evenodd;fill:#fb0f0c;fill-rule:evenodd" />
        <path
           d="m 355.22606,645.16098 c -0.1551,-3.87004 -0.26314,-7.78612 -0.32314,-12.27007 0.0324,-4.29544 0.0663,-8.92261 0.28672,-13.87947 l 3.683,-0.0116 c -0.12732,4.95656 -0.20847,9.58388 -0.24084,13.87933 -0.0318,4.48423 0.12084,8.40017 0.27463,12.27022 l -3.6712,0.0115 z"
           i:knockout="Off"
           id="path5847"
           inkscape:connector-curvature="0"
           style="clip-rule:evenodd;fill:#fb0f0c;fill-rule:evenodd" />
        <path
           d="m 360.74596,645.14361 c -0.15247,-3.87005 -0.30902,-7.78598 -0.27463,-12.27022 0.0324,-4.29545 0.11221,-8.92276 0.23822,-13.87932 l 3.73151,-0.0118 c -0.22303,4.95687 -0.25436,9.58403 -0.28673,13.87948 0.06,4.48394 0.16673,8.40003 0.32052,12.27007 l -3.73676,0.0118 z"
           i:knockout="Off"
           id="path5849"
           inkscape:connector-curvature="0"
           style="clip-rule:evenodd;fill:#f0a04a;fill-rule:evenodd" />
      </g>
    </g>
  </g>
</svg>
