<?xml version="1.0" encoding="UTF-8" standalone="no"?>
<!-- Created with Inkscape (http://www.inkscape.org/) -->

<svg
   xmlns:dc="http://purl.org/dc/elements/1.1/"
   xmlns:cc="http://creativecommons.org/ns#"
   xmlns:rdf="http://www.w3.org/1999/02/22-rdf-syntax-ns#"
   xmlns:svg="http://www.w3.org/2000/svg"
   xmlns="http://www.w3.org/2000/svg"
   xmlns:sodipodi="http://sodipodi.sourceforge.net/DTD/sodipodi-0.dtd"
   xmlns:inkscape="http://www.inkscape.org/namespaces/inkscape"
   width="177.16534"
   height="177.16534"
   id="svg2"
   version="1.1"
   inkscape:version="0.48.4 r9939"
   sodipodi:docname="nounours_source.svg">
  <sodipodi:namedview
     id="base"
     pagecolor="#ffffff"
     bordercolor="#666666"
     borderopacity="1.0"
     inkscape:pageopacity="0.0"
     inkscape:pageshadow="2"
     inkscape:zoom="4.5212003"
     inkscape:cx="88.582672"
     inkscape:cy="88.582672"
     inkscape:document-units="px"
     inkscape:current-layer="layer1"
     showgrid="false"
     units="mm"
     inkscape:window-width="1680"
     inkscape:window-height="988"
     inkscape:window-x="-8"
     inkscape:window-y="-8"
     inkscape:window-maximized="1" />
  <defs
     id="defs4" />
  <metadata
     id="metadata7">
    <rdf:RDF>
      <cc:Work
         rdf:about="">
        <dc:format>image/svg+xml</dc:format>
        <dc:type
           rdf:resource="http://purl.org/dc/dcmitype/StillImage" />
        <dc:title></dc:title>
      </cc:Work>
    </rdf:RDF>
  </metadata>
  <g
     transform="translate(0,-875.1684)"
     id="layer1"
     inkscape:groupmode="layer"
     inkscape:label="Calque 1">
    <path
       style="fill:none;stroke:#000000;stroke-width:1;stroke-linecap:butt;stroke-linejoin:miter;stroke-opacity:1;stroke-miterlimit:4;stroke-dasharray:none"
       d="M99.752117 1041.2715L103.762365763 1045.70112537L108.167064494 1048.86012637L112.844981045 1050.83192161L117.674883266 1051.69992969L122.535539008 1051.54756921L127.305716123 1050.45825879L131.864182462 1048.51541702L136.089705875 1045.8024625L139.861054214 1042.40281384L143.05699533 1038.39988965L145.556297074 1033.87710852L147.237727297 1028.91788906L147.98005385 1023.60564988L147.662044584 1018.02380957L146.16246735 1012.25578674L143.36009 1006.385L145.19621 998.81105L151.17642978 996.590719495L155.955552305 993.650686426L159.588943599 990.141805339L162.131969688 986.214930781L163.639996597 982.020917297L164.168390352 977.710619434L163.772516978 973.434891736L162.5077425 969.34458875L160.429432944 965.590565022L157.592954336 962.323675098L154.0536727 959.694773523L149.866954062 957.854714844L145.088164448 956.954353606L139.772669883 957.144544355L133.975836392 958.576141638L127.75303 961.4L119.26094 955.20308L125.728455469 947.883660313L130.27219375 939.2479775L132.638282656 929.122325938L132.57285 917.333L137.667673047 912.498776038L141.262981719 907.580459863L143.482073437 902.678042546L144.448245625 897.891515156L144.284795703 893.320868762L143.115021094 889.066094434L141.062219219 885.22718324L138.2496875 881.90412625L134.800723359 879.196914534L130.838624219 877.20553916L126.4866875 876.029991199L121.868210625 875.770261719L117.106491016 876.52634179L112.324826094 878.39822248L107.646513281 881.485894861L103.19485 885.88935L98.1752772344 883.838985469L89.897630125 882.93658125L80.8955237031 883.510561406L76.9145529473 884.453828145L73.702573 885.88935L69.2980710691 881.485894861L64.6610328027 878.39822248L59.915148053 876.52634179L55.1841066719 875.770261719L50.5915985115 876.029991199L46.2613134238 877.20553916L42.316941261 879.196914534L38.882171875 881.90412625L36.0806951179 885.22718324L34.0362008418 889.066094434L32.8723788987 893.320868762L32.7129191406 897.891515156L33.6815114197 902.678042546L35.9018455879 907.580459863L39.4976114973 912.498776038L44.592499 917.333L44.527067125 929.122325938L46.8931555 939.2479775L51.436892125 947.883660313L57.904405 955.20308L49.412331 961.4L43.1895227761 958.576141638L37.3926875402 957.144544355L32.0771913209 956.954353606L27.2984001469 957.854714844L23.1116800466 959.694773523L19.5723970488 962.323675098L16.7359171821 965.590565022L14.657606475 969.34458875L13.3928309562 973.434891736L12.9969566543 977.710619434L13.5253495979 982.020917297L15.0333758156 986.214930781L17.5764013361 990.141805339L21.2097921879 993.650686426L25.9889143997 996.590719495L31.969134 998.81105L33.805264 1006.385L31.0028852427 1012.25578674L29.5033067852 1018.02380957L29.1852964741 1023.60564988L29.9276221563 1028.91788906L31.6090516782 1033.87710852L34.1083528867 1038.39988965L37.3042936284 1042.40281384L41.07564175 1045.8024625L45.3011650981 1048.51541702L49.8596315195 1050.45825879L54.6298088608 1051.54756921L59.4904649688 1051.69992969L64.3203676899 1050.83192161L68.9982848711 1048.86012637L73.4029843589 1045.70112537L77.413234 1041.2715L88.35432075 1042.8699L93.9829227813 1042.56274688L99.752117 1041.2715L99.752117 1041.2715"
       id="path3794"
       inkscape:connector-curvature="0"
       sodipodi:nodetypes="ccccccccccccccc" />
  </g>
</svg>
