<?xml version="1.0" encoding="UTF-8" standalone="no"?>
<!-- Created with Inkscape (http://www.inkscape.org/) -->

<svg
   xmlns:dc="http://purl.org/dc/elements/1.1/"
   xmlns:cc="http://creativecommons.org/ns#"
   xmlns:rdf="http://www.w3.org/1999/02/22-rdf-syntax-ns#"
   xmlns:svg="http://www.w3.org/2000/svg"
   xmlns="http://www.w3.org/2000/svg"
   xmlns:sodipodi="http://sodipodi.sourceforge.net/DTD/sodipodi-0.dtd"
   xmlns:inkscape="http://www.inkscape.org/namespaces/inkscape"
   width="177.16534"
   height="177.16534"
   id="svg2"
   version="1.1"
   inkscape:version="0.48.4 r9939"
   sodipodi:docname="Nouveau document 1">
  <defs
     id="defs4" />
  <sodipodi:namedview
     id="base"
     pagecolor="#ffffff"
     bordercolor="#666666"
     borderopacity="1.0"
     inkscape:pageopacity="0.0"
     inkscape:pageshadow="2"
     inkscape:zoom="3.7037948"
     inkscape:cx="171.25129"
     inkscape:cy="88.582688"
     inkscape:document-units="px"
     inkscape:current-layer="layer1"
     showgrid="false"
     units="mm"
     inkscape:window-width="1680"
     inkscape:window-height="988"
     inkscape:window-x="-8"
     inkscape:window-y="-8"
     inkscape:window-maximized="1" />
  <metadata
     id="metadata7">
    <rdf:RDF>
      <cc:Work
         rdf:about="">
        <dc:format>image/svg+xml</dc:format>
        <dc:type
           rdf:resource="http://purl.org/dc/dcmitype/StillImage" />
        <dc:title></dc:title>
      </cc:Work>
    </rdf:RDF>
  </metadata>
  <g
     inkscape:label="Calque 1"
     inkscape:groupmode="layer"
     id="layer1"
     transform="translate(0,-875.1684)">
    <path
       style="fill:#020202"
       d="m 276.74253,1042.4191 c -5.23551,-1.0586 -9.72765,-3.9781 -12.18996,-7.9225 -0.32971,-0.5282 -0.64781,-1.0142 -0.70687,-1.0801 -0.0591,-0.066 -2.23235,-0.1278 -4.82957,-0.1377 -2.59719,-0.01 -5.33399,-0.1024 -6.08178,-0.2055 l -1.35964,-0.1874 -1.23484,1.6977 c -2.43929,3.3537 -5.97901,5.809 -10.10054,7.006 -2.51695,0.7309 -7.71904,0.9137 -10.59851,0.3722 -11.21643,-2.109 -21.30733,-10.9258 -24.75643,-21.6306 -1.00944,-3.133 -1.23755,-4.6237 -1.21241,-7.9231 0.0178,-2.3319 0.1483,-3.5843 0.5162,-4.9529 0.60748,-2.2598 2.05399,-5.163 3.48296,-6.9903 l 1.07853,-1.3792 -0.34795,-1.62195 c -0.19138,-0.89207 -0.39789,-1.86075 -0.45891,-2.15263 -0.0886,-0.42379 -0.46113,-0.63389 -1.84943,-1.04303 -12.27513,-3.61751 -19.00602,-15.67644 -15.09056,-27.03595 1.8985,-5.50793 5.77102,-9.75956 11.32331,-12.43185 3.64014,-1.75198 5.41423,-2.13126 10.07184,-2.15326 4.63794,-0.0219 6.52824,0.37322 10.28738,2.15032 1.89868,0.89758 2.32391,1.01865 2.76107,0.78615 0.86819,-0.46174 3.03768,-2.12109 3.03768,-2.32339 0,-0.10471 -0.60613,-0.8846 -1.34698,-1.73309 -4.82408,-5.52497 -8.01778,-12.42417 -8.96974,-19.37689 -0.31756,-2.3193 -0.36951,-6.02725 -0.12903,-9.2092 l 0.17488,-2.31393 -1.5271,-1.02449 c -4.90255,-3.28899 -8.37912,-8.97791 -9.1327,-14.94441 -1.69772,-13.44165 10.67503,-25.09979 24.95005,-23.50904 5.58528,0.62241 9.87521,2.65579 13.91785,6.59694 l 1.97115,1.92165 2.47055,-0.42487 c 5.21464,-0.89677 12.44135,-0.73129 17.31329,0.39644 l 2.1179,0.49024 1.72357,-1.65391 c 3.92584,-3.76714 8.04545,-5.82856 13.1353,-6.57279 2.63409,-0.38516 6.99821,-0.16028 9.47627,0.48831 7.76248,2.03168 14.08486,8.13714 15.94065,15.3937 1.34509,5.25962 0.63408,10.52788 -2.07072,15.34324 -1.3588,2.41908 -4.90774,6.12977 -7.12052,7.44506 -2.01711,1.19899 -2.38212,1.5916 -2.19029,2.35593 0.34826,1.38751 0.14968,7.59372 -0.33178,10.36893 -1.14403,6.59475 -4.20712,13.01533 -8.64786,18.12692 -1.54955,1.78364 -1.55056,1.78535 -1.27798,2.16901 0.3088,0.43464 3.37074,2.51282 3.70075,2.51175 0.1744,-4.8e-4 0.80329,-0.33078 1.39752,-0.7338 7.18129,-4.87063 16.19973,-5.54116 23.88912,-1.77618 5.5139,2.69979 9.75176,7.68522 11.42054,13.43518 0.62548,2.15513 0.86601,6.41997 0.48806,8.65394 -1.14042,6.74065 -5.30252,12.35599 -11.54846,15.58071 -1.96515,1.01459 -5.05741,2.01696 -7.55559,2.44918 -1.05914,0.18325 -1.21263,0.28734 -1.36648,0.92671 -0.0953,0.39615 -0.46395,2.02618 -0.81915,3.62227 l -0.64577,2.90198 0.99067,1.6426 c 1.93814,3.2135 2.7361,6.1975 2.72763,10.2002 -0.003,1.5185 -0.17361,3.5989 -0.37865,4.6229 -2.42058,12.0887 -13.36766,22.6021 -25.81665,24.7941 -2.43064,0.428 -6.53861,0.425 -8.67187,-0.01 z m 8.72815,-5.0645 c 7.95145,-1.6476 16.11783,-8.6438 19.27881,-16.5163 1.06646,-2.656 1.52501,-5.0036 1.52076,-7.7856 -0.007,-4.4252 -1.25849,-7.5551 -4.08945,-10.2257 -2.93176,-2.7657 -6.38668,-3.91604 -11.03277,-3.6735 -3.10931,0.16231 -5.61752,0.80346 -8.51768,2.1773 -2.89616,1.3719 -4.81975,2.6953 -7.32837,5.042 -3.9139,3.6611 -6.55637,7.9662 -7.81998,12.7401 -1.97686,7.4686 0.66076,14.1715 6.79745,17.2743 2.97942,1.5065 6.93832,1.8487 11.19123,0.9674 z m -46.89341,-0.482 c 4.46566,-1.3257 7.95638,-4.7247 9.22079,-8.9785 0.58148,-1.9563 0.71884,-5.5146 0.30122,-7.803 -0.89664,-4.9134 -3.22529,-9.1546 -7.25045,-13.2053 -3.89686,-3.9215 -7.66428,-6.2215 -12.2654,-7.48801 -3.01978,-0.83121 -7.47874,-0.93394 -9.82303,-0.22632 -5.21401,1.57383 -8.50893,5.24173 -9.61576,10.70413 -0.7403,3.6535 0.0206,7.786 2.27867,12.3763 3.17761,6.4594 8.85831,11.442 15.99496,14.0292 3.33777,1.2101 8.20616,1.4681 11.159,0.5915 z m 25.25121,-8.6933 c 0.17255,-0.1726 0.27668,-1.6563 0.2932,-4.1779 0.0314,-4.8016 0.46151,-6.6523 2.52668,-10.873 3.7474,-7.6588 11.11154,-13.71938 19.44075,-15.9994 1.23385,-0.33775 2.86026,-0.5373 5.0636,-0.62128 4.09121,-0.15592 6.2015,0.23747 9.32113,1.73761 1.23371,0.59325 2.33972,1.01893 2.45779,0.94596 0.52285,-0.32314 1.77255,-6.42494 1.52108,-7.42685 -0.11291,-0.44992 -0.43939,-0.62207 -1.81269,-0.95585 -5.13321,-1.24763 -9.32946,-4.14785 -12.19044,-8.42539 -2.17946,-3.25854 -3.00981,-6.38824 -2.83111,-10.6706 0.14321,-3.43164 0.58061,-5.05438 2.09837,-7.78516 0.65512,-1.17864 1.18915,-2.25906 1.18678,-2.40091 -0.009,-0.528 -4.76385,-3.96436 -7.47482,-5.40194 l -1.09806,-0.58228 -2.37393,1.45668 c -4.1322,2.53558 -7.01347,3.75934 -11.44654,4.86169 -6.63568,1.65005 -13.50024,1.61431 -20.20941,-0.10522 -4.62558,-1.18552 -7.56351,-2.54495 -12.91686,-5.97683 -0.34191,-0.21918 -0.71982,-0.1109 -1.97261,0.56519 -1.93269,1.043 -5.63676,3.59987 -5.96198,4.11547 -0.19073,0.30237 0.04,0.74724 1.07136,2.06532 1.58386,2.02424 2.88916,4.63029 3.4596,6.90712 0.60008,2.39512 0.55739,6.61914 -0.0914,9.04044 -1.32571,4.94794 -4.88593,9.28035 -9.59889,11.68082 -2.876,1.46485 -4.11485,1.87343 -6.96043,2.29559 -1.22664,0.18198 -2.29752,0.39813 -2.37973,0.48034 -0.23471,0.23471 0.41737,4.15391 0.77176,4.63858 0.28609,0.39124 0.39855,0.40207 1.11779,0.10766 3.53943,-1.44886 5.6375,-1.81502 9.41951,-1.6439 6.37976,0.28865 12.80517,3.18886 18.03713,8.14134 2.769,2.6211 4.71254,5.2707 6.39316,8.7157 2.0977,4.3 2.45126,5.8478 2.47916,10.8535 0.0127,2.2721 0.0944,4.2024 0.1817,4.2896 0.5156,0.5156 11.97477,0.6514 12.47831,0.1479 z m -46.02845,-38.63131 c 5.89348,-1.81817 10.2976,-6.33581 11.76987,-12.07319 0.52119,-2.03111 0.39634,-6.52122 -0.2303,-8.28316 -2.12356,-5.97072 -6.77056,-10.14888 -12.78742,-11.49728 -1.99194,-0.4464 -5.58771,-0.50541 -7.64322,-0.12543 -3.29418,0.60896 -6.66096,2.4151 -9.11163,4.88803 -1.9985,2.01664 -3.27348,4.10717 -4.10738,6.73468 -1.13152,3.56526 -0.99829,6.81443 0.42825,10.44398 2.18293,5.55405 7.80308,9.79829 13.9989,10.57174 2.26464,0.28271 5.54059,10e-4 7.68293,-0.65937 z m 93.87584,-0.95429 c 3.47136,-0.78734 6.50197,-2.57874 9.08809,-5.37199 6.89865,-7.45117 5.13945,-19.02641 -3.73196,-24.55571 -3.91066,-2.43741 -8.54594,-3.31018 -12.85415,-2.4203 -4.07284,0.84128 -6.91315,2.40096 -9.70008,5.32656 -2.86134,3.00373 -4.20305,6.0593 -4.45356,10.14249 -0.27421,4.46894 1.31659,8.58349 4.60292,11.90547 4.63943,4.68974 10.61457,6.43281 17.04874,4.97348 z m -49.22852,-27.93559 c 5.48341,-0.62815 10.80362,-2.37199 15.0876,-4.94534 2.33461,-1.40239 6.01003,-4.29556 7.55468,-5.94677 3.02079,-3.22925 6.08949,-8.16936 7.39401,-11.90318 1.22982,-3.52 1.58208,-5.47342 1.7172,-9.52274 0.12171,-3.64602 0.0204,-4.89446 -0.73444,-9.05402 -0.0206,-0.11364 0.69651,-0.50847 1.59364,-0.87742 5.53526,-2.27638 9.27063,-6.40533 10.6327,-11.75303 0.30001,-1.178 0.36849,-2.24995 0.28366,-4.44169 -0.12388,-3.20104 -0.61744,-4.93558 -2.13299,-7.49597 -1.58684,-2.6808 -5.32646,-5.84088 -8.28153,-6.99809 -4.38809,-1.71839 -10.07154,-1.64896 -14.31929,0.1749 -2.78941,1.1977 -6.32101,4.2539 -7.7413,6.69924 -0.39615,0.68206 -0.89042,1.24225 -1.09837,1.24487 -0.20796,0.003 -1.12898,-0.25062 -2.04671,-0.56276 -4.37144,-1.48683 -5.81958,-1.6972 -11.7406,-1.70555 l -5.52211,-0.008 -3.55741,0.92429 c -1.95658,0.50836 -3.57876,0.88651 -3.60483,0.84032 -0.0261,-0.0462 -0.56127,-0.85369 -1.18932,-1.79446 -2.20249,-3.29917 -5.23371,-5.59953 -9.03427,-6.85599 -2.11902,-0.70055 -2.5589,-0.76157 -5.54292,-0.76892 -3.62767,-0.009 -5.19146,0.30947 -8.04307,1.63762 -4.46094,2.07771 -8.1794,6.56442 -9.26493,11.17912 -0.52821,2.24549 -0.36816,6.0493 0.34852,8.28317 1.4057,4.38149 4.71153,8.13447 8.92975,10.1376 0.78496,0.37276 1.54893,0.75439 1.69772,0.84808 0.19558,0.12313 0.14177,0.72023 -0.19417,2.15521 -3.10131,13.24771 3.28453,27.74095 15.52961,35.24585 6.78185,4.15652 15.57898,6.14558 23.27917,5.26347 z m -6.69279,-3.61674 c -4.3121,-0.6289 -8.24994,-2.43446 -11.08614,-5.08315 -4.29738,-4.01329 -6.1674,-8.19362 -6.1457,-13.73841 0.0216,-5.51148 2.0941,-9.99867 6.35343,-13.75573 2.91951,-2.57522 6.16846,-4.09342 10.16289,-4.749 9.91694,-1.62759 19.52555,3.99577 22.59361,13.22272 0.56188,1.68982 0.63989,2.31039 0.64877,5.16197 0.0118,3.7796 -0.32818,5.32041 -1.82772,8.28316 -1.24394,2.45775 -2.41791,3.95002 -4.58042,5.8223 -2.88907,2.50134 -6.383,4.10039 -10.37657,4.74899 -2.36322,0.38382 -3.58128,0.4023 -5.74215,0.0872 z m 8.28021,-3.08846 c 2.73032,-0.91474 4.58784,-2.01565 6.64009,-3.93545 3.48731,-3.26219 5.16289,-7.04696 5.16987,-11.6776 0.008,-5.21072 -2.26433,-9.7103 -6.52468,-12.92057 -7.39197,-5.57001 -17.84289,-4.64184 -24.12419,2.14253 -4.77687,5.15947 -5.59674,12.81762 -2.02314,18.89774 1.0093,1.71722 4.02274,4.72042 5.79039,5.77071 4.63814,2.75587 10.11816,3.38222 15.07166,1.72264 z m -1.13972,-7.79555 c -1.22468,-0.38293 -2.41477,-1.10047 -3.18496,-1.92027 -0.76877,-0.81834 -1.20444,-0.77614 -2.15943,0.20915 -1.29659,1.33775 -2.89085,1.89257 -5.07494,1.76613 -2.16231,-0.12517 -3.39629,-0.73201 -4.97815,-2.44812 -1.05501,-1.14456 -1.19537,-1.5382 -0.71848,-2.01509 0.52018,-0.52017 1.02709,-0.30574 2.40332,1.01666 3.02595,2.90757 6.62663,2.21611 8.21145,-1.5769 0.41898,-1.00278 0.96613,-1.51192 1.43243,-1.33297 0.18528,0.0711 0.80789,0.84673 1.3836,1.72364 1.3462,2.0505 2.72142,3.00265 4.33685,3.00265 1.47527,0 2.35187,-0.37503 4.13467,-1.76892 0.78236,-0.6117 1.50393,-1.11218 1.60347,-1.11218 0.27486,0 0.93554,0.7194 0.93554,1.01867 0,0.38109 -2.01331,2.25397 -2.93629,2.73149 -0.96973,0.50172 -2.98158,1.05048 -3.78627,1.03276 -0.33013,-0.007 -1.05139,-0.15428 -1.60281,-0.3267 z m -6.73536,-11.20158 c -3.21917,-1.59347 -3.91772,-5.50293 -1.42756,-7.98941 1.11758,-1.11594 2.36932,-1.5942 4.15142,-1.58619 4.61245,0.0207 6.85647,5.53338 3.5355,8.68531 -1.52607,1.4484 -4.32701,1.84679 -6.25936,0.89029 z m 17.51886,-14.86515 c -3.1682,-0.46698 -5.17486,-4.28287 -3.72339,-7.08044 1.96772,-3.79262 7.59449,-3.99897 9.64326,-0.35366 0.55065,0.97975 0.73031,2.96138 0.37464,4.13204 -0.68933,2.26876 -3.45646,3.72038 -6.29451,3.30206 z m -32.95313,-1.0275 c -0.57161,-0.30226 -1.36872,-0.9566 -1.77135,-1.45408 -0.62131,-0.76766 -0.74599,-1.15081 -0.82407,-2.53242 -0.0726,-1.28546 0.009,-1.82554 0.38972,-2.56745 1.1723,-2.28654 3.66848,-3.36927 6.30791,-2.73608 2.16783,0.52005 4.0616,2.81299 4.0616,4.91773 0,1.70126 -1.24326,3.6075 -2.90616,4.45584 -1.33962,0.68342 -3.88375,0.643 -5.25765,-0.0835 z"
       id="path3022"
       inkscape:connector-curvature="0" />
    <path
       sodipodi:nodetypes="ccccccccccccccc"
       inkscape:connector-curvature="0"
       id="path3794"
       d="m 99.752117,1041.2715 c 20.120603,27.1613 62.243643,-3.4499 43.607973,-34.8865 l 1.83612,-7.57395 C 180.39207,989.15668 161.97883,942.35854 127.75303,961.4 l -8.49209,-6.19692 c 9.79304,-8.95892 15.133,-20.96466 13.31191,-37.87008 31.39029,-25.38052 -6.45939,-58.61526 -29.378,-31.44365 -3.394663,-3.35316 -22.233831,-4.52089 -29.492277,0 -22.650687,-27.17161 -60.500358,6.06313 -29.110074,31.44365 -1.821088,16.90542 3.51887,28.91116 13.311906,37.87008 L 49.412331,961.4 c -34.22581,-19.04146 -52.6390564,27.75668 -17.443197,37.41105 l 1.83613,7.57395 c -18.635678,31.4366 23.487362,62.0478 43.60797,34.8865 7.188781,1.8025 14.541156,2.4599 22.338883,0 z"
       style="fill:none;stroke:#000000;stroke-width:1;stroke-linecap:butt;stroke-linejoin:miter;stroke-opacity:1;stroke-miterlimit:4;stroke-dasharray:none" />
  </g>
</svg>
