  0
SECTION
  2
HEADER
  9
$ACADVER
  1
AC1014
  9
$HANDSEED
  5
FFFF
  9
$MEASUREMENT
 70
     1
  0
ENDSEC
  0
SECTION
  2
TABLES
  0
TABLE
  2
VPORT
  5
8
330
0
100
AcDbSymbolTable
 70
     4
  0
VPORT
  5
2E
330
8
100
AcDbSymbolTableRecord
100
AcDbViewportTableRecord
  2
*ACTIVE
 70
     0
 10
0.0
 20
0.0
 11
1.0
 21
1.0
 12
210.0
 22
148.5
 13
0.0
 23
0.0
 14
10.0
 24
10.0
 15
10.0
 25
10.0
 16
0.0
 26
0.0
 36
1.0
 17
0.0
 27
0.0
 37
0.0
 40
341.0
 41
1.24
 42
50.0
 43
0.0
 44
0.0
 50
0.0
 51
0.0
 71
     0
 72
   100
 73
     1
 74
     3
 75
     0
 76
     0
 77
     0
 78
     0
  0
ENDTAB
  0
TABLE
  2
LTYPE
  5
5
330
0
100
AcDbSymbolTable
 70
     1
  0
LTYPE
  5
14
330
5
100
AcDbSymbolTableRecord
100
AcDbLinetypeTableRecord
  2
BYBLOCK
 70
     0
  3

 72
    65
 73
     0
 40
0.0
  0
LTYPE
  5
15
330
5
100
AcDbSymbolTableRecord
100
AcDbLinetypeTableRecord
  2
BYLAYER
 70
     0
  3

 72
    65
 73
     0
 40
0.0
  0
LTYPE
  5
16
330
5
100
AcDbSymbolTableRecord
100
AcDbLinetypeTableRecord
  2
CONTINUOUS
 70
     0
  3
Solid line
 72
    65
 73
     0
 40
0.0
  0
ENDTAB
  0
TABLE
  2
LAYER
  5
2
100
AcDbSymbolTable
 70
2
  0
LAYER
  5
50
100
AcDbSymbolTableRecord
100
AcDbLayerTableRecord
  2
0
 70
0
  6
CONTINUOUS
  0
LAYER
  5
51
100
AcDbSymbolTableRecord
100
AcDbLayerTableRecord
  2
Calque_1
 70
0
  6
CONTINUOUS
  0
ENDTAB
  0
TABLE
  2
STYLE
  5
3
330
0
100
AcDbSymbolTable
 70
     1
  0
STYLE
  5
11
330
3
100
AcDbSymbolTableRecord
100
AcDbTextStyleTableRecord
  2
STANDARD
 70
     0
 40
0.0
 41
1.0
 50
0.0
 71
     0
 42
2.5
  3
txt
  4

  0
ENDTAB
  0
TABLE
  2
VIEW
  5
6
330
0
100
AcDbSymbolTable
 70
     0
  0
ENDTAB
  0
TABLE
  2
UCS
  5
7
330
0
100
AcDbSymbolTable
 70
     0
  0
ENDTAB
  0
TABLE
  2
APPID
  5
9
330
0
100
AcDbSymbolTable
 70
     2
  0
APPID
  5
12
330
9
100
AcDbSymbolTableRecord
100
AcDbRegAppTableRecord
  2
ACAD
 70
     0
  0
ENDTAB
  0
TABLE
  2
DIMSTYLE
  5
A
330
0
100
AcDbSymbolTable
 70
     1
  0
DIMSTYLE
105
27
330
A
100
AcDbSymbolTableRecord
100
AcDbDimStyleTableRecord
  2
ISO-25
 70
     0
  3

  4

  5

  6

  7

 40
1.0
 41
2.5
 42
0.625
 43
3.75
 44
1.25
 45
0.0
 46
0.0
 47
0.0
 48
0.0
140
2.5
141
2.5
142
0.0
143
0.03937007874016
144
1.0
145
0.0
146
1.0
147
0.625
 71
     0
 72
     0
 73
     0
 74
     0
 75
     0
 76
     0
 77
     1
 78
     8
170
     0
171
     3
172
     1
173
     0
174
     0
175
     0
176
     0
177
     0
178
     0
270
     2
271
     2
272
     2
273
     2
274
     3
340
11
275
     0
280
     0
281
     0
282
     0
283
     0
284
     8
285
     0
286
     0
287
     3
288
     0
  0
ENDTAB
  0
TABLE
  2
BLOCK_RECORD
  5
1
330
0
100
AcDbSymbolTable
 70
     1
  0
BLOCK_RECORD
  5
1F
330
1
100
AcDbSymbolTableRecord
100
AcDbBlockTableRecord
  2
*MODEL_SPACE
  0
BLOCK_RECORD
  5
1B
330
1
100
AcDbSymbolTableRecord
100
AcDbBlockTableRecord
  2
*PAPER_SPACE
  0
ENDTAB
  0
ENDSEC
  0
SECTION
  2
BLOCKS
  0
BLOCK
  5
20
330
1F
100
AcDbEntity
  8
0
100
AcDbBlockBegin
  2
*MODEL_SPACE
 70
     0
 10
0.0
 20
0.0
 30
0.0
  3
*MODEL_SPACE
  1

  0
ENDBLK
  5
21
330
1F
100
AcDbEntity
  8
0
100
AcDbBlockEnd
  0
BLOCK
  5
1C
330
1B
100
AcDbEntity
 67
     1
  8
0
100
AcDbBlockBegin
  2
*PAPER_SPACE
  1

  0
ENDBLK
  5
1D
330
1B
100
AcDbEntity
 67
     1
  8
0
100
AcDbBlockEnd
  0
ENDSEC
  0
SECTION
  2
ENTITIES
  0
LWPOLYLINE
  5
100
100
AcDbEntity
  8
Calque_1
 62
7
100
AcDbPolyline
 90
11
 70
1
 10
18.156480
 20
32.784879
 30
0.0
 10
2.484327
 20
29.762564
 30
0.0
 10
13.344570
 20
18.608603
 30
0.0
 10
11.171480
 20
3.319668
 30
0.0
 10
25.146441
 20
10.206765
 30
0.0
 10
39.015018
 20
3.414467
 30
0.0
 10
36.783594
 20
18.835134
 30
0.0
 10
47.527986
 20
29.926276
 30
0.0
 10
32.173932
 20
32.569002
 30
0.0
 10
24.953516
 20
46.202009
 30
0.0
 10
18.156480
 20
32.784879
 30
0.0
  0
LWPOLYLINE
  5
101
100
AcDbEntity
  8
Calque_1
 62
7
100
AcDbPolyline
 90
37
 70
0
 10
18.212535
 20
20.863346
 30
0.0
 10
18.049975
 20
21.466173
 30
0.0
 10
17.521655
 20
21.811613
 30
0.0
 10
17.216855
 20
21.865800
 30
0.0
 10
17.020429
 20
21.899666
 30
0.0
 10
16.573389
 20
22.184146
 30
0.0
 10
16.194082
 20
22.035133
 30
0.0
 10
15.679309
 20
22.360253
 30
0.0
 10
16.234722
 20
22.658280
 30
0.0
 10
16.796909
 20
22.543133
 30
0.0
 10
17.033975
 20
22.041906
 30
0.0
 10
18.016109
 20
22.041906
 30
0.0
 10
18.016109
 20
23.193373
 30
0.0
 10
17.142349
 20
23.193373
 30
0.0
 10
17.128802
 20
22.983400
 30
0.0
 10
16.011202
 20
23.301746
 30
0.0
 10
14.886829
 20
23.010493
 30
0.0
 10
14.256909
 20
21.960626
 30
0.0
 10
14.431322
 20
21.361186
 30
0.0
 10
14.954562
 20
21.012360
 30
0.0
 10
15.096802
 20
20.985266
 30
0.0
 10
15.327096
 20
20.964946
 30
0.0
 10
15.692855
 20
20.903986
 30
0.0
 10
16.011202
 20
20.619506
 30
0.0
 10
16.444695
 20
20.809160
 30
0.0
 10
16.884962
 20
20.531453
 30
0.0
 10
16.288909
 20
20.274066
 30
0.0
 10
15.462562
 20
20.761746
 30
0.0
 10
14.304322
 20
20.761746
 30
0.0
 10
14.304322
 20
19.698333
 30
0.0
 10
15.327096
 20
19.698333
 30
0.0
 10
15.306776
 20
19.827026
 30
0.0
 10
15.327096
 20
19.948946
 30
0.0
 10
16.559842
 20
19.610280
 30
0.0
 10
17.609709
 20
19.860893
 30
0.0
 10
18.212535
 20
20.863346
 30
0.0
 10
18.212535
 20
20.863346
 30
0.0
  0
LWPOLYLINE
  5
102
100
AcDbEntity
  8
Calque_1
 62
7
100
AcDbPolyline
 90
44
 70
0
 10
23.103623
 20
19.671240
 30
0.0
 10
23.103623
 20
20.226653
 30
0.0
 10
22.683676
 20
20.260520
 30
0.0
 10
22.595623
 20
20.551773
 30
0.0
 10
22.602396
 20
20.741426
 30
0.0
 10
22.785276
 20
20.971720
 30
0.0
 10
22.731089
 20
21.012360
 30
0.0
 10
22.663356
 20
21.080093
 30
0.0
 10
22.615943
 20
21.147826
 30
0.0
 10
22.595623
 20
21.208786
 30
0.0
 10
22.595623
 20
21.703240
 30
0.0
 10
22.094396
 20
22.204466
 30
0.0
 10
21.450929
 20
22.339933
 30
0.0
 10
20.434929
 20
22.014813
 30
0.0
 10
20.434929
 20
23.193373
 30
0.0
 10
18.660316
 20
23.193373
 30
0.0
 10
18.660316
 20
22.637960
 30
0.0
 10
18.789010
 20
22.644733
 30
0.0
 10
18.849970
 20
22.651506
 30
0.0
 10
19.195410
 20
22.455080
 30
0.0
 10
19.195410
 20
21.168146
 30
0.0
 10
19.005756
 20
20.951400
 30
0.0
 10
19.195410
 20
20.565320
 30
0.0
 10
19.107356
 20
20.267293
 30
0.0
 10
18.660316
 20
20.226653
 30
0.0
 10
18.660316
 20
19.671240
 30
0.0
 10
20.780369
 20
19.671240
 30
0.0
 10
20.780369
 20
20.226653
 30
0.0
 10
20.489116
 20
20.267293
 30
0.0
 10
20.421383
 20
20.531453
 30
0.0
 10
20.489116
 20
20.822706
 30
0.0
 10
20.611036
 20
20.971720
 30
0.0
 10
20.421383
 20
21.222333
 30
0.0
 10
20.597489
 20
21.493266
 30
0.0
 10
20.929383
 20
21.581320
 30
0.0
 10
21.342556
 20
21.262973
 30
0.0
 10
21.152903
 20
20.964946
 30
0.0
 10
21.335783
 20
20.748200
 30
0.0
 10
21.342556
 20
20.551773
 30
0.0
 10
21.329009
 20
20.328253
 30
0.0
 10
21.044529
 20
20.226653
 30
0.0
 10
21.044529
 20
19.671240
 30
0.0
 10
23.103623
 20
19.671240
 30
0.0
 10
23.103623
 20
19.671240
 30
0.0
  0
LWPOLYLINE
  5
103
100
AcDbEntity
  8
Calque_1
 62
7
100
AcDbPolyline
 90
19
 70
0
 10
27.189106
 20
20.484040
 30
0.0
 10
25.820893
 20
20.484040
 30
0.0
 10
25.339986
 20
20.145373
 30
0.0
 10
24.953906
 20
20.253746
 30
0.0
 10
24.784573
 20
20.605960
 30
0.0
 10
24.798120
 20
20.707560
 30
0.0
 10
27.168786
 20
20.707560
 30
0.0
 10
27.168786
 20
21.039453
 30
0.0
 10
26.437266
 20
22.041906
 30
0.0
 10
25.312893
 20
22.339933
 30
0.0
 10
24.180053
 20
22.057146
 30
0.0
 10
23.531506
 20
21.208786
 30
0.0
 10
23.341853
 20
20.971720
 30
0.0
 10
23.504413
 20
20.734653
 30
0.0
 10
24.202066
 20
19.833800
 30
0.0
 10
25.333213
 20
19.569640
 30
0.0
 10
26.315346
 20
19.745746
 30
0.0
 10
27.189106
 20
20.484040
 30
0.0
 10
27.189106
 20
20.484040
 30
0.0
  0
LWPOLYLINE
  5
104
100
AcDbEntity
  8
Calque_1
 62
7
100
AcDbPolyline
 90
9
 70
0
 10
25.875079
 20
21.242653
 30
0.0
 10
24.804893
 20
21.242653
 30
0.0
 10
24.804893
 20
21.357800
 30
0.0
 10
24.987773
 20
21.655826
 30
0.0
 10
25.333213
 20
21.757426
 30
0.0
 10
25.705746
 20
21.642280
 30
0.0
 10
25.875079
 20
21.337480
 30
0.0
 10
25.875079
 20
21.242653
 30
0.0
 10
25.875079
 20
21.242653
 30
0.0
  0
LWPOLYLINE
  5
105
100
AcDbEntity
  8
Calque_1
 62
7
100
AcDbPolyline
 90
6
 70
0
 10
25.163880
 20
22.502493
 30
0.0
 10
25.908946
 20
22.502493
 30
0.0
 10
26.647239
 20
23.572680
 30
0.0
 10
25.400946
 20
23.572680
 30
0.0
 10
25.163880
 20
22.502493
 30
0.0
 10
25.163880
 20
22.502493
 30
0.0
  0
LWPOLYLINE
  5
106
100
AcDbEntity
  8
Calque_1
 62
7
100
AcDbPolyline
 90
34
 70
0
 10
30.475761
 20
21.411986
 30
0.0
 10
30.475761
 20
22.204466
 30
0.0
 10
29.696828
 20
22.204466
 30
0.0
 10
29.513948
 20
22.170600
 30
0.0
 10
29.344614
 20
22.075773
 30
0.0
 10
29.209148
 20
21.933533
 30
0.0
 10
29.114321
 20
21.777746
 30
0.0
 10
29.100774
 20
21.879346
 30
0.0
 10
29.100774
 20
21.987720
 30
0.0
 10
29.100774
 20
22.096093
 30
0.0
 10
29.114321
 20
22.204466
 30
0.0
 10
27.624187
 20
22.204466
 30
0.0
 10
27.624187
 20
21.676146
 30
0.0
 10
27.854480
 20
21.669373
 30
0.0
 10
27.976400
 20
21.649053
 30
0.0
 10
28.091547
 20
21.351026
 30
0.0
 10
28.078000
 20
21.141053
 30
0.0
 10
27.895120
 20
20.971720
 30
0.0
 10
28.078000
 20
20.754973
 30
0.0
 10
28.091547
 20
20.565320
 30
0.0
 10
27.996720
 20
20.267293
 30
0.0
 10
27.624187
 20
20.226653
 30
0.0
 10
27.624187
 20
19.671240
 30
0.0
 10
29.852614
 20
19.671240
 30
0.0
 10
29.852614
 20
20.226653
 30
0.0
 10
29.419121
 20
20.240200
 30
0.0
 10
29.317521
 20
20.517906
 30
0.0
 10
29.324294
 20
20.727880
 30
0.0
 10
29.520721
 20
20.971720
 30
0.0
 10
29.337841
 20
21.174920
 30
0.0
 10
29.446214
 20
21.351026
 30
0.0
 10
29.649414
 20
21.411986
 30
0.0
 10
30.475761
 20
21.411986
 30
0.0
 10
30.475761
 20
21.411986
 30
0.0
  0
LWPOLYLINE
  5
107
100
AcDbEntity
  8
Calque_1
 62
7
100
AcDbPolyline
 90
6
 70
0
 10
32.509666
 20
22.509266
 30
0.0
 10
32.509666
 20
23.301746
 30
0.0
 10
31.209186
 20
23.301746
 30
0.0
 10
31.209186
 20
22.509266
 30
0.0
 10
32.509666
 20
22.509266
 30
0.0
 10
32.509666
 20
22.509266
 30
0.0
  0
LWPOLYLINE
  5
108
100
AcDbEntity
  8
Calque_1
 62
7
100
AcDbPolyline
 90
22
 70
0
 10
33.112493
 20
19.671240
 30
0.0
 10
33.112493
 20
20.226653
 30
0.0
 10
32.767053
 20
20.240200
 30
0.0
 10
32.645133
 20
20.531453
 30
0.0
 10
32.651906
 20
20.727880
 30
0.0
 10
32.841559
 20
20.971720
 30
0.0
 10
32.645133
 20
21.161373
 30
0.0
 10
32.645133
 20
22.204466
 30
0.0
 10
30.931479
 20
22.204466
 30
0.0
 10
30.931479
 20
21.676146
 30
0.0
 10
31.026306
 20
21.682920
 30
0.0
 10
31.107586
 20
21.682920
 30
0.0
 10
31.358199
 20
21.608413
 30
0.0
 10
31.419159
 20
21.337480
 30
0.0
 10
31.405613
 20
21.141053
 30
0.0
 10
31.202413
 20
20.971720
 30
0.0
 10
31.419159
 20
20.565320
 30
0.0
 10
31.297239
 20
20.253746
 30
0.0
 10
30.931479
 20
20.226653
 30
0.0
 10
30.931479
 20
19.671240
 30
0.0
 10
33.112493
 20
19.671240
 30
0.0
 10
33.112493
 20
19.671240
 30
0.0
  0
LWPOLYLINE
  5
109
100
AcDbEntity
  8
Calque_1
 62
7
100
AcDbPolyline
 90
36
 70
0
 10
35.743083
 20
22.637960
 30
0.0
 10
35.743083
 20
23.362706
 30
0.0
 10
35.235083
 20
23.362706
 30
0.0
 10
34.225857
 20
23.193373
 30
0.0
 10
33.812683
 20
22.211240
 30
0.0
 10
33.318230
 20
22.211240
 30
0.0
 10
33.318230
 20
21.649053
 30
0.0
 10
33.833003
 20
21.649053
 30
0.0
 10
33.833003
 20
21.147826
 30
0.0
 10
33.636577
 20
20.971720
 30
0.0
 10
33.819457
 20
20.754973
 30
0.0
 10
33.833003
 20
20.572093
 30
0.0
 10
33.697537
 20
20.253746
 30
0.0
 10
33.318230
 20
20.226653
 30
0.0
 10
33.318230
 20
19.671240
 30
0.0
 10
35.675350
 20
19.671240
 30
0.0
 10
35.675350
 20
20.226653
 30
0.0
 10
35.221537
 20
20.226653
 30
0.0
 10
35.058977
 20
20.545000
 30
0.0
 10
35.072523
 20
20.734653
 30
0.0
 10
35.248630
 20
20.971720
 30
0.0
 10
35.194443
 20
21.012360
 30
0.0
 10
35.126710
 20
21.066546
 30
0.0
 10
35.079297
 20
21.127506
 30
0.0
 10
35.058977
 20
21.181693
 30
0.0
 10
35.058977
 20
21.649053
 30
0.0
 10
35.655030
 20
21.649053
 30
0.0
 10
35.655030
 20
22.211240
 30
0.0
 10
35.058977
 20
22.211240
 30
0.0
 10
35.058977
 20
22.394120
 30
0.0
 10
35.092843
 20
22.488946
 30
0.0
 10
35.187670
 20
22.570226
 30
0.0
 10
35.316363
 20
22.617640
 30
0.0
 10
35.445057
 20
22.637960
 30
0.0
 10
35.743083
 20
22.637960
 30
0.0
 10
35.743083
 20
22.637960
 30
0.0
  0
ENDSEC
  0
SECTION
  2
OBJECTS
  0
DICTIONARY
  5
C
330
0
100
AcDbDictionary
  3
ACAD_GROUP
350
D
  3
ACAD_MLINESTYLE
350
17
  0
DICTIONARY
  5
D
330
C
100
AcDbDictionary
  0
DICTIONARY
  5
1A
330
C
100
AcDbDictionary
  0
DICTIONARY
  5
17
330
C
100
AcDbDictionary
  3
STANDARD
350
18
  0
DICTIONARY
  5
19
330
C
100
AcDbDictionary
  0
ENDSEC
  0
EOF
