<?xml version="1.0" encoding="UTF-8" standalone="no"?>
<!-- Created with Inkscape (http://www.inkscape.org/) -->

<svg
   xmlns:dc="http://purl.org/dc/elements/1.1/"
   xmlns:cc="http://creativecommons.org/ns#"
   xmlns:rdf="http://www.w3.org/1999/02/22-rdf-syntax-ns#"
   xmlns:svg="http://www.w3.org/2000/svg"
   xmlns="http://www.w3.org/2000/svg"
   xmlns:sodipodi="http://sodipodi.sourceforge.net/DTD/sodipodi-0.dtd"
   xmlns:inkscape="http://www.inkscape.org/namespaces/inkscape"
   inkscape:export-ydpi="100"
   inkscape:export-xdpi="100"
   inkscape:export-filename="/home/jjl/sources/fablab-lannion/Soud-Bihan/div/sherif_deco.png"
   sodipodi:docname="sherif_deco.svg"
   inkscape:version="0.91 r13725"
   version="1.1"
   id="svg2"
   viewBox="0 0 177.16535 177.16535"
   height="50mm"
   width="50mm">
  <sodipodi:namedview
     inkscape:window-maximized="1"
     inkscape:window-y="0"
     inkscape:window-x="1280"
     inkscape:window-height="1009"
     inkscape:window-width="1920"
     showgrid="false"
     inkscape:current-layer="layer1"
     inkscape:document-units="px"
     inkscape:cy="76.943078"
     inkscape:cx="62.104352"
     inkscape:zoom="4.8617187"
     inkscape:pageshadow="2"
     inkscape:pageopacity="0.0"
     borderopacity="1.0"
     bordercolor="#666666"
     pagecolor="#ffffff"
     id="base" />
  <defs
     id="defs4" />
  <metadata
     id="metadata7">
    <rdf:RDF>
      <cc:Work
         rdf:about="">
        <dc:format>image/svg+xml</dc:format>
        <dc:type
           rdf:resource="http://purl.org/dc/dcmitype/StillImage" />
        <dc:title></dc:title>
      </cc:Work>
    </rdf:RDF>
  </metadata>
  <g
     inkscape:label="Calque 1"
     inkscape:groupmode="layer"
     id="layer1"
     transform="translate(0,-875.19685)">
    <path
       style="opacity:1;fill:none;fill-opacity:1;fill-rule:nonzero;stroke:#000000;stroke-width:1;stroke-linecap:round;stroke-linejoin:round;stroke-miterlimit:4;stroke-dasharray:none;stroke-dashoffset:0;stroke-opacity:1"
       d="m 64.333984,936.19531 -55.5312496,10.70899 38.4811766,39.52191 -7.699927,54.17339 49.517578,-24.4031 49.140628,24.0672 -7.90662,-54.64016 38.07068,-39.29932 -54.40413,-9.36399 -25.584151,-48.30593 z"
       id="path4136"
       inkscape:connector-curvature="0"
       sodipodi:nodetypes="ccccccccccc" />
    <g
       id="g4711"
       style="font-style:normal;font-variant:normal;font-weight:900;font-stretch:normal;font-size:23.99999809px;line-height:125%;font-family:Saddlebag;-inkscape-font-specification:'Saddlebag, Heavy';text-align:start;letter-spacing:0px;word-spacing:0px;writing-mode:lr-tb;text-anchor:start;fill:#000000;fill-opacity:1;stroke:none;stroke-width:1px;stroke-linecap:butt;stroke-linejoin:miter;stroke-opacity:1"
       transform="translate(0,1.2394514)">
      <path
         id="path4713"
         d="m 64.532606,977.19751 -0.576,-2.136 -1.872,-1.224 -1.08,-0.192 -0.696,-0.12 -1.584,-1.008 -1.344,0.528 -1.824,-1.152 1.968,-1.056 1.992,0.408 0.84,1.776 3.48,0 0,-4.08 -3.096,0 -0.048,0.744 -3.96,-1.128 -3.983999,1.032 -2.232,3.72 0.618,2.124 1.854,1.236 0.504,0.096 0.816,0.072 1.295999,0.216 1.128,1.008 1.536,-0.672 1.56,0.984 -2.112,0.912 -2.927999,-1.728 -4.104,0 0,3.768 3.624,0 -0.072,-0.456 0.072,-0.432 4.367999,1.2 3.72,-0.888 2.136,-3.552 0,0"
         inkscape:connector-curvature="0" />
      <path
         id="path4715"
         d="m 81.86323,981.42151 0,-1.968 -1.488,-0.12 -0.312,-1.032 0.024,-0.672 0.648,-0.816 -0.192,-0.144 -0.24,-0.24 -0.168,-0.24 -0.072,-0.216 0,-1.752 -1.776,-1.776 -2.28,-0.48 -3.6,1.152 0,-4.176 -6.287999,0 0,1.968 0.456,-0.024 0.216,-0.024 1.224,0.696 0,4.56 -0.672,0.768 0.672,1.368 -0.312,1.056 -1.584,0.144 0,1.968 7.511999,0 0,-1.968 -1.032,-0.144 -0.24,-0.936 0.24,-1.032 0.432,-0.528 -0.672,-0.888 0.624,-0.96 1.176,-0.312 1.464,1.128 -0.672,1.056 0.648,0.768 0.024,0.696 -0.048,0.792 -1.008,0.36 0,1.968 7.296,0 0,0"
         inkscape:connector-curvature="0" />
      <path
         id="path4717"
         d="m 96.339352,978.54151 -4.848,0 -1.703999,1.2 -1.368,-0.384 -0.6,-1.248 0.048,-0.36 8.399999,0 0,-1.176 -2.592,-3.552 -3.983999,-1.056 -4.014,1.002 -2.298,3.006 -0.672,0.84 0.576,0.84 2.472,3.192 4.008,0.936 3.479999,-0.624 3.096,-2.616 0,0 m -4.656,-2.688 -3.791999,0 0,-0.408 0.648,-1.056 1.224,-0.36 1.319999,0.408 0.6,1.08 0,0.336 0,0 m -2.519999,-4.464 2.639999,0 2.616,-3.792 -4.415999,0 -0.84,3.792 0,0"
         inkscape:connector-curvature="0" />
      <path
         id="path4719"
         d="m 107.98498,975.25351 0,-2.808 -2.76,0 -0.648,0.12 -0.6,0.336 -0.48,0.504 -0.336,0.552 -0.048,-0.36 0,-0.384 0,-0.384 0.048,-0.384 -5.280002,0 0,1.872 0.816,0.024 0.432,0.072 0.408,1.056 -0.048,0.744 -0.648,0.6 0.648,0.768 0.048,0.672 -0.336,1.056 -1.32,0.144 0,1.968 7.896002,0 0,-1.968 -1.536,-0.048 -0.36,-0.984 0.024,-0.744 0.696,-0.864 -0.648,-0.72 0.384,-0.624 0.72,-0.216 2.928,0 0,0"
         inkscape:connector-curvature="0" />
      <path
         id="path4721"
         d="m 115.19173,971.36551 0,-2.808 -4.608,0 0,2.808 4.608,0 0,0 m 2.136,10.056 0,-1.968 -1.224,-0.048 -0.432,-1.032 0.024,-0.696 0.672,-0.864 -0.696,-0.672 0,-3.696 -6.072,0 0,1.872 0.336,-0.024 0.288,0 0.888,0.264 0.216,0.96 -0.048,0.696 -0.72,0.6 0.768,1.44 -0.432,1.104 -1.296,0.096 0,1.968 7.728,0 0,0"
         inkscape:connector-curvature="0" />
      <path
         id="path4723"
         d="m 126.64872,970.90951 0,-2.568 -1.8,0 -3.576,0.6 -1.464,3.48 -1.752,0 0,1.992 1.824,0 0,1.776 -0.696,0.624 0.648,0.768 0.048,0.648 -0.48,1.128 -1.344,0.096 0,1.968 8.352,0 0,-1.968 -1.608,0 -0.576,-1.128 0.048,-0.672 0.624,-0.84 -0.192,-0.144 -0.24,-0.192 -0.168,-0.216 -0.072,-0.192 0,-1.656 2.112,0 0,-1.992 -2.112,0 0,-0.648 0.12,-0.336 0.336,-0.288 0.456,-0.168 0.456,-0.072 1.056,0 0,0"
         inkscape:connector-curvature="0" />
    </g>
  </g>
</svg>
