<?xml version="1.0" encoding="UTF-8" standalone="no"?>
<!-- Created with Inkscape (http://www.inkscape.org/) -->

<svg
   xmlns:dc="http://purl.org/dc/elements/1.1/"
   xmlns:cc="http://creativecommons.org/ns#"
   xmlns:rdf="http://www.w3.org/1999/02/22-rdf-syntax-ns#"
   xmlns:svg="http://www.w3.org/2000/svg"
   xmlns="http://www.w3.org/2000/svg"
   xmlns:sodipodi="http://sodipodi.sourceforge.net/DTD/sodipodi-0.dtd"
   xmlns:inkscape="http://www.inkscape.org/namespaces/inkscape"
   width="1280mm"
   height="880mm"
   viewBox="0 0 4535.4331 3118.1103"
   id="svg4240"
   version="1.1"
   inkscape:version="0.91 r"
   sodipodi:docname="FormationInkscape.svg">
  <sodipodi:namedview
     id="base"
     pagecolor="#ffffff"
     bordercolor="#666666"
     borderopacity="1.0"
     inkscape:pageopacity="0.0"
     inkscape:pageshadow="2"
     inkscape:zoom="0.43165278"
     inkscape:cx="3512.5997"
     inkscape:cy="2828.4247"
     inkscape:document-units="mm"
     inkscape:current-layer="layer1"
     showgrid="false"
     inkscape:window-width="1366"
     inkscape:window-height="716"
     inkscape:window-x="0"
     inkscape:window-y="0"
     inkscape:window-maximized="1"
     inkscape:snap-intersection-paths="true"
     inkscape:object-nodes="true"
     inkscape:snap-smooth-nodes="true"
     inkscape:snap-midpoints="true" />
  <title
     id="title4788">Découpage Laser</title>
  <defs
     id="defs4242" />
  <metadata
     id="metadata4245">
    <rdf:RDF>
      <cc:Work
         rdf:about="">
        <dc:format>image/svg+xml</dc:format>
        <dc:type
           rdf:resource="http://purl.org/dc/dcmitype/StillImage" />
        <dc:title>Découpage Laser</dc:title>
        <dc:creator>
          <cc:Agent>
            <dc:title />
          </cc:Agent>
        </dc:creator>
        <dc:publisher>
          <cc:Agent>
            <dc:title>Fablab Lannion</dc:title>
          </cc:Agent>
        </dc:publisher>
        <dc:source>http://fablab-lannion.org:8080/wiki/index.php?title=Chaine_logiciel_pour_d%C3%A9coupeuse_laser#Inkscape</dc:source>
        <dc:contributor>
          <cc:Agent>
            <dc:title>JJL</dc:title>
          </cc:Agent>
        </dc:contributor>
        <cc:license
           rdf:resource="http://creativecommons.org/licenses/by-sa/3.0/" />
      </cc:Work>
      <cc:License
         rdf:about="http://creativecommons.org/licenses/by-sa/3.0/">
        <cc:permits
           rdf:resource="http://creativecommons.org/ns#Reproduction" />
        <cc:permits
           rdf:resource="http://creativecommons.org/ns#Distribution" />
        <cc:requires
           rdf:resource="http://creativecommons.org/ns#Notice" />
        <cc:requires
           rdf:resource="http://creativecommons.org/ns#Attribution" />
        <cc:permits
           rdf:resource="http://creativecommons.org/ns#DerivativeWorks" />
        <cc:requires
           rdf:resource="http://creativecommons.org/ns#ShareAlike" />
      </cc:License>
    </rdf:RDF>
  </metadata>
  <g
     inkscape:label="Calque 1"
     inkscape:groupmode="layer"
     id="layer1"
     transform="translate(0,2065.7481)">
    <path
       style="fill:none;stroke:#ff0000"
       id="box_bottom"
       d="m 3755.4277,-2019.5351 39.5472,0 0,10.63 39.0157,0 0,-10.63 39.7245,0 0,10.63 39.0157,0 0,-10.63 39.7244,0 0,10.63 39.0158,0 0,-10.63 39.7244,0 0,10.63 39.0157,0 0,-10.63 39.5473,0 0,39.5473 -10.63,0 0,39.0157 10.63,0 0,39.7245 -10.63,0 0,39.0157 10.63,0 0,39.7244 -10.63,0 0,39.0158 10.63,0 0,39.7244 -10.63,0 0,39.0157 10.63,0 0,39.5473 -39.5473,0 0,-10.63 -39.0157,0 0,10.63 -39.7244,0 0,-10.63 -39.0158,0 0,10.63 -39.7244,0 0,-10.63 -39.0157,0 0,10.63 -39.7245,0 0,-10.63 -39.0157,0 0,10.63 -39.5472,0 0,-39.5473 10.6299,0 0,-39.0157 -10.6299,0 0,-39.7244 10.6299,0 0,-39.0158 -10.6299,0 0,-39.7244 10.6299,0 0,-39.0157 -10.6299,0 0,-39.7245 10.6299,0 0,-39.0157 -10.6299,0 0,-39.5473 z"
       inkscape:connector-curvature="0" />
    <path
       style="fill:none;stroke:#ff0000"
       id="box_top"
       d="m 4120.3883,-2019.5351 39.5472,0 0,10.63 39.0158,0 0,-10.63 39.7244,0 0,10.63 39.0157,0 0,-10.63 39.7244,0 0,10.63 39.0158,0 0,-10.63 39.7244,0 0,10.63 39.0157,0 0,-10.63 39.5473,0 0,39.5473 -10.6299,0 0,39.0157 10.6299,0 0,39.7245 -10.6299,0 0,39.0157 10.6299,0 0,39.7244 -10.6299,0 0,39.0158 10.6299,0 0,39.7244 -10.6299,0 0,39.0157 10.6299,0 0,39.5473 -39.5473,0 0,-10.63 -39.0157,0 0,10.63 -39.7244,0 0,-10.63 -39.0158,0 0,10.63 -39.7244,0 0,-10.63 -39.0157,0 0,10.63 -39.7244,0 0,-10.63 -39.0158,0 0,10.63 -39.5472,0 0,-39.5473 10.6299,0 0,-39.0157 -10.6299,0 0,-39.7244 10.6299,0 0,-39.0158 -10.6299,0 0,-39.7244 10.6299,0 0,-39.0157 -10.6299,0 0,-39.7245 10.6299,0 0,-39.0157 -10.6299,0 0,-39.5473 z"
       inkscape:connector-curvature="0" />
    <path
       style="fill:none;stroke:#ff0000"
       id="box_font"
       d="m 4120.3883,-1643.9445 39.1929,0 0,-10.6299 39.7244,0 0,10.6299 39.0158,0 0,-10.6299 39.7244,0 0,10.6299 39.0157,0 0,-10.6299 39.7244,0 0,10.6299 39.0158,0 0,-10.6299 39.7244,0 0,10.6299 39.1929,0 0,52.1457 -10.6299,0 0,51.6141 10.6299,0 0,52.1457 -39.1929,0 0,10.6299 -39.7244,0 0,-10.6299 -39.0158,0 0,10.6299 -39.7244,0 0,-10.6299 -39.0157,0 0,10.6299 -39.7244,0 0,-10.6299 -39.0158,0 0,10.6299 -39.7244,0 0,-10.6299 -39.1929,0 0,-52.1457 10.6299,0 0,-51.6141 -10.6299,0 0,-52.1457 z"
       inkscape:connector-curvature="0" />
    <path
       style="fill:none;stroke:#ff0000"
       id="box_back"
       d="m 3755.4277,-1643.9445 39.1929,0 0,-10.6299 39.7244,0 0,10.6299 39.0157,0 0,-10.6299 39.7244,0 0,10.6299 39.0158,0 0,-10.6299 39.7244,0 0,10.6299 39.0157,0 0,-10.6299 39.7245,0 0,10.6299 39.1929,0 0,52.1457 -10.63,0 0,51.6141 10.63,0 0,52.1457 -39.1929,0 0,10.6299 -39.7245,0 0,-10.6299 -39.0157,0 0,10.6299 -39.7244,0 0,-10.6299 -39.0158,0 0,10.6299 -39.7244,0 0,-10.6299 -39.0157,0 0,10.6299 -39.7244,0 0,-10.6299 -39.1929,0 0,-52.1457 10.6299,0 0,-51.6141 -10.6299,0 0,-52.1457 z"
       inkscape:connector-curvature="0" />
    <path
       style="fill:none;stroke:#ff0000"
       id="box_left_side"
       d="m 4131.0182,-1456.1492 28.563,0 0,-10.6299 39.7244,0 0,10.6299 39.0158,0 0,-10.6299 39.7244,0 0,10.6299 39.0157,0 0,-10.6299 39.7244,0 0,10.6299 39.0158,0 0,-10.6299 39.7244,0 0,10.6299 28.563,0 0,51.7913 10.6299,0 0,52.3228 -10.6299,0 0,51.7914 -28.563,0 0,10.6299 -39.7244,0 0,-10.6299 -39.0158,0 0,10.6299 -39.7244,0 0,-10.6299 -39.0157,0 0,10.6299 -39.7244,0 0,-10.6299 -39.0158,0 0,10.6299 -39.7244,0 0,-10.6299 -28.563,0 0,-51.7914 -10.6299,0 0,-52.3228 10.6299,0 0,-51.7913 z"
       inkscape:connector-curvature="0" />
    <path
       style="fill:none;stroke:#ff0000"
       id="box_right_side"
       d="m 3766.0576,-1456.1492 28.563,0 0,-10.6299 39.7244,0 0,10.6299 39.0157,0 0,-10.6299 39.7244,0 0,10.6299 39.0158,0 0,-10.6299 39.7244,0 0,10.6299 39.0157,0 0,-10.6299 39.7245,0 0,10.6299 28.5629,0 0,51.7913 10.63,0 0,52.3228 -10.63,0 0,51.7914 -28.5629,0 0,10.6299 -39.7245,0 0,-10.6299 -39.0157,0 0,10.6299 -39.7244,0 0,-10.6299 -39.0158,0 0,10.6299 -39.7244,0 0,-10.6299 -39.0157,0 0,10.6299 -39.7244,0 0,-10.6299 -28.563,0 0,-51.7914 -10.6299,0 0,-52.3228 10.6299,0 0,-51.7913 z"
       inkscape:connector-curvature="0" />
    <path
       id="path3457"
       style="fill:none;stroke:#ff0000"
       d="m 2616.4067,-1476.6016 19.3094,0 0,10.6299 19.3626,0 0,-10.6299 19.2917,0 0,10.6299 19.3625,0 0,-10.6299 19.2917,0 0,10.6299 19.3626,0 0,-10.6299 19.2917,0 0,10.6299 19.3626,0 0,-10.6299 19.2917,0 0,10.6299 19.3625,0 0,-10.6299 19.3094,0 m -5.315,0 10.63,0 0,-177.1831 -10.63,0 0,-177.1299 10.63,0 0,-177.1831 -10.63,0 -207.2834,0 0,177.1477 -10.6299,0 0,177.2008 10.6299,0 0,177.1476"
       inkscape:connector-curvature="0"
       sodipodi:nodetypes="cccccccccccccccccccccccccccccccccccc" />
    <path
       id="path3482"
       style="fill:none;stroke:#ff0000"
       d="m 4049.5221,-1929.324 -10.6299,0 0,19.2917 10.6299,0 z m 0,38.6542 -10.6299,0 0,19.2917 10.6299,0 z m 0,38.6543 -10.6299,0 0,19.2917 10.6299,0 z m 0,38.6542 -10.6299,0 0,19.2917 10.6299,0 z m 0,38.6543 -10.6299,0 0,19.2917 10.6299,0 z m -233.8582,19.2916 10.6299,0 0,-19.2917 -10.6299,0 z m 0,-38.6542 10.6299,0 0,-19.2917 -10.6299,0 z m 0,-38.6543 10.6299,0 0,-19.2917 -10.6299,0 z m 0,-38.6542 10.6299,0 0,-19.2917 -10.6299,0 z m 0,-38.6543 10.6299,0 0,-19.2917 -10.6299,0 z m 203.8834,184.5918 0,-10.6299 -19.2917,0 0,10.6299 z m -38.6542,0 0,-10.6299 -19.2917,0 0,10.6299 z m -38.6543,0 0,-10.6299 -19.2917,0 0,10.6299 z m -38.6542,0 0,-10.6299 -19.2917,0 0,10.6299 z m -38.6543,0 0,-10.6299 -19.2917,0 0,10.6299 z m -19.2916,-233.8582 0,10.6299 19.2917,0 0,-10.6299 z m 38.6542,0 0,10.6299 19.2917,0 0,-10.6299 z m 38.6543,0 0,10.6299 19.2917,0 0,-10.6299 z m 38.6542,0 0,10.6299 19.2917,0 0,-10.6299 z m 38.6543,0 0,10.6299 19.2917,0 0,-10.6299 z"
       inkscape:connector-curvature="0"
       sodipodi:nodetypes="cccccccccccccccccccccccccccccccccccccccccccccccccccccccccccccccccccccccccccccccccccccccccccccccccccc" />
    <path
       sodipodi:nodetypes="cccccccccccccccccccccccccccccccccccc"
       inkscape:connector-curvature="0"
       d="m 2856.5155,-1444.5858 0,19.3094 -10.6299,0 0,19.3626 10.6299,0 0,19.2917 -10.6299,0 0,19.3625 10.6299,0 0,19.2917 -10.6299,0 0,19.3626 10.6299,0 0,19.2917 -10.6299,0 0,19.3626 10.6299,0 0,19.2917 -10.6299,0 0,19.3625 10.6299,0 0,19.3094 m 0,-5.315 0,10.63 177.1831,0 0,-10.63 177.1299,0 0,10.63 177.1831,0 0,-10.63 0,-207.2834 -177.1477,0 0,-10.6299 -177.2008,0 0,10.6299 -177.1476,0"
       style="fill:none;stroke:#ff0000"
       id="path3485" />
    <path
       id="path3487"
       style="fill:none;stroke:#ff0000"
       d="m 2827.8104,-1196.3785 -19.3094,0 0,-10.6299 -19.3626,0 0,10.6299 -19.2917,0 0,-10.6299 -19.3625,0 0,10.6299 -19.2917,0 0,-10.6299 -19.3626,0 0,10.6299 -19.2917,0 0,-10.6299 -19.3626,0 0,10.6299 -19.2917,0 0,-10.6299 -19.3625,0 0,10.6299 -19.3094,0 m 5.315,0 -10.63,0 0,177.1831 10.63,0 0,177.12995 -10.63,0 0,177.1831 10.63,0 207.2834,0 0,-177.1477 10.6299,0 0,-177.20085 -10.6299,0 0,-177.1476"
       inkscape:connector-curvature="0"
       sodipodi:nodetypes="cccccccccccccccccccccccccccccccccccc" />
    <path
       sodipodi:nodetypes="cccccccccccccccccccccccccccccccccccc"
       inkscape:connector-curvature="0"
       d="m 2586.2447,-1232.1214 0,-19.3094 10.6299,0 0,-19.3626 -10.6299,0 0,-19.2917 10.6299,0 0,-19.3625 -10.6299,0 0,-19.2917 10.6299,0 0,-19.3626 -10.6299,0 0,-19.2917 10.6299,0 0,-19.3626 -10.6299,0 0,-19.2917 10.6299,0 0,-19.3625 -10.6299,0 0,-19.3094 m 0,5.315 0,-10.63 -177.1831,0 0,10.63 -177.1299,0 0,-10.63 -177.1831,0 0,10.63 0,207.2834 177.1477,0 0,10.6299 177.2008,0 0,-10.6299 177.1476,0"
       style="fill:none;stroke:#ff0000"
       id="path3489" />
  </g>
</svg>
