<?xml version="1.0" encoding="UTF-8" standalone="no"?>
<!-- Created with Inkscape (http://www.inkscape.org/) -->

<svg
   xmlns:dc="http://purl.org/dc/elements/1.1/"
   xmlns:cc="http://creativecommons.org/ns#"
   xmlns:rdf="http://www.w3.org/1999/02/22-rdf-syntax-ns#"
   xmlns:svg="http://www.w3.org/2000/svg"
   xmlns="http://www.w3.org/2000/svg"
   xmlns:xlink="http://www.w3.org/1999/xlink"
   xmlns:sodipodi="http://sodipodi.sourceforge.net/DTD/sodipodi-0.dtd"
   xmlns:inkscape="http://www.inkscape.org/namespaces/inkscape"
   sodipodi:docname="DecoupeLaser.svg"
   inkscape:version="0.91 r13725"
   version="1.1"
   id="svg4240"
   viewBox="0 0 4535.4331 3118.1103"
   height="880mm"
   width="1280mm">
  <sodipodi:namedview
     inkscape:snap-nodes="false"
     inkscape:snap-midpoints="true"
     inkscape:snap-smooth-nodes="true"
     inkscape:object-nodes="true"
     inkscape:snap-intersection-paths="true"
     inkscape:window-maximized="1"
     inkscape:window-y="0"
     inkscape:window-x="0"
     inkscape:window-height="1000"
     inkscape:window-width="1920"
     showgrid="false"
     inkscape:current-layer="layer1"
     inkscape:document-units="mm"
     inkscape:cy="2630.7275"
     inkscape:cx="3721.5767"
     inkscape:zoom="0.73431557"
     inkscape:pageshadow="2"
     inkscape:pageopacity="0.0"
     borderopacity="1.0"
     bordercolor="#666666"
     pagecolor="#ffffff"
     id="base" />
  <title
     id="title4788">Découpage Laser</title>
  <defs
     id="defs4242" />
  <metadata
     id="metadata4245">
    <rdf:RDF>
      <cc:Work
         rdf:about="">
        <dc:format>image/svg+xml</dc:format>
        <dc:type
           rdf:resource="http://purl.org/dc/dcmitype/StillImage" />
        <dc:title>Découpage Laser</dc:title>
        <dc:creator>
          <cc:Agent>
            <dc:title />
          </cc:Agent>
        </dc:creator>
        <dc:publisher>
          <cc:Agent>
            <dc:title>Fablab Lannion</dc:title>
          </cc:Agent>
        </dc:publisher>
        <dc:source>http://fablab-lannion.org:8080/wiki/index.php?title=Chaine_logiciel_pour_d%C3%A9coupeuse_laser#Inkscape</dc:source>
        <dc:contributor>
          <cc:Agent>
            <dc:title>JJL</dc:title>
          </cc:Agent>
        </dc:contributor>
        <cc:license
           rdf:resource="http://creativecommons.org/licenses/by-sa/3.0/" />
      </cc:Work>
      <cc:License
         rdf:about="http://creativecommons.org/licenses/by-sa/3.0/">
        <cc:permits
           rdf:resource="http://creativecommons.org/ns#Reproduction" />
        <cc:permits
           rdf:resource="http://creativecommons.org/ns#Distribution" />
        <cc:requires
           rdf:resource="http://creativecommons.org/ns#Notice" />
        <cc:requires
           rdf:resource="http://creativecommons.org/ns#Attribution" />
        <cc:permits
           rdf:resource="http://creativecommons.org/ns#DerivativeWorks" />
        <cc:requires
           rdf:resource="http://creativecommons.org/ns#ShareAlike" />
      </cc:License>
    </rdf:RDF>
  </metadata>
  <g
     inkscape:label="Calque 1"
     inkscape:groupmode="layer"
     id="layer1"
     transform="translate(0,2065.7481)">
    <path
       style="fill:none;stroke:#ff0000"
       id="box_bottom"
       d="m 3755.4277,-2019.5351 39.5472,0 0,10.63 39.0157,0 0,-10.63 39.7245,0 0,10.63 39.0157,0 0,-10.63 39.7244,0 0,10.63 39.0158,0 0,-10.63 39.7244,0 0,10.63 39.0157,0 0,-10.63 39.5473,0 0,39.5473 -10.63,0 0,39.0157 10.63,0 0,39.7245 -10.63,0 0,39.0157 10.63,0 0,39.7244 -10.63,0 0,39.0158 10.63,0 0,39.7244 -10.63,0 0,39.0157 10.63,0 0,39.5473 -39.5473,0 0,-10.63 -39.0157,0 0,10.63 -39.7244,0 0,-10.63 -39.0158,0 0,10.63 -39.7244,0 0,-10.63 -39.0157,0 0,10.63 -39.7245,0 0,-10.63 -39.0157,0 0,10.63 -39.5472,0 0,-39.5473 10.6299,0 0,-39.0157 -10.6299,0 0,-39.7244 10.6299,0 0,-39.0158 -10.6299,0 0,-39.7244 10.6299,0 0,-39.0157 -10.6299,0 0,-39.7245 10.6299,0 0,-39.0157 -10.6299,0 0,-39.5473 z"
       inkscape:connector-curvature="0" />
    <path
       style="fill:none;stroke:#ff0000"
       id="box_top"
       d="m 4120.3883,-2019.5351 39.5472,0 0,10.63 39.0158,0 0,-10.63 39.7244,0 0,10.63 39.0157,0 0,-10.63 39.7244,0 0,10.63 39.0158,0 0,-10.63 39.7244,0 0,10.63 39.0157,0 0,-10.63 39.5473,0 0,39.5473 -10.6299,0 0,39.0157 10.6299,0 0,39.7245 -10.6299,0 0,39.0157 10.6299,0 0,39.7244 -10.6299,0 0,39.0158 10.6299,0 0,39.7244 -10.6299,0 0,39.0157 10.6299,0 0,39.5473 -39.5473,0 0,-10.63 -39.0157,0 0,10.63 -39.7244,0 0,-10.63 -39.0158,0 0,10.63 -39.7244,0 0,-10.63 -39.0157,0 0,10.63 -39.7244,0 0,-10.63 -39.0158,0 0,10.63 -39.5472,0 0,-39.5473 10.6299,0 0,-39.0157 -10.6299,0 0,-39.7244 10.6299,0 0,-39.0158 -10.6299,0 0,-39.7244 10.6299,0 0,-39.0157 -10.6299,0 0,-39.7245 10.6299,0 0,-39.0157 -10.6299,0 0,-39.5473 z"
       inkscape:connector-curvature="0" />
    <path
       style="fill:none;stroke:#ff0000"
       id="box_font"
       d="m 4120.3883,-1643.9445 39.1929,0 0,-10.6299 39.7244,0 0,10.6299 39.0158,0 0,-10.6299 39.7244,0 0,10.6299 39.0157,0 0,-10.6299 39.7244,0 0,10.6299 39.0158,0 0,-10.6299 39.7244,0 0,10.6299 39.1929,0 0,52.1457 -10.6299,0 0,51.6141 10.6299,0 0,52.1457 -39.1929,0 0,10.6299 -39.7244,0 0,-10.6299 -39.0158,0 0,10.6299 -39.7244,0 0,-10.6299 -39.0157,0 0,10.6299 -39.7244,0 0,-10.6299 -39.0158,0 0,10.6299 -39.7244,0 0,-10.6299 -39.1929,0 0,-52.1457 10.6299,0 0,-51.6141 -10.6299,0 0,-52.1457 z"
       inkscape:connector-curvature="0" />
    <path
       style="fill:none;stroke:#ff0000"
       id="box_back"
       d="m 3755.4277,-1643.9445 39.1929,0 0,-10.6299 39.7244,0 0,10.6299 39.0157,0 0,-10.6299 39.7244,0 0,10.6299 39.0158,0 0,-10.6299 39.7244,0 0,10.6299 39.0157,0 0,-10.6299 39.7245,0 0,10.6299 39.1929,0 0,52.1457 -10.63,0 0,51.6141 10.63,0 0,52.1457 -39.1929,0 0,10.6299 -39.7245,0 0,-10.6299 -39.0157,0 0,10.6299 -39.7244,0 0,-10.6299 -39.0158,0 0,10.6299 -39.7244,0 0,-10.6299 -39.0157,0 0,10.6299 -39.7244,0 0,-10.6299 -39.1929,0 0,-52.1457 10.6299,0 0,-51.6141 -10.6299,0 0,-52.1457 z"
       inkscape:connector-curvature="0" />
    <path
       style="fill:none;stroke:#ff0000"
       id="box_left_side"
       d="m 4131.0182,-1456.1492 28.563,0 0,-10.6299 39.7244,0 0,10.6299 39.0158,0 0,-10.6299 39.7244,0 0,10.6299 39.0157,0 0,-10.6299 39.7244,0 0,10.6299 39.0158,0 0,-10.6299 39.7244,0 0,10.6299 28.563,0 0,51.7913 10.6299,0 0,52.3228 -10.6299,0 0,51.7914 -28.563,0 0,10.6299 -39.7244,0 0,-10.6299 -39.0158,0 0,10.6299 -39.7244,0 0,-10.6299 -39.0157,0 0,10.6299 -39.7244,0 0,-10.6299 -39.0158,0 0,10.6299 -39.7244,0 0,-10.6299 -28.563,0 0,-51.7914 -10.6299,0 0,-52.3228 10.6299,0 0,-51.7913 z"
       inkscape:connector-curvature="0" />
    <path
       style="fill:none;stroke:#ff0000"
       id="box_right_side"
       d="m 3766.0576,-1456.1492 28.563,0 0,-10.6299 39.7244,0 0,10.6299 39.0157,0 0,-10.6299 39.7244,0 0,10.6299 39.0158,0 0,-10.6299 39.7244,0 0,10.6299 39.0157,0 0,-10.6299 39.7245,0 0,10.6299 28.5629,0 0,51.7913 10.63,0 0,52.3228 -10.63,0 0,51.7914 -28.5629,0 0,10.6299 -39.7245,0 0,-10.6299 -39.0157,0 0,10.6299 -39.7244,0 0,-10.6299 -39.0158,0 0,10.6299 -39.7244,0 0,-10.6299 -39.0157,0 0,10.6299 -39.7244,0 0,-10.6299 -28.563,0 0,-51.7914 -10.6299,0 0,-52.3228 10.6299,0 0,-51.7913 z"
       inkscape:connector-curvature="0" />
    <path
       id="path3457"
       style="fill:none;stroke:#ff0000"
       d="m 3292.0058,-1489.8939 19.3094,0 0,10.6299 19.3626,0 0,-10.6299 19.2917,0 0,10.6299 19.3625,0 0,-10.6299 19.2917,0 0,10.6299 19.3626,0 0,-10.6299 19.2917,0 0,10.6299 19.3626,0 0,-10.6299 19.2917,0 0,10.6299 19.3625,0 0,-10.6299 19.3094,0 m -5.315,0 10.63,0 0,-177.1831 -10.63,0 0,-177.1299 10.63,0 0,-177.1831 -10.63,0 -207.2834,0 0,177.1477 -10.6299,0 0,177.2008 10.6299,0 0,177.1476"
       inkscape:connector-curvature="0"
       sodipodi:nodetypes="cccccccccccccccccccccccccccccccccccc" />
    <path
       id="path3482"
       style="fill:none;stroke:#ff0000"
       d="m 4049.5221,-1929.324 -10.6299,0 0,19.2917 10.6299,0 z m 0,38.6542 -10.6299,0 0,19.2917 10.6299,0 z m 0,38.6543 -10.6299,0 0,19.2917 10.6299,0 z m 0,38.6542 -10.6299,0 0,19.2917 10.6299,0 z m 0,38.6543 -10.6299,0 0,19.2917 10.6299,0 z m -233.8582,19.2916 10.6299,0 0,-19.2917 -10.6299,0 z m 0,-38.6542 10.6299,0 0,-19.2917 -10.6299,0 z m 0,-38.6543 10.6299,0 0,-19.2917 -10.6299,0 z m 0,-38.6542 10.6299,0 0,-19.2917 -10.6299,0 z m 0,-38.6543 10.6299,0 0,-19.2917 -10.6299,0 z m 203.8834,184.5918 0,-10.6299 -19.2917,0 0,10.6299 z m -38.6542,0 0,-10.6299 -19.2917,0 0,10.6299 z m -38.6543,0 0,-10.6299 -19.2917,0 0,10.6299 z m -38.6542,0 0,-10.6299 -19.2917,0 0,10.6299 z m -38.6543,0 0,-10.6299 -19.2917,0 0,10.6299 z m -19.2916,-233.8582 0,10.6299 19.2917,0 0,-10.6299 z m 38.6542,0 0,10.6299 19.2917,0 0,-10.6299 z m 38.6543,0 0,10.6299 19.2917,0 0,-10.6299 z m 38.6542,0 0,10.6299 19.2917,0 0,-10.6299 z m 38.6543,0 0,10.6299 19.2917,0 0,-10.6299 z"
       inkscape:connector-curvature="0"
       sodipodi:nodetypes="cccccccccccccccccccccccccccccccccccccccccccccccccccccccccccccccccccccccccccccccccccccccccccccccccccc" />
    <path
       sodipodi:nodetypes="cccccccccccccccccccccccccccccccccccc"
       inkscape:connector-curvature="0"
       d="m 3522.9078,-1489.8938 19.3094,0 0,10.6299 19.3626,0 0,-10.6299 19.2917,0 0,10.6299 19.3625,0 0,-10.6299 19.2917,0 0,10.6299 19.3626,0 0,-10.6299 19.2917,0 0,10.6299 19.3626,0 0,-10.6299 19.2917,0 0,10.6299 19.3625,0 0,-10.6299 19.3094,0 m -5.315,0 10.63,0 0,-177.1832 -10.63,0 0,-177.1298 10.63,0 0,-177.1832 -10.63,0 -207.2834,0 0,177.1477 -10.6299,0 0,177.2008 10.6299,0 0,177.1477"
       style="fill:none;stroke:#ff0000;stroke-width:0.9992126;stroke-miterlimit:4;stroke-dasharray:none"
       id="path3485" />
    <path
       id="path3487"
       style="fill:none;stroke:#ff0000"
       d="m 3739.9226,-1257.7384 0,-19.3094 10.6299,0 0,-19.3626 -10.6299,0 0,-19.2917 10.6299,0 0,-19.3625 -10.6299,0 0,-19.2917 10.6299,0 0,-19.3626 -10.6299,0 0,-19.2917 10.6299,0 0,-19.3626 -10.6299,0 0,-19.2917 10.6299,0 0,-19.3625 -10.6299,0 0,-19.3094 m 0,5.315 0,-10.63 -177.1831,0 0,10.63 -177.13,0 0,-10.63 -177.1831,0 0,10.63 0,207.2834 177.1477,0 0,10.6299 177.2009,0 0,-10.6299 177.1476,0"
       inkscape:connector-curvature="0"
       sodipodi:nodetypes="cccccccccccccccccccccccccccccccccccc" />
    <path
       sodipodi:nodetypes="cccccccccccccccccccccccccccccccccccc"
       inkscape:connector-curvature="0"
       d="m 3060.5737,-1489.8939 19.3094,0 0,10.6299 19.3626,0 0,-10.6299 19.2917,0 0,10.6299 19.3625,0 0,-10.6299 19.2917,0 0,10.6299 19.3626,0 0,-10.6299 19.2917,0 0,10.6299 19.3626,0 0,-10.6299 19.2917,0 0,10.6299 19.3625,0 0,-10.6299 19.3094,0 m -5.315,0 10.63,0 0,-177.1831 -10.63,0 0,-177.1299 10.63,0 0,-177.1831 -10.63,0 -207.2834,0 0,177.1477 -10.6299,0 0,177.2008 10.6299,0 0,177.1476"
       style="fill:none;stroke:#ff0000"
       id="path3489" />
    <path
       style="opacity:1;fill:none;fill-opacity:1;fill-rule:nonzero;stroke:#ff0000;stroke-width:0.99921262;stroke-linecap:round;stroke-linejoin:round;stroke-miterlimit:4;stroke-dasharray:none;stroke-dashoffset:0;stroke-opacity:1"
       d="m 3693.9158,-1597.3843 a 24.853075,24.853075 0 0 1 -24.8531,24.8531 24.853075,24.853075 0 0 1 -24.853,-24.8531 24.853075,24.853075 0 0 1 24.853,-24.8531 24.853075,24.853075 0 0 1 24.8531,24.8531 z"
       id="path4145" />
    <use
       id="use4223"
       xlink:href="#path4145"
       x="0"
       y="0"
       width="100%"
       height="100%"
       transform="translate(-9.9239337,-250.77554)" />
    <use
       id="use4227"
       xlink:href="#path4145"
       x="0"
       y="0"
       width="100%"
       height="100%"
       transform="translate(-37.912243,-387.20008)" />
    <use
       id="use4229"
       xlink:href="#path4145"
       x="0"
       y="0"
       width="100%"
       height="100%"
       transform="translate(8.833907,-326.12485)" />
    <use
       id="use4233"
       xlink:href="#path4145"
       x="0"
       y="0"
       width="100%"
       height="100%"
       transform="translate(-112.35108,-145.56616)" />
    <use
       id="use4235"
       xlink:href="#path4145"
       x="0"
       y="0"
       width="100%"
       height="100%"
       transform="translate(-111.65562,-228.68837)" />
    <use
       id="use4243"
       xlink:href="#path4145"
       x="0"
       y="0"
       width="100%"
       height="100%"
       transform="translate(-34.017482,-183.09478)" />
    <use
       id="use4261"
       xlink:href="#path4145"
       x="0"
       y="0"
       width="100%"
       height="100%"
       transform="translate(6.7462719,-116.07411)" />
    <use
       id="use4265"
       xlink:href="#path4145"
       x="0"
       y="0"
       width="100%"
       height="100%"
       transform="translate(28.577346,-49.73741)" />
    <use
       id="use4269"
       xlink:href="#path4145"
       x="0"
       y="0"
       width="100%"
       height="100%"
       transform="translate(37.266169,62.888245)" />
    <use
       id="use4271"
       xlink:href="#path4145"
       x="0"
       y="0"
       width="100%"
       height="100%"
       transform="translate(-60.685279,2.6366407)" />
    <use
       id="use4277"
       xlink:href="#path4145"
       x="0"
       y="0"
       width="100%"
       height="100%"
       transform="translate(-87.162585,62.790632)" />
    <path
       style="opacity:1;fill:none;fill-opacity:1;fill-rule:nonzero;stroke:#ff0000;stroke-width:0.99921262;stroke-linecap:round;stroke-linejoin:round;stroke-miterlimit:4;stroke-dasharray:none;stroke-dashoffset:0;stroke-opacity:1"
       d="m 3622.9204,-1886.5582 a 13.618123,13.618123 0 0 1 -13.6182,13.6181 13.618123,13.618123 0 0 1 -13.6181,-13.6181 13.618123,13.618123 0 0 1 13.6181,-13.6182 13.618123,13.618123 0 0 1 13.6182,13.6182 z"
       id="use4417" />
    <path
       style="opacity:1;fill:none;fill-opacity:1;fill-rule:nonzero;stroke:#ff0000;stroke-width:0.99921262;stroke-linecap:round;stroke-linejoin:round;stroke-miterlimit:4;stroke-dasharray:none;stroke-dashoffset:0;stroke-opacity:1"
       d="m 3595.1772,-1867.7344 a 13.618123,13.618123 0 0 1 -13.6181,13.6181 13.618123,13.618123 0 0 1 -13.6181,-13.6181 13.618123,13.618123 0 0 1 13.6181,-13.6181 13.618123,13.618123 0 0 1 13.6181,13.6181 z"
       id="use4419" />
    <path
       style="opacity:1;fill:none;fill-opacity:1;fill-rule:nonzero;stroke:#ff0000;stroke-width:0.99921262;stroke-linecap:round;stroke-linejoin:round;stroke-miterlimit:4;stroke-dasharray:none;stroke-dashoffset:0;stroke-opacity:1"
       d="m 3715.9582,-1760.3855 a 13.618123,13.618123 0 0 1 -13.6181,13.6181 13.618123,13.618123 0 0 1 -13.6181,-13.6181 13.618123,13.618123 0 0 1 13.6181,-13.6181 13.618123,13.618123 0 0 1 13.6181,13.6181 z"
       id="use4421" />
    <path
       style="opacity:1;fill:none;fill-opacity:1;fill-rule:nonzero;stroke:#ff0000;stroke-width:0.99921262;stroke-linecap:round;stroke-linejoin:round;stroke-miterlimit:4;stroke-dasharray:none;stroke-dashoffset:0;stroke-opacity:1"
       d="m 3632.3772,-1727.0782 a 13.618123,13.618123 0 0 1 -13.6182,13.6181 13.618123,13.618123 0 0 1 -13.6181,-13.6181 13.618123,13.618123 0 0 1 13.6181,-13.6182 13.618123,13.618123 0 0 1 13.6182,13.6182 z"
       id="use4423" />
    <path
       style="opacity:1;fill:none;fill-opacity:1;fill-rule:nonzero;stroke:#ff0000;stroke-width:0.99921262;stroke-linecap:round;stroke-linejoin:round;stroke-miterlimit:4;stroke-dasharray:none;stroke-dashoffset:0;stroke-opacity:1"
       d="m 3645.2592,-1658.4985 a 13.618123,13.618123 0 0 1 -13.6181,13.6181 13.618123,13.618123 0 0 1 -13.6181,-13.6181 13.618123,13.618123 0 0 1 13.6181,-13.6182 13.618123,13.618123 0 0 1 13.6181,13.6182 z"
       id="use4427" />
    <path
       style="opacity:1;fill:none;fill-opacity:1;fill-rule:nonzero;stroke:#ff0000;stroke-width:0.99921262;stroke-linecap:round;stroke-linejoin:round;stroke-miterlimit:4;stroke-dasharray:none;stroke-dashoffset:0;stroke-opacity:1"
       d="m 3571.2656,-1651.2068 a 13.618123,13.618123 0 0 1 -13.6181,13.6181 13.618123,13.618123 0 0 1 -13.6182,-13.6181 13.618123,13.618123 0 0 1 13.6182,-13.6181 13.618123,13.618123 0 0 1 13.6181,13.6181 z"
       id="use4435" />
    <path
       style="opacity:1;fill:none;fill-opacity:1;fill-rule:nonzero;stroke:#ff0000;stroke-width:0.99921262;stroke-linecap:round;stroke-linejoin:round;stroke-miterlimit:4;stroke-dasharray:none;stroke-dashoffset:0;stroke-opacity:1"
       d="m 3567.7212,-1593.0719 a 13.618123,13.618123 0 0 1 -13.6182,13.6181 13.618123,13.618123 0 0 1 -13.6181,-13.6181 13.618123,13.618123 0 0 1 13.6181,-13.6181 13.618123,13.618123 0 0 1 13.6182,13.6181 z"
       id="use4441" />
    <path
       style="opacity:1;fill:none;fill-opacity:1;fill-rule:nonzero;stroke:#ff0000;stroke-width:0.99921262;stroke-linecap:round;stroke-linejoin:round;stroke-miterlimit:4;stroke-dasharray:none;stroke-dashoffset:0;stroke-opacity:1"
       d="m 3688.4939,-1800.5951 a 13.618123,13.618123 0 0 1 -13.6182,13.6181 13.618123,13.618123 0 0 1 -13.6181,-13.6181 13.618123,13.618123 0 0 1 13.6181,-13.6181 13.618123,13.618123 0 0 1 13.6182,13.6181 z"
       id="use4443" />
    <path
       style="opacity:1;fill:none;fill-opacity:1;fill-rule:nonzero;stroke:#ff0000;stroke-width:0.99921262;stroke-linecap:round;stroke-linejoin:round;stroke-miterlimit:4;stroke-dasharray:none;stroke-dashoffset:0;stroke-opacity:1"
       d="m 3600.59,-1785.0558 a 13.618123,13.618123 0 0 1 -13.6181,13.6181 13.618123,13.618123 0 0 1 -13.6181,-13.6181 13.618123,13.618123 0 0 1 13.6181,-13.6181 13.618123,13.618123 0 0 1 13.6181,13.6181 z"
       id="use4445" />
    <path
       style="opacity:1;fill:none;fill-opacity:1;fill-rule:nonzero;stroke:#ff0000;stroke-width:0.99921262;stroke-linecap:round;stroke-linejoin:round;stroke-miterlimit:4;stroke-dasharray:none;stroke-dashoffset:0;stroke-opacity:1"
       d="m 3633.4746,-1858.8787 a 13.618123,13.618123 0 0 1 -13.6182,13.6182 13.618123,13.618123 0 0 1 -13.6181,-13.6182 13.618123,13.618123 0 0 1 13.6181,-13.6181 13.618123,13.618123 0 0 1 13.6182,13.6181 z"
       id="use4447" />
    <path
       style="opacity:1;fill:none;fill-opacity:1;fill-rule:nonzero;stroke:#ff0000;stroke-width:0.99921262;stroke-linecap:round;stroke-linejoin:round;stroke-miterlimit:4;stroke-dasharray:none;stroke-dashoffset:0;stroke-opacity:1"
       d="m 3718.7019,-1879.2928 a 13.618123,13.618123 0 0 1 -13.6182,13.6181 13.618123,13.618123 0 0 1 -13.6181,-13.6181 13.618123,13.618123 0 0 1 13.6181,-13.6182 13.618123,13.618123 0 0 1 13.6182,13.6182 z"
       id="use4449" />
    <path
       style="opacity:1;fill:none;fill-opacity:1;fill-rule:nonzero;stroke:#ff0000;stroke-width:0.99921262;stroke-linecap:round;stroke-linejoin:round;stroke-miterlimit:4;stroke-dasharray:none;stroke-dashoffset:0;stroke-opacity:1"
       d="m 3643.3828,-1921.1149 a 13.618123,13.618123 0 0 1 -13.6182,13.6182 13.618123,13.618123 0 0 1 -13.6181,-13.6182 13.618123,13.618123 0 0 1 13.6181,-13.6181 13.618123,13.618123 0 0 1 13.6182,13.6181 z"
       id="use4453" />
    <path
       style="opacity:1;fill:none;fill-opacity:1;fill-rule:nonzero;stroke:#ff0000;stroke-width:0.99921262;stroke-linecap:round;stroke-linejoin:round;stroke-miterlimit:4;stroke-dasharray:none;stroke-dashoffset:0;stroke-opacity:1"
       d="m 3605.4653,-1974.3031 a 13.618123,13.618123 0 0 1 -13.6181,13.6181 13.618123,13.618123 0 0 1 -13.6182,-13.6181 13.618123,13.618123 0 0 1 13.6182,-13.6181 13.618123,13.618123 0 0 1 13.6181,13.6181 z"
       id="use4455" />
    <path
       style="opacity:1;fill:none;fill-opacity:1;fill-rule:nonzero;stroke:#ff0000;stroke-width:0.99921262;stroke-linecap:round;stroke-linejoin:round;stroke-miterlimit:4;stroke-dasharray:none;stroke-dashoffset:0;stroke-opacity:1"
       d="m 3582.3037,-1931.3722 a 13.618123,13.618123 0 0 1 -13.6182,13.6181 13.618123,13.618123 0 0 1 -13.6181,-13.6181 13.618123,13.618123 0 0 1 13.6181,-13.6181 13.618123,13.618123 0 0 1 13.6182,13.6181 z"
       id="use4459" />
    <path
       style="fill:none;fill-rule:evenodd;stroke:#ff0000;stroke-width:1px;stroke-linecap:butt;stroke-linejoin:miter;stroke-opacity:1"
       d="m 3464.73,-2004.7863 c 61.3145,151.957 -18.5114,366.7771 0,497.5855"
       id="path4489"
       inkscape:connector-curvature="0"
       sodipodi:nodetypes="cc" />
    <path
       sodipodi:nodetypes="cc"
       inkscape:connector-curvature="0"
       id="path4493"
       d="m 3301.9934,-2004.7863 c 61.3145,151.957 -18.5114,366.7771 0,497.5855"
       style="fill:none;fill-rule:evenodd;stroke:#ff0000;stroke-width:1px;stroke-linecap:butt;stroke-linejoin:miter;stroke-opacity:1" />
    <g
       id="g4652">
      <path
         d="M3301.9934 -2004.7863C3363.3079 -1852.8293 3283.482 -1638.0092 3301.9934 -1507.2008"
         style="stroke-linejoin:miter;stroke-opacity:1;fill-rule:evenodd;stroke:#ff0000;stroke-linecap:butt;stroke-width:1.0;fill:none"
         id="path4654" />
      <path
         d="M3316.78763636 -2004.7863C3378.10213636 -1852.8293 3298.27623636 -1638.0092 3316.78763636 -1507.2008"
         style="stroke-linejoin:miter;stroke-opacity:1;fill-rule:evenodd;stroke:#ff0000;stroke-linecap:butt;stroke-width:1.0;fill:none"
         id="path4656" />
      <path
         d="M3331.58187273 -2004.7863C3392.89637273 -1852.8293 3313.07047273 -1638.0092 3331.58187273 -1507.2008"
         style="stroke-linejoin:miter;stroke-opacity:1;fill-rule:evenodd;stroke:#ff0000;stroke-linecap:butt;stroke-width:1.0;fill:none"
         id="path4658" />
      <path
         d="M3346.37610909 -2004.7863C3407.69060909 -1852.8293 3327.86470909 -1638.0092 3346.37610909 -1507.2008"
         style="stroke-linejoin:miter;stroke-opacity:1;fill-rule:evenodd;stroke:#ff0000;stroke-linecap:butt;stroke-width:1.0;fill:none"
         id="path4660" />
      <path
         d="M3361.17034545 -2004.7863C3422.48484545 -1852.8293 3342.65894545 -1638.0092 3361.17034545 -1507.2008"
         style="stroke-linejoin:miter;stroke-opacity:1;fill-rule:evenodd;stroke:#ff0000;stroke-linecap:butt;stroke-width:1.0;fill:none"
         id="path4662" />
      <path
         d="M3375.96458182 -2004.7863C3437.27908182 -1852.8293 3357.45318182 -1638.0092 3375.96458182 -1507.2008"
         style="stroke-linejoin:miter;stroke-opacity:1;fill-rule:evenodd;stroke:#ff0000;stroke-linecap:butt;stroke-width:1.0;fill:none"
         id="path4664" />
      <path
         d="M3390.75881818 -2004.7863C3452.07331818 -1852.8293 3372.24741818 -1638.0092 3390.75881818 -1507.2008"
         style="stroke-linejoin:miter;stroke-opacity:1;fill-rule:evenodd;stroke:#ff0000;stroke-linecap:butt;stroke-width:1.0;fill:none"
         id="path4666" />
      <path
         d="M3405.55305455 -2004.7863C3466.86755455 -1852.8293 3387.04165455 -1638.0092 3405.55305455 -1507.2008"
         style="stroke-linejoin:miter;stroke-opacity:1;fill-rule:evenodd;stroke:#ff0000;stroke-linecap:butt;stroke-width:1.0;fill:none"
         id="path4668" />
      <path
         d="M3420.34729091 -2004.7863C3481.66179091 -1852.8293 3401.83589091 -1638.0092 3420.34729091 -1507.2008"
         style="stroke-linejoin:miter;stroke-opacity:1;fill-rule:evenodd;stroke:#ff0000;stroke-linecap:butt;stroke-width:1.0;fill:none"
         id="path4670" />
      <path
         d="M3435.14152727 -2004.7863C3496.45602727 -1852.8293 3416.63012727 -1638.0092 3435.14152727 -1507.2008"
         style="stroke-linejoin:miter;stroke-opacity:1;fill-rule:evenodd;stroke:#ff0000;stroke-linecap:butt;stroke-width:1.0;fill:none"
         id="path4672" />
      <path
         d="M3449.93576364 -2004.7863C3511.25026364 -1852.8293 3431.42436364 -1638.0092 3449.93576364 -1507.2008"
         style="stroke-linejoin:miter;stroke-opacity:1;fill-rule:evenodd;stroke:#ff0000;stroke-linecap:butt;stroke-width:1.0;fill:none"
         id="path4674" />
      <path
         d="M3464.73 -2004.7863C3526.0445 -1852.8293 3446.2186 -1638.0092 3464.73 -1507.2008"
         style="stroke-linejoin:miter;stroke-opacity:1;fill-rule:evenodd;stroke:#ff0000;stroke-linecap:butt;stroke-width:1.0;fill:none"
         id="path4676" />
    </g>
    <g
       transform="matrix(0,-0.94837106,1.0544396,0,0,0)"
       style="font-style:normal;font-variant:normal;font-weight:normal;font-stretch:normal;font-size:62.10832596px;line-height:125%;font-family:'DejaVu Sans';-inkscape-font-specification:'DejaVu Sans';letter-spacing:0px;word-spacing:0px;fill:none;fill-opacity:1;stroke:#ff0000;stroke-width:1px;stroke-linecap:butt;stroke-linejoin:miter;stroke-opacity:1"
       id="text4744">
      <path
         d="m 1617.2113,2924.4291 26.02,0 0,5.1555 -19.8941,0 0,13.3435 17.9532,0 0,5.1555 -17.9532,0 0,21.6227 -6.1259,0 0,-45.2772 z"
         style=""
         id="path5677" />
      <path
         d="m 1673.6183,2950.3278 0,19.3785 -5.5801,0 0,-5.1555 c -1.2737,2.0622 -2.8607,3.5886 -4.7612,4.5793 -1.9005,0.9705 -4.2255,1.4557 -6.975,1.4557 -3.4775,0 -6.2473,-0.9705 -8.3095,-2.9114 -2.0419,-1.9611 -3.0629,-4.5792 -3.0629,-7.8545 0,-3.8211 1.2737,-6.7021 3.8211,-8.643 2.5676,-1.9409 6.3887,-2.9113 11.4634,-2.9113 l 7.8241,0 0,-0.5459 c 0,-2.5676 -0.8491,-4.5489 -2.5474,-5.944 -1.6781,-1.4152 -4.0435,-2.1228 -7.0963,-2.1228 -1.9409,0 -3.8313,0.2325 -5.6711,0.6975 -1.8397,0.465 -3.6088,1.1625 -5.3071,2.0925 l 0,-5.1554 c 2.042,-0.7885 4.0233,-1.3749 5.944,-1.759 1.9207,-0.4043 3.7908,-0.6065 5.6104,-0.6065 4.9129,0 8.5823,1.2737 11.0084,3.8211 2.4261,2.5474 3.6392,6.409 3.6392,11.5847 z"
         id="path5679"
         inkscape:connector-curvature="0"
         sodipodi:nodetypes="sccccscscscscsscccscs" />
      <path
         d="m 1690.5404,2940.8963 c 1.1726,-2.0217 2.6485,-3.5178 4.4276,-4.4883 1.7994,-0.9907 3.9425,-1.486 6.4292,-1.486 4.1244,0 7.4704,1.6376 10.038,4.9129 2.5879,3.2752 3.8818,7.5815 3.8818,12.919 0,5.3374 -1.2939,9.6437 -3.8818,12.919 -2.5676,3.2753 -5.9136,4.9129 -10.038,4.9129 -2.4867,0 -4.6298,-0.4852 -6.4292,-1.4557 -1.7791,-0.9907 -3.255,-2.4969 -4.4276,-4.5186 l 0,5.0948 -5.6104,0 0,-47.1878 5.6104,0 z"
         id="path5681"
         inkscape:connector-curvature="0"
         sodipodi:nodetypes="ccscscsccccccc" />
      <path
         d="m 1724.5665,2922.5185 5.5801,0 0,47.1878 -5.5801,0 0,-47.1878 z"
         style=""
         id="path5683" />
      <path
         d="m 1768.3577,2950.3278 0,19.3785 -5.58,0 0,-5.1555 c -1.2737,2.0622 -2.8608,3.5886 -4.7612,4.5793 -1.9005,0.9705 -4.2255,1.4557 -6.9751,1.4557 -3.4774,0 -6.2472,-0.9705 -8.3094,-2.9114 -2.042,-1.9611 -3.063,-4.5792 -3.063,-7.8545 0,-3.8211 1.2737,-6.7021 3.8212,-8.643 2.5676,-1.9409 6.3887,-2.9113 11.4633,-2.9113 l 7.8242,0 0,-0.5459 c 0,-2.5676 -0.8491,-4.5489 -2.5474,-5.944 -1.6781,-1.4152 -4.0435,-2.1228 -7.0964,-2.1228 -1.9409,0 -3.8312,0.2325 -5.671,0.6975 -1.8398,0.465 -3.6088,1.1625 -5.3071,2.0925 l 0,-5.1554 c 2.042,-0.7885 4.0233,-1.3749 5.944,-1.759 1.9207,-0.4043 3.7908,-0.6065 5.6103,-0.6065 4.9129,0 8.5824,1.2737 11.0085,3.8211 2.4261,2.5474 3.6391,6.409 3.6391,11.5847 z"
         id="path5685"
         inkscape:connector-curvature="0"
         sodipodi:nodetypes="sccccscscscscsscccscs" />
      <path
         d="m 1785.2798,2940.8963 c 1.1727,-2.0217 2.6486,-3.5178 4.4277,-4.4883 1.7993,-0.9907 3.9424,-1.486 6.4292,-1.486 4.1243,0 7.4703,1.6376 10.038,4.9129 2.5878,3.2752 3.8817,7.5815 3.8817,12.919 0,5.3374 -1.2939,9.6437 -3.8817,12.919 -2.5677,3.2753 -5.9137,4.9129 -10.038,4.9129 -2.4868,0 -4.6299,-0.4852 -6.4292,-1.4557 -1.7791,-0.9907 -3.255,-2.4969 -4.4277,-4.5186 l 0,5.0948 -5.6103,0 0,-47.1878 5.6103,0 z"
         id="path5687"
         inkscape:connector-curvature="0"
         sodipodi:nodetypes="ccscscsccccccc" />
      <path
         d="m 1839.3214,2924.4291 6.1259,0 0,40.1217 22.0472,0 0,5.1555 -28.1731,0 0,-45.2772 z"
         style=""
         id="path5689" />
      <path
         d="m 1900.2166,2950.3278 0,19.3785 -5.58,0 0,-5.1555 c -1.2737,2.0622 -2.8608,3.5886 -4.7612,4.5793 -1.9005,0.9705 -4.2255,1.4557 -6.9751,1.4557 -3.4774,0 -6.2472,-0.9705 -8.3094,-2.9114 -2.042,-1.9611 -3.063,-4.5792 -3.063,-7.8545 0,-3.8211 1.2737,-6.7021 3.8211,-8.643 2.5677,-1.9409 6.3888,-2.9113 11.4634,-2.9113 l 7.8242,0 0,-0.5459 c 0,-2.5676 -0.8491,-4.5489 -2.5474,-5.944 -1.6781,-1.4152 -4.0435,-2.1228 -7.0964,-2.1228 -1.9409,0 -3.8312,0.2325 -5.671,0.6975 -1.8398,0.465 -3.6088,1.1625 -5.3071,2.0925 l 0,-5.1554 c 2.0419,-0.7885 4.0232,-1.3749 5.9439,-1.759 1.9207,-0.4043 3.7909,-0.6065 5.6104,-0.6065 4.9129,0 8.5824,1.2737 11.0085,3.8211 2.4261,2.5474 3.6391,6.409 3.6391,11.5847 z"
         id="path5691"
         inkscape:connector-curvature="0"
         sodipodi:nodetypes="sccccscscscscsscccscs" />
      <path
         d="m 1939.9745,2949.2057 0,20.5006 -5.5801,0 0,-20.3186 q 0,-4.8219 -1.8802,-7.2177 -1.8802,-2.3958 -5.6407,-2.3958 -4.5186,0 -7.1267,2.881 -2.6081,2.881 -2.6081,7.8545 l 0,19.1966 -5.6103,0 0,-33.9655 5.6103,0 0,5.2768 q 2.0016,-3.063 4.7006,-4.5793 2.7294,-1.5163 6.2776,-1.5163 5.8529,0 8.8553,3.6392 3.0023,3.6088 3.0023,10.6445 z"
         style=""
         id="path5693" />
      <path
         d="m 1979.3987,2949.2057 0,20.5006 -5.5801,0 0,-20.3186 q 0,-4.8219 -1.8802,-7.2177 -1.8802,-2.3958 -5.6407,-2.3958 -4.5186,0 -7.1267,2.881 -2.608,2.881 -2.608,7.8545 l 0,19.1966 -5.6104,0 0,-33.9655 5.6104,0 0,5.2768 q 2.0015,-3.063 4.7005,-4.5793 2.7294,-1.5163 6.2776,-1.5163 5.853,0 8.8553,3.6392 3.0023,3.6088 3.0023,10.6445 z"
         style=""
         id="path5695" />
      <path
         d="m 1990.5891,2935.7408 5.58,0 0,33.9655 -5.58,0 0,-33.9655 z m 0,-13.2223 5.58,0 0,7.0661 -5.58,0 0,-7.0661 z"
         style=""
         id="path5697" />
      <path
         d="m 2020.9761,2934.922 c 4.8522,0 8.6632,1.577 11.433,4.7309 2.7698,3.1539 4.1547,7.5209 4.1547,13.101 0,5.5598 -1.3849,9.9268 -4.1547,13.101 -2.7698,3.1539 -6.5808,4.7309 -11.433,4.7309 -4.8725,0 -8.6936,-1.577 -11.4634,-4.7309 -2.7496,-3.1742 -4.1244,-7.5412 -4.1244,-13.101 0,-5.5801 1.3748,-9.9471 4.1244,-13.101 2.7698,-3.1539 6.5909,-4.7309 11.4634,-4.7309 z"
         id="path5699"
         inkscape:connector-curvature="0"
         sodipodi:nodetypes="ssscscscs" />
      <path
         d="m 2074.0168,2949.2057 0,20.5006 -5.58,0 0,-20.3186 q 0,-4.8219 -1.8803,-7.2177 -1.8802,-2.3958 -5.6407,-2.3958 -4.5186,0 -7.1266,2.881 -2.6081,2.881 -2.6081,7.8545 l 0,19.1966 -5.6104,0 0,-33.9655 5.6104,0 0,5.2768 q 2.0015,-3.063 4.7006,-4.5793 2.7293,-1.5163 6.2775,-1.5163 5.853,0 8.8553,3.6392 3.0023,3.6088 3.0023,10.6445 z"
         style=""
         id="path5701" />
    </g>
    <g
       id="g4808"
       transform="matrix(0,-1.4259187,1.4259187,0,3188.3261,-1522.893)"
       inkscape:label="Hershey Text"
       style="stroke:#000000">
      <path
         id="path4810"
         transform="translate(9,0)"
         style="fill:none;stroke:#000000"
         d="m -5,-12 0,21 m 1,-20 0,20 -1,0 m 0,-21 12,0 m -11,1 11,0 0,-1 m -11,10 6,0 0,1 m -6,0 6,0"
         inkscape:connector-curvature="0" />
      <path
         id="path4812"
         transform="translate(27,0)"
         style="fill:none;stroke:#000000"
         d="m -1,-5 -2,1 -2,2 -1,3 0,2 1,3 2,2 2,1 L 2,9 4,8 6,6 7,3 7,1 6,-2 4,-4 2,-5 -1,-5 m 0,1 -2,1 -1,1 -1,3 0,2 1,3 1,1 2,1 L 2,8 4,7 5,6 6,3 6,1 5,-2 4,-3 2,-4 -1,-4"
         inkscape:connector-curvature="0" />
      <path
         id="path4814"
         transform="translate(44,0)"
         style="fill:none;stroke:#000000"
         d="m -3,-5 0,14 1,0 m -1,-14 1,0 0,14 m 0,-8 1,-3 2,-2 2,-1 3,0 m -8,6 1,-2 2,-2 2,-1 3,0 0,-1"
         inkscape:connector-curvature="0" />
      <path
         id="path4816"
         transform="translate(66,0)"
         style="fill:none;stroke:#000000"
         d="m -11,-5 0,14 1,0 m -1,-14 1,0 0,14 m 0,-10 3,-3 2,-1 3,0 2,1 1,3 0,10 m -11,-10 3,-2 2,-1 2,0 2,1 1,2 0,10 1,0 m 0,-10 3,-3 2,-1 3,0 2,1 1,3 0,10 M 1,-1 l 3,-2 2,-1 2,0 2,1 1,2 0,10 1,0"
         inkscape:connector-curvature="0" />
      <path
         id="path4818"
         transform="translate(92,0)"
         style="fill:none;stroke:#000000"
         d="M 5,-5 5,9 6,9 M 5,-5 6,-5 6,9 M 5,-2 3,-4 1,-5 l -3,0 -2,1 -2,2 -1,3 0,2 1,3 2,2 2,1 3,0 2,-1 2,-2 m 0,-8 -4,-2 -3,0 -2,1 -1,1 -1,3 0,2 1,3 1,1 2,1 3,0 4,-2"
         inkscape:connector-curvature="0" />
      <path
         id="path4820"
         transform="translate(107,0)"
         style="fill:none;stroke:#000000"
         d="M 0,-12 0,9 1,9 m -1,-21 1,0 0,21 m -4,-14 7,0 0,1 m -7,-1 0,1 7,0"
         inkscape:connector-curvature="0" />
      <path
         id="path4822"
         transform="translate(117,0)"
         style="fill:none;stroke:#000000"
         d="m 0,-12 -1,1 0,1 1,1 1,0 1,-1 0,-1 -1,-1 -1,0 m 0,1 0,1 1,0 0,-1 -1,0 M 0,-5 0,9 1,9 M 0,-5 1,-5 1,9"
         inkscape:connector-curvature="0" />
      <path
         id="path4824"
         transform="translate(131,0)"
         style="fill:none;stroke:#000000"
         d="m -1,-5 -2,1 -2,2 -1,3 0,2 1,3 2,2 2,1 L 2,9 4,8 6,6 7,3 7,1 6,-2 4,-4 2,-5 -1,-5 m 0,1 -2,1 -1,1 -1,3 0,2 1,3 1,1 2,1 L 2,8 4,7 5,6 6,3 6,1 5,-2 4,-3 2,-4 -1,-4"
         inkscape:connector-curvature="0" />
      <path
         id="path4826"
         transform="translate(151,0)"
         style="fill:none;stroke:#000000"
         d="m -6,-5 0,14 1,0 m -1,-14 1,0 0,14 m 0,-10 3,-3 2,-1 3,0 2,1 1,3 0,10 m -11,-10 3,-2 2,-1 2,0 2,1 1,2 0,10 1,0"
         inkscape:connector-curvature="0" />
      <path
         id="path4828"
         transform="translate(169,0)"
         style="fill:none;stroke:#000000"
         d=""
         inkscape:connector-curvature="0" />
      <path
         id="path4830"
         transform="translate(181,0)"
         style="fill:none;stroke:#000000"
         d="M 0,-12 0,9 1,9 m -1,-21 1,0 0,21"
         inkscape:connector-curvature="0" />
      <path
         id="path4832"
         transform="translate(196,0)"
         style="fill:none;stroke:#000000"
         d="m -6,-5 0,14 1,0 m -1,-14 1,0 0,14 m 0,-10 3,-3 2,-1 3,0 2,1 1,3 0,10 m -11,-10 3,-2 2,-1 2,0 2,1 1,2 0,10 1,0"
         inkscape:connector-curvature="0" />
      <path
         id="path4834"
         transform="translate(216,0)"
         style="fill:none;stroke:#000000"
         d="m -6,-12 0,21 1,0 m -1,-21 1,0 0,21 M 6,-5 5,-5 -5,5 M 6,-5 -5,6 M -2,2 4,9 6,9 M -1,1 6,9"
         inkscape:connector-curvature="0" />
      <path
         id="path4836"
         transform="translate(233,0)"
         style="fill:none;stroke:#000000"
         d="m 6,-2 -1,-2 -3,-1 -3,0 -3,1 -1,2 1,2 2,1 5,2 2,1 M 4,3 5,5 5,6 4,8 M 5,7 2,8 -1,8 -4,7 M -3,8 -4,6 -5,6 M 6,-2 5,-2 4,-4 m 1,1 -3,-1 -3,0 -3,1 m 1,-1 -1,2 1,2 M -4,-1 -2,0 3,2 5,3 6,5 6,6 5,8 2,9 -1,9 -4,8 -5,6"
         inkscape:connector-curvature="0" />
      <path
         id="path4838"
         transform="translate(251,0)"
         style="fill:none;stroke:#000000"
         d="m 6,-2 -2,-2 -2,-1 -3,0 -2,1 -2,2 -1,3 0,2 1,3 2,2 2,1 3,0 2,-1 2,-2 m 0,-8 -1,1 -1,-2 -2,-1 -3,0 -2,1 -1,1 -1,3 0,2 1,3 1,1 2,1 3,0 2,-1 1,-2 1,1"
         inkscape:connector-curvature="0" />
      <path
         id="path4840"
         transform="translate(270,0)"
         style="fill:none;stroke:#000000"
         d="M 5,-5 5,9 6,9 M 5,-5 6,-5 6,9 M 5,-2 3,-4 1,-5 l -3,0 -2,1 -2,2 -1,3 0,2 1,3 2,2 2,1 3,0 2,-1 2,-2 m 0,-8 -4,-2 -3,0 -2,1 -1,1 -1,3 0,2 1,3 1,1 2,1 3,0 4,-2"
         inkscape:connector-curvature="0" />
      <path
         id="path4842"
         transform="translate(290,0)"
         style="fill:none;stroke:#000000"
         d="m -6,-5 0,21 1,0 m -1,-21 1,0 0,21 m 0,-18 2,-2 2,-1 3,0 2,1 2,2 L 7,1 7,3 6,6 4,8 2,9 -1,9 -3,8 -5,6 m 0,-8 4,-2 3,0 2,1 1,1 L 6,1 6,3 5,6 4,7 2,8 -1,8 -5,6"
         inkscape:connector-curvature="0" />
      <path
         id="path4844"
         transform="translate(309,0)"
         style="fill:none;stroke:#000000"
         d="M -5,2 6,2 6,-1 5,-3 4,-4 2,-5 l -3,0 -2,1 -2,2 -1,3 0,2 1,3 2,2 2,1 L 2,9 4,8 6,6 M -5,1 5,1 5,-1 4,-3 2,-4 l -3,0 -2,1 -1,1 -1,3 0,2 1,3 1,1 2,1 3,0 2,-1 1,-2 1,1"
         inkscape:connector-curvature="0" />
    </g>
    <g
       transform="matrix(0.46421894,0,0,0.46421894,3671.0955,-1595.0885)"
       id="layer1-6"
       inkscape:label="Calque 1">
      <g
         id="g5437"
         transform="matrix(0.60197956,0,0,0.60197956,239.05517,600.18978)"
         inkscape:label="Hershey Text"
         style="display:inline;stroke:#000000">
        <path
           inkscape:connector-curvature="0"
           id="path5487"
           transform="translate(419,0)"
           style="fill:none;stroke:#000000"
           d="m 6,-5 -1,0 0,15 -1,3 -1,1 -2,1 -2,0 -2,-1 -1,-1 -2,0 M 6,-5 6,10 5,13 3,15 1,16 -2,16 -4,15 -6,13 M 5,-2 3,-4 1,-5 l -3,0 -2,1 -2,2 -1,3 0,2 1,3 2,2 2,1 3,0 2,-1 2,-2 m 0,-8 -4,-2 -3,0 -2,1 -1,1 -1,3 0,2 1,3 1,1 2,1 3,0 4,-2 m -25,-11 0,14 1,0 m -1,-14 1,0 0,14 m 0,-8 1,-3 2,-2 2,-1 3,0 m -8,6 1,-2 2,-2 2,-1 3,0 0,-1 m -24,0 -2,1 -2,2 -1,3 0,2 1,3 2,2 2,1 3,0 2,-1 2,-2 1,-3 0,-2 -1,-3 -2,-2 -2,-1 -3,0 m 0,1 -2,1 -1,1 -1,3 0,2 1,3 1,1 2,1 3,0 2,-1 1,-1 1,-3 0,-2 -1,-3 -1,-1 -2,-1 -3,0 m -14,10 -1,1 0,1 1,1 1,0 1,-1 0,-1 -1,-1 -1,0 m 0,1 0,1 1,0 0,-1 -1,0 m -21,-12 0,14 1,0 m -1,-14 1,0 0,14 m 0,-10 3,-3 2,-1 3,0 2,1 1,3 0,10 m -11,-10 3,-2 2,-1 2,0 2,1 1,2 0,10 1,0 m -27,-14 -2,1 -2,2 -1,3 0,2 1,3 2,2 2,1 3,0 2,-1 2,-2 1,-3 0,-2 -1,-3 -2,-2 -2,-1 -3,0 m 0,1 -2,1 -1,1 -1,3 0,2 1,3 1,1 2,1 3,0 2,-1 1,-1 1,-3 0,-2 -1,-3 -1,-1 -2,-1 -3,0 m -13,-8 -1,1 0,1 1,1 1,0 1,-1 0,-1 -1,-1 -1,0 m 0,1 0,1 1,0 0,-1 -1,0 m 0,6 0,14 1,0 m -1,-14 1,0 0,14 m -21,-14 0,14 1,0 m -1,-14 1,0 0,14 m 0,-10 3,-3 2,-1 3,0 2,1 1,3 0,10 m -11,-10 3,-2 2,-1 2,0 2,1 1,2 0,10 1,0 m -32,-14 0,14 1,0 m -1,-14 1,0 0,14 m 0,-10 3,-3 2,-1 3,0 2,1 1,3 0,10 m -11,-10 3,-2 2,-1 2,0 2,1 1,2 0,10 1,0 m -21,-14 0,14 1,0 m -1,-14 1,0 0,14 m -1,-11 -2,-2 -2,-1 -3,0 -2,1 -2,2 -1,3 0,2 1,3 2,2 2,1 3,0 2,-1 2,-2 m 0,-8 -4,-2 -3,0 -2,1 -1,1 -1,3 0,2 1,3 1,1 2,1 3,0 4,-2 m -20,-18 0,21 1,0 m -1,-21 1,0 0,21 m -27,-9 18,0 m -38,-12 0,21 1,0 m -1,-21 1,0 0,21 m 0,-11 2,-2 2,-1 3,0 2,1 2,2 1,3 0,2 -1,3 -2,2 -2,1 -3,0 -2,-1 -2,-2 m 0,-8 4,-2 3,0 2,1 1,1 1,3 0,2 -1,3 -1,1 -2,1 -3,0 -4,-2 m -10,-11 0,14 1,0 m -1,-14 1,0 0,14 m -1,-11 -2,-2 -2,-1 -3,0 -2,1 -2,2 -1,3 0,2 1,3 2,2 2,1 3,0 2,-1 2,-2 m 0,-8 -4,-2 -3,0 -2,1 -1,1 -1,3 0,2 1,3 1,1 2,1 3,0 4,-2 m -20,-18 0,21 1,0 m -1,-21 1,0 0,21 m -21,-21 0,21 1,0 m -1,-21 1,0 0,21 m 0,-11 2,-2 2,-1 3,0 2,1 2,2 1,3 0,2 -1,3 -2,2 -2,1 -3,0 -2,-1 -2,-2 m 0,-8 4,-2 3,0 2,1 1,1 1,3 0,2 -1,3 -1,1 -2,1 -3,0 -4,-2 m -10,-11 0,14 1,0 m -1,-14 1,0 0,14 m -1,-11 -2,-2 -2,-1 -3,0 -2,1 -2,2 -1,3 0,2 1,3 2,2 2,1 3,0 2,-1 2,-2 m 0,-8 -4,-2 -3,0 -2,1 -1,1 -1,3 0,2 1,3 1,1 2,1 3,0 4,-2 m -18,-18 -2,0 -2,1 -1,3 0,17 1,0 m 4,-21 0,1 -2,0 -2,1 m 1,-1 -1,3 0,17 m -4,-14 7,0 0,1 m -7,-1 0,1 7,0 m -13,-12 -18,32 1,0 m 17,-32 1,0 -18,32 m -6,-32 -18,32 1,0 m 17,-32 1,0 -18,32 m -9,-21 -1,1 0,1 1,1 1,0 1,-1 0,-1 -1,-1 -1,0 m 0,1 0,1 1,0 0,-1 -1,0 m 0,10 -1,1 0,1 1,1 1,0 1,-1 0,-1 -1,-1 -1,0 m 0,1 0,1 1,0 0,-1 -1,0 m -21,-12 0,21 1,0 m -1,-21 1,0 0,21 m 0,-18 2,-2 2,-1 3,0 2,1 2,2 1,3 0,2 -1,3 -2,2 -2,1 -3,0 -2,-1 -2,-2 m 0,-8 4,-2 3,0 2,1 1,1 1,3 0,2 -1,3 -1,1 -2,1 -3,0 -4,-2 m -11,-18 0,21 1,0 m -1,-21 1,0 0,21 m -4,-14 7,0 0,1 m -7,-1 0,1 7,0 m -15,-8 0,21 1,0 m -1,-21 1,0 0,21 m -4,-14 7,0 0,1 m -7,-1 0,1 7,0 m -25,-8 0,21 1,0 m -1,-21 1,0 0,21 m 0,-10 3,-3 2,-1 3,0 2,1 1,3 0,10 m -11,-10 3,-2 2,-1 2,0 2,1 1,2 0,10 1,0 m 352.057513,-78.531597 -28.190492,-48.831223 c 0.04818,1.32911 0.1113,2.64461 0.188379,3.94614 0.04817,1.11283 0.08804,2.29311 0.116283,3.54049 0.04817,1.22064 0.07309,2.30589 0.07309,3.25592 l 0,38.088673 -6.355365,0 0,-57.337163 8.299949,0 28.489008,49.157982 c -0.07808,-1.329281 -0.151168,-2.658728 -0.222267,-3.988341 -0.04818,-1.13891 -0.09801,-2.373171 -0.149507,-3.702784 -0.04817,-1.356524 -0.07309,-2.645106 -0.07309,-3.865912 l 0,-37.600945 6.430783,0 0,57.337163 -8.599627,0 z m -44.080068,-28.93271 c 0,4.476232 -0.598027,8.545639 -1.793914,12.208056 -1.171635,3.662417 -2.8795,6.795746 -5.123261,9.399821 -2.2431,2.604407 -4.98456,4.61195 -8.2247,6.02263 -3.23998,1.411011 -6.91635,2.116517 -11.02895,2.116517 -4.33752,0 -8.13865,-0.732583 -11.40337,-2.197583 -3.2654,-1.491911 -5.9826,-3.553443 -8.15128,-6.184928 -2.16801,-2.65906 -3.80046,-5.806343 -4.89734,-9.441516 -1.09705,-3.635506 -1.64557,-7.609727 -1.64557,-11.922997 0,-4.476233 0.57344,-8.518393 1.72049,-12.126493 1.14638,-3.60843 2.82883,-6.67415 5.04751,-9.19699 2.21818,-2.55025 4.94735,-4.50347 8.18749,-5.85983 3.26506,-1.3836 7.00389,-2.07549 11.21649,-2.07549 4.18736,0 7.90127,0.69189 11.14191,2.07549 3.2649,1.38393 5.99406,3.35078 8.18765,5.90036 2.217854,2.55042 3.900303,5.6296 5.047352,9.23769 1.146384,3.60793 1.719493,7.62302 1.719493,12.045263 z m -7.290445,0 c 0,-3.445463 -0.41115,-6.578793 -1.2336,-9.399823 -0.7977,-2.82185 -1.99425,-5.23639 -3.58982,-7.24377 -1.56999,-2.0077 -3.52653,-3.5541 -5.86947,-4.63936 -2.34294,-1.08475 -5.04735,-1.62713 -8.11307,-1.62713 -3.14063,0 -5.89488,0.54238 -8.2629,1.62713 -2.36736,1.08526 -4.34882,2.63166 -5.94439,4.63936 -1.57048,2.00738 -2.75458,4.42192 -3.55211,7.24377 -0.77279,2.82103 -1.15918,5.95436 -1.15918,9.399823 0,3.445134 0.39902,6.605374 1.19689,9.480887 0.82245,2.8491 2.01867,5.317955 3.58882,7.406564 1.59557,2.061698 3.56474,3.676038 5.90768,4.842689 2.36735,1.139574 5.08422,1.709361 8.15077,1.709361 3.28965,0 6.11848,-0.583409 8.4865,-1.75006 2.39311,-1.166319 4.34982,-2.780327 5.86997,-4.842025 1.5454,-2.089273 2.67949,-4.571584 3.40228,-7.447096 0.7477,-2.875846 1.12163,-6.009341 1.12163,-9.40032 z m -62.77389,28.93271 0,-57.337163 7.14077,0 0,57.337163 z m -21.9466,0 -28.19032,-48.831223 c 0.0482,1.32911 0.1113,2.64461 0.18838,3.94614 0.0482,1.11283 0.088,2.29311 0.11628,3.54049 0.0482,1.22064 0.0731,2.30589 0.0731,3.25592 l 0,38.088673 -6.35603,0 0,-57.337163 8.30012,0 28.48934,49.157982 c -0.0781,-1.329281 -0.15117,-2.658728 -0.2221,-3.988341 -0.0482,-1.13891 -0.098,-2.373171 -0.14951,-3.702784 -0.0482,-1.356524 -0.0731,-2.645106 -0.0731,-3.865912 l 0,-37.600945 6.43078,0 0,57.337163 -8.59946,0 z m -55.3336,0 -28.19083,-48.831223 c 0.0482,1.32911 0.1113,2.64461 0.18838,3.94614 0.0482,1.11283 0.088,2.29311 0.11628,3.54049 0.0482,1.22064 0.0731,2.30589 0.0731,3.25592 l 0,38.088673 -6.35636,0 0,-57.337163 8.29994,0 28.48984,49.157982 c -0.0781,-1.329281 -0.15117,-2.658728 -0.2221,-3.988341 -0.0482,-1.13891 -0.098,-2.373171 -0.1495,-3.702784 -0.0482,-1.356524 -0.0731,-2.645106 -0.0731,-3.865912 l 0,-37.600945 6.43029,0 0,57.337163 -8.59897,0 z m -47.96907,0 -6.01931,-16.765187 -24.00314,0 -6.05602,16.765187 -7.40357,0 21.49823,-57.337163 8.11324,0 21.16151,57.337163 z m -14.91729,-41.750923 c -0.39868,-1.08541 -0.78507,-2.18429 -1.15917,-3.29645 -0.34968,-1.1125 -0.66132,-2.11619 -0.93475,-3.01107 -0.2736,-0.92262 -0.51048,-1.68228 -0.71049,-2.27881 -0.17393,-0.62411 -0.27526,-1.00386 -0.30433,-1.13941 -0.0482,0.13455 -0.16114,0.51497 -0.33805,1.13941 -0.17393,0.62377 -0.41065,1.39672 -0.71049,2.31885 -0.27376,0.92278 -0.5977,1.94043 -0.97179,3.05259 -0.34935,1.11216 -0.71083,2.21087 -1.08443,3.29613 l -6.72979,18.841167 19.70349,0 -6.76701,-18.922407 z m -65.0547,41.750923 0,-57.337163 7.14078,0 0,50.988941 26.62017,0 0,6.348222 z m 146.96546,-334.379903 -32.19744,0.0772 -61.76256,178.99523 27.86108,0 14.69451,-42.32376 66.1966,-0.15449 36.26386,107.18427 35.39207,0.0581 -86.44812,-243.81615 z m -18.21873,41.47169 23.89168,68.84918 -47.68667,0.11595 23.79499,-68.96462 z m 115.70161,-45.38503 0.13954,114.61867 54.328086,-0.0532 c 50.846411,-0.50716 44.966643,-53.53583 17.173839,-58.76151 25.027594,-11.84196 18.932038,-55.30606 -10.009809,-55.79922 z m 53.127713,19.22572 c 16.763858,0.0532 16.918349,28.57484 0,28.67384 l -30.649383,0 0,-28.65452 z m -30.552363,46.33172 34.095175,0 c 18.276201,1.00322 17.148921,28.72895 0,30.14512 l -34.211465,0 z m -296.26272,-115.50984 c -12.36836,0 -22.40242,10.03405 -22.40242,22.40247 l 0,389.27254 c 0,12.36753 10.03406,22.401591 22.40242,22.401591 l 390.0946404,0 c 12.3680279,0 22.4020896,-10.034061 22.4020896,-22.401591 l 0,-389.27254 c 0,-12.36842 -10.0340617,-22.40247 -22.4020896,-22.40247 z m 0,4.96728 390.0946404,0 c 9.70182441,0 17.4343129,7.73299 17.4343129,17.43519 l 0,389.27254 c 0,9.701326 -7.73248849,17.434811 -17.4343129,17.434811 l -390.0946404,0 c -9.70216,0 -17.43514,-7.733485 -17.43514,-17.434811 l 0,-389.27254 c 0,-9.7022 7.73298,-17.43519 17.43514,-17.43519 z m 274.23124,178.07699 0.13455,114.61923 54.327098,-0.0581 c 50.846909,-0.50766 44.967141,-53.53637 17.173839,-58.76197 25.028092,-11.84242 18.932536,-55.30664 -10.009809,-55.7993 z m 53.126719,19.22572 c 16.764356,0.058 16.919345,28.57529 0,28.67397 l -30.648379,0 0,-28.65465 z m -30.551699,46.33121 34.095507,0 c 18.275703,1.00419 17.149419,28.72955 0,30.14571 l -34.211457,0 z m -269.73591,-197.10028 76.9468,0.11113 0.0581,19.63821 -54.59886,-0.11113 -0.0581,29.48436 45.58261,0.058 0,18.03365 -45.52713,0 0,47.46296 -22.40342,0 z m -0.0581,131.60131 22.12816,0 0,94.92638 58.63688,0 0,19.52708 -80.70906,0 z" />
      </g>
    </g>
    <path
       style="opacity:1;fill:none;fill-opacity:1;fill-rule:nonzero;stroke:#ff0000;stroke-width:0.45916179;stroke-linecap:round;stroke-linejoin:round;stroke-miterlimit:4;stroke-dasharray:none;stroke-dashoffset:0;stroke-opacity:1"
       d="m 3889.4778,-1887.2063 a 8.6286869,8.6286869 0 0 1 -8.6287,8.6287 8.6286869,8.6286869 0 0 1 -8.6287,-8.6287 8.6286869,8.6286869 0 0 1 8.6287,-8.6287 8.6286869,8.6286869 0 0 1 8.6287,8.6287 z"
       id="path5555" />
    <path
       style="opacity:1;fill:none;fill-opacity:1;fill-rule:nonzero;stroke:#ff0000;stroke-width:0.45916179;stroke-linecap:round;stroke-linejoin:round;stroke-miterlimit:4;stroke-dasharray:none;stroke-dashoffset:0;stroke-opacity:1"
       d="m 3941.2217,-1806.8003 a 8.6286869,8.6286869 0 0 1 -8.6287,8.6287 8.6286869,8.6286869 0 0 1 -8.6287,-8.6287 8.6286869,8.6286869 0 0 1 8.6287,-8.6287 8.6286869,8.6286869 0 0 1 8.6287,8.6287 z"
       id="circle5557" />
    <path
       style="opacity:1;fill:none;fill-opacity:1;fill-rule:nonzero;stroke:#ff0000;stroke-width:0.45916179;stroke-linecap:round;stroke-linejoin:round;stroke-miterlimit:4;stroke-dasharray:none;stroke-dashoffset:0;stroke-opacity:1"
       d="m 3994.439,-1887.2063 a 8.6286869,8.6286869 0 0 1 -8.6287,8.6287 8.6286869,8.6286869 0 0 1 -8.6287,-8.6287 8.6286869,8.6286869 0 0 1 8.6287,-8.6287 8.6286869,8.6286869 0 0 1 8.6287,8.6287 z"
       id="circle5559" />
    <path
       style="opacity:1;fill:none;fill-opacity:1;fill-rule:nonzero;stroke:#ff0000;stroke-width:0.51433486;stroke-linecap:round;stroke-linejoin:round;stroke-miterlimit:4;stroke-dasharray:none;stroke-dashoffset:0;stroke-opacity:1"
       d="m 3258.6445,-1289.929 -11.3108,18.7366 -1.8186,-21.8102 -21.3147,-4.9674 20.1807,-8.4693 -1.8624,-21.8065 14.291,16.5759 20.1637,-8.5098 -11.3485,18.7138 14.3243,16.5471 z"
       id="use5565" />
    <path
       style="opacity:1;fill:none;fill-opacity:1;fill-rule:nonzero;stroke:#ff0000;stroke-width:0.51433486;stroke-linecap:round;stroke-linejoin:round;stroke-miterlimit:4;stroke-dasharray:none;stroke-dashoffset:0;stroke-opacity:1"
       d="m 3331.0324,-1379.8523 -11.3108,18.7365 -1.8186,-21.8102 -21.3147,-4.9673 20.1808,-8.4693 -1.8624,-21.8065 14.2909,16.5759 20.1637,-8.5098 -11.3484,18.7137 14.3242,16.5472 z"
       id="use5569" />
    <path
       style="opacity:1;fill:none;fill-opacity:1;fill-rule:nonzero;stroke:#ff0000;stroke-width:0.51433486;stroke-linecap:round;stroke-linejoin:round;stroke-miterlimit:4;stroke-dasharray:none;stroke-dashoffset:0;stroke-opacity:1"
       d="m 3396.2714,-1397.4766 -11.3108,18.7365 -1.8186,-21.8102 -21.3147,-4.9673 20.1808,-8.4693 -1.8624,-21.8065 14.291,16.5759 20.1637,-8.5098 -11.3485,18.7137 14.3242,16.5472 z"
       id="use5573" />
    <path
       style="opacity:1;fill:none;fill-opacity:1;fill-rule:nonzero;stroke:#ff0000;stroke-width:0.51433486;stroke-linecap:round;stroke-linejoin:round;stroke-miterlimit:4;stroke-dasharray:none;stroke-dashoffset:0;stroke-opacity:1"
       d="m 3377.8029,-1299.0774 -11.3108,18.7365 -1.8186,-21.8102 -21.3147,-4.9673 20.1808,-8.4693 -1.8624,-21.8065 14.2909,16.5759 20.1638,-8.5098 -11.3485,18.7137 14.3242,16.5472 z"
       id="use5575" />
    <path
       style="opacity:1;fill:none;fill-opacity:1;fill-rule:nonzero;stroke:#ff0000;stroke-width:0.51433486;stroke-linecap:round;stroke-linejoin:round;stroke-miterlimit:4;stroke-dasharray:none;stroke-dashoffset:0;stroke-opacity:1"
       d="m 3312.5434,-1323.627 -11.3108,18.7366 -1.8186,-21.8102 -21.3147,-4.9674 20.1807,-8.4693 -1.8623,-21.8065 14.2909,16.5759 20.1637,-8.5098 -11.3484,18.7138 14.3242,16.5471 z"
       id="use5577" />
    <path
       style="opacity:1;fill:none;fill-opacity:1;fill-rule:nonzero;stroke:#ff0000;stroke-width:0.51433486;stroke-linecap:round;stroke-linejoin:round;stroke-miterlimit:4;stroke-dasharray:none;stroke-dashoffset:0;stroke-opacity:1"
       d="m 3437.0742,-1327.0521 -11.3109,18.7365 -1.8185,-21.8102 -21.3148,-4.9674 20.1808,-8.4692 -1.8624,-21.8065 14.291,16.5759 20.1637,-8.5099 -11.3485,18.7138 14.3243,16.5471 z"
       id="use5589" />
    <path
       style="opacity:1;fill:none;fill-opacity:1;fill-rule:nonzero;stroke:#ff0000;stroke-width:0.51433486;stroke-linecap:round;stroke-linejoin:round;stroke-miterlimit:4;stroke-dasharray:none;stroke-dashoffset:0;stroke-opacity:1"
       d="m 3684.5524,-1319.1481 -11.3108,18.7365 -1.8186,-21.8102 -21.3147,-4.9673 20.1808,-8.4693 -1.8624,-21.8065 14.291,16.5759 20.1637,-8.5098 -11.3485,18.7137 14.3242,16.5472 z"
       id="use5591" />
    <path
       style="opacity:1;fill:none;fill-opacity:1;fill-rule:nonzero;stroke:#ff0000;stroke-width:0.51433486;stroke-linecap:round;stroke-linejoin:round;stroke-miterlimit:4;stroke-dasharray:none;stroke-dashoffset:0;stroke-opacity:1"
       d="m 3488.3955,-1277.2211 -11.3109,18.7365 -1.8185,-21.8102 -21.3148,-4.9673 20.1808,-8.4693 -1.8624,-21.8065 14.291,16.5759 20.1637,-8.5098 -11.3485,18.7137 14.3243,16.5472 z"
       id="use5593" />
    <path
       style="opacity:1;fill:none;fill-opacity:1;fill-rule:nonzero;stroke:#ff0000;stroke-width:0.51433486;stroke-linecap:round;stroke-linejoin:round;stroke-miterlimit:4;stroke-dasharray:none;stroke-dashoffset:0;stroke-opacity:1"
       d="m 3541.1582,-1351.7977 -11.3109,18.7365 -1.8185,-21.8102 -21.3148,-4.9674 20.1808,-8.4692 -1.8624,-21.8066 14.291,16.5759 20.1637,-8.5098 -11.3485,18.7138 14.3243,16.5471 z"
       id="use5599" />
    <path
       style="opacity:1;fill:none;fill-opacity:1;fill-rule:nonzero;stroke:#ff0000;stroke-width:0.51433486;stroke-linecap:round;stroke-linejoin:round;stroke-miterlimit:4;stroke-dasharray:none;stroke-dashoffset:0;stroke-opacity:1"
       d="m 3596.2348,-1403.3141 -11.3108,18.7365 -1.8186,-21.8102 -21.3147,-4.9673 20.1808,-8.4693 -1.8624,-21.8065 14.2909,16.5759 20.1637,-8.5098 -11.3484,18.7137 14.3242,16.5472 z"
       id="use5605" />
    <path
       style="opacity:1;fill:none;fill-opacity:1;fill-rule:nonzero;stroke:#ff0000;stroke-width:0.51433486;stroke-linecap:round;stroke-linejoin:round;stroke-miterlimit:4;stroke-dasharray:none;stroke-dashoffset:0;stroke-opacity:1"
       d="m 3583.9863,-1296.8063 -11.3109,18.7365 -1.8185,-21.8102 -21.3147,-4.9673 20.1807,-8.4693 -1.8624,-21.8065 14.291,16.5759 20.1637,-8.5098 -11.3485,18.7137 14.3243,16.5472 z"
       id="use5607" />
    <path
       style="opacity:1;fill:none;fill-opacity:1;fill-rule:nonzero;stroke:#ff0000;stroke-width:0.51433486;stroke-linecap:round;stroke-linejoin:round;stroke-miterlimit:4;stroke-dasharray:none;stroke-dashoffset:0;stroke-opacity:1"
       d="m 3686.321,-1407.361 -11.3108,18.7365 -1.8186,-21.8102 -21.3147,-4.9673 20.1807,-8.4693 -1.8624,-21.8065 14.291,16.5759 20.1637,-8.5098 -11.3484,18.7137 14.3242,16.5472 z"
       id="use5613" />
    <path
       style="opacity:1;fill:none;fill-opacity:1;fill-rule:nonzero;stroke:#ff0000;stroke-width:0.51433486;stroke-linecap:round;stroke-linejoin:round;stroke-miterlimit:4;stroke-dasharray:none;stroke-dashoffset:0;stroke-opacity:1"
       d="m 3474.4453,-1379.7767 -11.3109,18.7365 -1.8185,-21.8102 -21.3148,-4.9674 20.1808,-8.4693 -1.8624,-21.8065 14.291,16.5759 20.1637,-8.5098 -11.3485,18.7138 14.3243,16.5471 z"
       id="use5617" />
    <path
       style="opacity:1;fill:none;fill-opacity:1;fill-rule:nonzero;stroke:#ff0000;stroke-width:0.51433486;stroke-linecap:round;stroke-linejoin:round;stroke-miterlimit:4;stroke-dasharray:none;stroke-dashoffset:0;stroke-opacity:1"
       d="m 3266.1867,-1373.3372 -11.3108,18.7365 -1.8186,-21.8102 -21.3147,-4.9673 20.1808,-8.4693 -1.8624,-21.8065 14.2909,16.5759 20.1637,-8.5098 -11.3484,18.7137 14.3242,16.5472 z"
       id="use5623" />
    <path
       style="opacity:1;fill:none;fill-opacity:1;fill-rule:nonzero;stroke:#ff0000;stroke-width:0.51433486;stroke-linecap:round;stroke-linejoin:round;stroke-miterlimit:4;stroke-dasharray:none;stroke-dashoffset:0;stroke-opacity:1"
       d="m 3279.9765,-1431.6607 -11.3108,18.7366 -1.8186,-21.8102 -21.3147,-4.9674 20.1808,-8.4693 -1.8624,-21.8065 14.2909,16.5759 20.1637,-8.5098 -11.3484,18.7138 14.3242,16.5471 z"
       id="use5625"
       inkscape:connector-curvature="0" />
    <path
       style="opacity:1;fill:none;fill-opacity:1;fill-rule:nonzero;stroke:#ff0000;stroke-width:0.58642054;stroke-linecap:round;stroke-linejoin:round;stroke-miterlimit:4;stroke-dasharray:none;stroke-dashoffset:0;stroke-opacity:1"
       d="m 3821.0078,-1616.5679 a 6.7934041,6.7934041 0 0 1 -6.7934,6.7934 6.7934041,6.7934041 0 0 1 -6.7934,-6.7934 6.7934041,6.7934041 0 0 1 6.7934,-6.7934 6.7934041,6.7934041 0 0 1 6.7934,6.7934 z"
       id="path5659" />
  </g>
</svg>
